<?xml version="1.0" encoding="utf-8"?>
<!-- Generator: Adobe Illustrator 24.1.2, SVG Export Plug-In . SVG Version: 6.00 Build 0)  -->
<svg version="1.1" id="Layer_1" xmlns="http://www.w3.org/2000/svg" xmlns:xlink="http://www.w3.org/1999/xlink" x="0px" y="0px"
	 viewBox="0 0 184 87" style="enable-background:new 0 0 184 87;" xml:space="preserve">
<style type="text/css">
	.st1{fill:#4d4d4d;}
</style>
<g class="st0">
	<path class="st1" d="M77.88,26.56c2.09,0,3.68-0.55,4.74-1.66c1.07-1.1,1.6-2.67,1.6-4.7v-4.13c0-2.01-0.53-3.56-1.61-4.66
		c-1.07-1.1-2.67-1.65-4.8-1.65c-2.08,0-3.66,0.55-4.77,1.66c-1.1,1.11-1.65,2.66-1.65,4.67v4.17c0,2.01,0.55,3.56,1.65,4.65
		C74.14,26.02,75.75,26.56,77.88,26.56z M75.63,16.02c0-0.87,0.17-1.54,0.51-2c0.34-0.47,0.91-0.7,1.69-0.7
		c0.77,0,1.32,0.23,1.68,0.7c0.35,0.47,0.52,1.14,0.52,2v4.29c0,0.88-0.18,1.56-0.52,2.02c-0.35,0.47-0.91,0.71-1.68,0.71
		c-0.78,0-1.35-0.24-1.69-0.73c-0.34-0.49-0.51-1.15-0.51-2V16.02z"/>
	<path class="st1" d="M96.07,26.56c2.09,0,3.68-0.55,4.74-1.66c1.06-1.1,1.6-2.67,1.6-4.7v-4.13c0-2.01-0.54-3.56-1.61-4.66
		c-1.07-1.1-2.67-1.65-4.8-1.65c-2.08,0-3.67,0.55-4.77,1.66c-1.1,1.11-1.65,2.66-1.65,4.67v4.17c0,2.01,0.55,3.56,1.65,4.65
		C92.32,26.02,93.94,26.56,96.07,26.56z M93.81,16.02c0-0.87,0.17-1.54,0.51-2c0.34-0.47,0.91-0.7,1.69-0.7
		c0.77,0,1.32,0.23,1.68,0.7c0.35,0.47,0.52,1.14,0.52,2v4.29c0,0.88-0.18,1.56-0.52,2.02c-0.35,0.47-0.91,0.71-1.68,0.71
		c-0.79,0-1.35-0.24-1.69-0.73c-0.34-0.49-0.51-1.15-0.51-2V16.02z"/>
	<path class="st1" d="M110.67,26.56c2.09,0,3.68-0.55,4.74-1.66c1.06-1.1,1.59-2.67,1.59-4.7v-4.13c0-2.01-0.53-3.56-1.61-4.66
		c-1.07-1.1-2.67-1.65-4.8-1.65c-2.08,0-3.67,0.55-4.77,1.66c-1.1,1.11-1.64,2.66-1.64,4.67v4.17c0,2.01,0.55,3.56,1.64,4.65
		C106.93,26.02,108.55,26.56,110.67,26.56z M108.42,16.02c0-0.87,0.17-1.54,0.51-2c0.35-0.47,0.91-0.7,1.69-0.7
		c0.77,0,1.32,0.23,1.68,0.7c0.35,0.47,0.52,1.14,0.52,2v4.29c0,0.88-0.18,1.56-0.52,2.02c-0.35,0.47-0.91,0.71-1.68,0.71
		c-0.79,0-1.35-0.24-1.69-0.73c-0.34-0.49-0.51-1.15-0.51-2V16.02z"/>
	<path class="st1" d="M125.3,26.56c2.09,0,3.68-0.55,4.74-1.66c1.06-1.1,1.6-2.67,1.6-4.7v-4.13c0-2.01-0.54-3.56-1.61-4.66
		c-1.07-1.1-2.67-1.65-4.8-1.65c-2.08,0-3.66,0.55-4.76,1.66c-1.1,1.11-1.65,2.66-1.65,4.67v4.17c0,2.01,0.55,3.56,1.65,4.65
		C121.56,26.02,123.17,26.56,125.3,26.56z M123.05,16.02c0-0.87,0.17-1.54,0.51-2c0.34-0.47,0.91-0.7,1.69-0.7
		c0.77,0,1.32,0.23,1.68,0.7c0.35,0.47,0.52,1.14,0.52,2v4.29c0,0.88-0.18,1.56-0.52,2.02c-0.35,0.47-0.91,0.71-1.68,0.71
		c-0.79,0-1.35-0.24-1.69-0.73c-0.34-0.49-0.51-1.15-0.51-2V16.02z"/>
	<polygon class="st1" points="65.28,26.5 69.31,26.5 69.31,10.2 66.55,10.2 61.93,11.58 62.76,14.86 65.28,14.23 	"/>
	<polygon class="st1" points="88.89,24.31 85.42,24.31 84.24,28.69 86.69,28.69 	"/>
	<path class="st1" d="M69.35,40.74c-0.5,0-0.9-0.13-1.11-0.31c-0.32-0.27-0.48-0.59-0.5-0.96h-3.96c0.06,2.81,2.87,3.83,5.42,3.83
		c2.64,0,5.52-0.82,5.52-3.83c0-1.78-1.21-2.6-2.59-3.04c-1.38-0.46-2.95-0.55-3.65-0.84c-0.23-0.11-0.48-0.25-0.48-0.57
		c0-0.71,0.67-0.84,1.26-0.84c0.34,0,0.67,0.11,0.92,0.32c0.27,0.19,0.46,0.46,0.48,0.82h3.77c-0.11-2.78-2.93-3.43-5.28-3.43
		c-2.18,0-5.13,0.71-5.13,3.45c0,1.86,1.27,2.87,4.44,3.41c1.93,0.33,2.28,0.52,2.28,1.16C70.75,40.53,69.89,40.74,69.35,40.74z"/>
	<path class="st1" d="M89.36,43.03h4.15v-7.45c0-1.76-0.94-3.68-3.73-3.68c-2.7,0-3.54,1.57-3.71,1.69
		c-0.5-1.09-1.76-1.69-2.93-1.69c-1.51,0-2.72,0.46-3.56,1.72h-0.04v-1.45h-4v10.87h4.15v-5.88c0-1.13,0.35-1.95,1.4-1.95
		c1.26,0,1.36,0.92,1.36,1.95v5.88h4.15v-5.88c0-1.13,0.36-1.95,1.4-1.95c1.26,0,1.36,0.92,1.36,1.95V43.03z"/>
	<path class="st1" d="M105.49,40.59v-4.46c0-2.1,0.04-4.25-5.15-4.25c-2.58,0-5.46,0.5-5.59,3.56h3.85
		c0.02-0.46,0.27-1.11,1.55-1.11c0.67,0,1.36,0.27,1.36,1c0,0.69-0.57,0.86-1.13,0.96c-2.11,0.4-6.13,0.27-6.13,3.7
		c0,2.28,1.74,3.29,3.83,3.29c1.34,0,2.62-0.29,3.5-1.29h0.04c-0.02,0.29,0.04,0.73,0.14,1.02h4.23
		C105.53,42.33,105.49,41.41,105.49,40.59z M101.51,39.15c-0.07,1.13-0.8,1.7-1.74,1.7c-0.75,0-1.3-0.51-1.3-1.01
		c0-0.73,0.48-0.96,1.4-1.17c0.57-0.13,1.13-0.27,1.64-0.52V39.15z"/>
	<rect x="106.93" y="28.6" class="st1" width="4.15" height="14.42"/>
	<rect x="112.68" y="28.6" class="st1" width="4.15" height="14.42"/>
	<path class="st1" d="M76.47,54.58c0-2.55-0.99-5.65-4.63-5.65c-1.23,0-2.35,0.54-2.97,1.46h-0.04v-5.27h-4.15v14.95h4v-1.19h0.04
		c0.52,0.69,1.15,1.47,3.18,1.47C74.98,60.34,76.47,57.3,76.47,54.58z M70.5,57.33c-1.49,0-1.82-1.4-1.82-2.7
		c0-1.28,0.34-2.68,1.82-2.68c1.49,0,1.82,1.4,1.82,2.68C72.32,55.92,71.99,57.33,70.5,57.33z"/>
	<path class="st1" d="M84.36,54.94c0,1.74-0.94,2.09-1.65,2.09c-1.22,0-1.36-0.88-1.36-2.13V49.2H77.2v7.45
		c0,2.49,1.78,3.69,3.73,3.69c1.65,0,2.76-0.57,3.54-1.65h0.04v1.38h4V49.2h-4.15V54.94z"/>
	<path class="st1" d="M97.68,53.48c-1.38-0.46-2.95-0.55-3.64-0.84c-0.23-0.11-0.48-0.25-0.48-0.57c0-0.71,0.67-0.84,1.26-0.84
		c0.34,0,0.67,0.11,0.92,0.32c0.27,0.19,0.46,0.46,0.48,0.81h3.77c-0.11-2.78-2.93-3.43-5.28-3.43c-2.18,0-5.13,0.71-5.13,3.46
		c0,1.86,1.28,2.87,4.44,3.41c1.93,0.33,2.28,0.52,2.28,1.15c0,0.63-0.86,0.84-1.41,0.84c-0.5,0-0.9-0.13-1.11-0.31
		c-0.31-0.27-0.48-0.58-0.5-0.96h-3.96c0.06,2.81,2.87,3.83,5.42,3.83c2.64,0,5.53-0.82,5.53-3.83
		C100.27,54.73,99.06,53.91,97.68,53.48z"/>
	<rect x="101.19" y="49.2" class="st1" width="4.15" height="10.87"/>
	<rect x="101.19" y="45.12" class="st1" width="4.15" height="2.91"/>
	<path class="st1" d="M114.44,48.93c-1.65,0-2.76,0.57-3.54,1.65h-0.04V49.2h-4v10.87h4.15v-5.74c0-1.74,0.94-2.09,1.66-2.09
		c1.21,0,1.36,0.88,1.36,2.13v5.69h4.14v-7.45C118.17,50.12,116.39,48.93,114.44,48.93z"/>
	<path class="st1" d="M124.87,48.93c-3.44,0-5.74,2.57-5.74,5.74c0,3.62,2.62,5.67,6.09,5.67c2.47,0,4.76-1.09,5.59-3.43h-3.87
		c-0.33,0.52-1.07,0.77-1.74,0.77c-1.3,0-2.01-0.88-2.11-2.11h7.95C131.05,51.34,129.18,48.93,124.87,48.93z M123.11,53.41
		c0.19-1.17,0.9-1.82,2.14-1.82c1.07,0,1.82,0.81,1.82,1.82H123.11z"/>
	<path class="st1" d="M142.29,56.51c0-1.78-1.21-2.6-2.6-3.03c-1.38-0.46-2.95-0.55-3.64-0.84c-0.23-0.11-0.48-0.25-0.48-0.57
		c0-0.71,0.67-0.84,1.26-0.84c0.33,0,0.67,0.11,0.92,0.32c0.27,0.19,0.46,0.46,0.48,0.81H142c-0.1-2.78-2.93-3.43-5.28-3.43
		c-2.18,0-5.13,0.71-5.13,3.46c0,1.86,1.28,2.87,4.44,3.41c1.93,0.33,2.28,0.52,2.28,1.15c0,0.63-0.86,0.84-1.4,0.84
		c-0.5,0-0.9-0.13-1.11-0.31c-0.31-0.27-0.48-0.58-0.5-0.96h-3.96c0.06,2.81,2.87,3.83,5.42,3.83
		C139.4,60.34,142.29,59.53,142.29,56.51z"/>
	<path class="st1" d="M150.87,53.48c-1.38-0.46-2.95-0.55-3.64-0.84c-0.23-0.11-0.49-0.25-0.49-0.57c0-0.71,0.67-0.84,1.26-0.84
		c0.34,0,0.67,0.11,0.92,0.32c0.27,0.19,0.46,0.46,0.48,0.81h3.77c-0.11-2.78-2.93-3.43-5.28-3.43c-2.18,0-5.13,0.71-5.13,3.46
		c0,1.86,1.28,2.87,4.43,3.41c1.93,0.33,2.29,0.52,2.29,1.15c0,0.63-0.86,0.84-1.4,0.84c-0.5,0-0.9-0.13-1.11-0.31
		c-0.31-0.27-0.49-0.58-0.5-0.96h-3.96c0.06,2.81,2.87,3.83,5.42,3.83c2.64,0,5.53-0.82,5.53-3.83
		C153.47,54.73,152.25,53.91,150.87,53.48z"/>
	<path class="st1" d="M159.58,48.93c-3.43,0-5.74,2.57-5.74,5.74c0,3.62,2.62,5.67,6.1,5.67c2.47,0,4.75-1.09,5.59-3.43h-3.88
		c-0.33,0.52-1.07,0.77-1.74,0.77c-1.29,0-2.01-0.88-2.11-2.11h7.95C165.76,51.34,163.89,48.93,159.58,48.93z M157.82,53.41
		c0.19-1.17,0.9-1.82,2.14-1.82c1.07,0,1.82,0.81,1.82,1.82H157.82z"/>
	<path class="st1" d="M174.4,53.48c-1.38-0.46-2.95-0.55-3.65-0.84c-0.23-0.11-0.48-0.25-0.48-0.57c0-0.71,0.67-0.84,1.25-0.84
		c0.34,0,0.67,0.11,0.92,0.32c0.27,0.19,0.46,0.46,0.49,0.81h3.77c-0.11-2.78-2.93-3.43-5.28-3.43c-2.18,0-5.13,0.71-5.13,3.46
		c0,1.86,1.28,2.87,4.44,3.41c1.93,0.33,2.28,0.52,2.28,1.15c0,0.63-0.86,0.84-1.4,0.84c-0.5,0-0.9-0.13-1.11-0.31
		c-0.31-0.27-0.48-0.58-0.5-0.96h-3.96c0.07,2.81,2.87,3.83,5.42,3.83c2.64,0,5.53-0.82,5.53-3.83
		C177,54.73,175.78,53.91,174.4,53.48z"/>
	<path class="st1" d="M44.31,18c-0.03,0.39-0.04,0.77,0,1.36c0.05,0.58,0.4,0.69,0.72,0.57c0.38-0.16,0.6-0.81,0.6-1.52v-2.06
		l-0.57,0.36C44.46,17.04,44.36,17.48,44.31,18z"/>
	<path class="st1" d="M7,60.4h50.76V9.64H7V60.4z M21.83,29.84h-1.7v-0.75c-0.2,0.51-0.75,0.87-1.51,0.87
		c-0.67,0-1.73-0.28-1.73-1.85c0-1.45,1-1.75,2.04-2.2c1.01-0.43,1.12-0.49,1.12-0.86v-1.12c0-0.46-0.28-0.66-0.78-0.63
		c-0.2,0.01-0.56,0.11-0.58,0.36c-0.03,0.34,0.31,0.32,0.36,0.79c0.07,0.66-0.5,0.93-1.02,0.91c-0.35-0.03-0.79-0.22-0.84-0.8
		c-0.06-0.87,0.98-1.62,2.46-1.62c0.65,0,1.08,0.12,1.41,0.31c0.49,0.29,0.76,0.67,0.76,1.56V29.84z M37.02,29.84h-2.05v-2.52h0.35
		c0.28,1.32,0.67,2.13,1.68,2.16c0.64,0.02,1.1-0.35,1.1-1.01c0-0.63-0.44-1.06-1.42-1.62c-1.07-0.62-1.76-1.01-1.76-1.95
		c-0.01-1.19,0.89-1.97,2.29-1.97c0.44,0,1.79,0,1.79,0v1.84h-0.35c-0.18-0.78-0.52-1.42-1.35-1.48c-0.51-0.04-0.96,0.24-1.01,0.68
		c-0.05,0.45,0.1,0.9,1.04,1.4c1.16,0.62,2.08,0.93,2.08,2.28C39.4,29.11,38.15,29.84,37.02,29.84z M49.06,13.61h1.65v0.76
		c0.21-0.44,0.73-0.83,1.42-0.88c1.14-0.08,1.89,0.59,1.89,2.02v4.88h-1.78v-5.13c0-0.57-0.02-1.07-0.43-1.18
		c-0.17-0.04-0.43-0.01-0.6,0.14c-0.3,0.26-0.38,0.57-0.38,1.04v5.12h-1.78V13.61z M44.84,13.85c-0.2,0.01-0.56,0.12-0.57,0.36
		c-0.03,0.33,0.31,0.32,0.36,0.79c0.06,0.66-0.51,0.93-1.02,0.9c-0.35-0.02-0.8-0.22-0.84-0.79c-0.06-0.87,0.98-1.62,2.45-1.62
		c0.65,0,1.08,0.12,1.42,0.32c0.49,0.28,0.77,0.67,0.77,1.55v5.03h-1.7l0-0.75c-0.2,0.51-0.75,0.87-1.51,0.87
		c-0.67,0-1.73-0.28-1.73-1.86c0-1.44,1-1.75,2.04-2.19c1.02-0.43,1.12-0.49,1.12-0.86v-1.12C45.63,14.03,45.36,13.82,44.84,13.85z
		 M33.28,13.61h1.61v0.76c0.21-0.44,0.69-0.83,1.39-0.88c0.81-0.05,1.38,0.25,1.67,0.93c0.18-0.38,0.67-0.87,1.45-0.93
		c1.14-0.08,1.86,0.59,1.86,2.02v4.88H39.5v-5.12c0-0.57-0.02-1.07-0.43-1.18c-0.18-0.05-0.37-0.03-0.56,0.14
		c-0.31,0.25-0.38,0.56-0.38,1.02l0,5.13h-1.75v-5.12c0-0.57-0.02-1.07-0.43-1.18c-0.18-0.05-0.37-0.03-0.57,0.14
		c-0.3,0.25-0.38,0.57-0.38,1.04v5.12h-1.73V13.61z M28.72,13.52c0.53,0,0.88,0.25,1.06,0.61v-1.92h1.77v8.18h-1.69v-0.68
		c-0.17,0.36-0.57,0.75-1.3,0.75c-1.79,0-2.26-2.28-2.23-3.62C26.39,14.85,27.41,13.52,28.72,13.52z M23.36,12.21h1.79v8.18h-1.79
		V12.21z M25.84,22.93c0.76-0.01,1.26,0.23,1.59,0.71c0.27,0.39,0.31,1.04-0.06,1.44c-0.44,0.47-1.46,0.39-1.61-0.24
		c-0.13-0.55,0.15-0.78,0.4-1.05c0.17-0.17,0.14-0.51-0.34-0.5c-0.59,0.02-0.83,0.65-0.91,1.45c-0.14,1.29-0.13,2.42,0.03,3.44
		c0.1,0.7,0.31,1.37,1.22,1.38c1.21,0.01,2.44-1.59,2.44-3.29v-4.62h1.78v1.95c0.26-0.35,0.71-0.63,1.3-0.67
		c1.14-0.08,1.88,0.59,1.88,2.02v4.88h-1.77v-5.1c0-0.57-0.02-1.07-0.42-1.18c-0.18-0.04-0.43-0.02-0.61,0.13
		c-0.3,0.26-0.38,0.57-0.38,1.05v5.1h-1.78V28c-0.28,0.89-1.37,1.96-2.61,1.96c-1.1,0-2.98-0.51-2.98-3.44
		C23.02,23.79,24.87,22.94,25.84,22.93z M17.88,14.09c0.44-0.36,0.93-0.6,1.55-0.6c0.63,0,1.11,0.24,1.56,0.6
		c0.74,0.61,1.18,1.69,1.18,2.92c0,1.23-0.44,2.32-1.18,2.92c-0.45,0.36-0.93,0.6-1.56,0.6c-0.63,0-1.11-0.24-1.55-0.6
		c-0.74-0.6-1.18-1.68-1.18-2.92C16.71,15.77,17.14,14.69,17.88,14.09z M13.11,12.07h2.37v2.85h-0.35
		c-0.28-1.37-0.95-2.47-1.89-2.51c-0.64-0.03-1.02,0.31-1.31,0.84c-0.32,0.57-0.47,1.85-0.47,3.37c0,1.4,0.06,2.45,0.24,3.19
		c0.09,0.37,0.32,0.93,1,0.94c0.39,0.01,0.61-0.13,0.79-0.32c0.28-0.28,0.32-0.9,0.32-1.32v-1.32c0-0.5-0.19-0.82-0.43-0.97
		c-0.2-0.12-0.51-0.13-0.69-0.14v-0.36h2.89v7.2h-0.35c-0.13-0.57-0.26-0.96-0.51-1.42c-0.25-0.47-0.7-0.93-1.47-0.98
		c-0.83-0.05-1.48,0.48-1.48,1.23c0,1.01,0.6,1.23,1.76,1.87c1.07,0.58,2.49,1.08,2.49,2.88c0,1.68-1.52,2.75-3.21,2.75H10.1v-3.48
		h0.36c0.46,2.63,1.61,3.09,2.37,3.09c0.97,0,1.45-0.62,1.42-1.5c-0.04-1.09-0.8-1.48-1.9-2.06c-1.55-0.83-2.28-1.25-2.25-2.66
		c0.03-1.18,0.99-1.95,2.12-2.24c-2.29-0.27-2.95-2.29-2.93-4.45C9.31,14.4,10.6,12.07,13.11,12.07z"/>
	<path class="st1" d="M19.44,20.18c0.33,0,0.52-0.15,0.64-0.41c0.25-0.52,0.25-1.52,0.25-2.76c0-1.24,0-2.25-0.25-2.77
		c-0.12-0.26-0.31-0.41-0.64-0.41c-0.33,0-0.52,0.15-0.64,0.41c-0.25,0.52-0.25,1.53-0.25,2.77c0,1.24,0,2.24,0.25,2.76
		C18.92,20.03,19.11,20.18,19.44,20.18z"/>
	<path class="st1" d="M28.9,20.03c0.25,0,0.38-0.11,0.55-0.32c0.43-0.54,0.38-1.87,0.38-2.85c0-0.98-0.03-2.15-0.4-2.68
		c-0.11-0.17-0.24-0.27-0.5-0.26c-0.66,0.02-0.79,1.54-0.79,2.89c0,0.79,0.02,1.53,0.08,2.13C28.3,19.64,28.54,20.02,28.9,20.03z"/>
	<path class="st1" d="M18.74,27.43c-0.03,0.4-0.04,0.77,0,1.36c0.04,0.58,0.4,0.69,0.72,0.57c0.38-0.15,0.6-0.8,0.6-1.52v-2.05
		l-0.57,0.35C18.89,26.48,18.78,26.93,18.74,27.43z"/>
	<path class="st1" d="M12.68,69.62l-3.33,7.55h1.01l0.78-1.86h3.78l0.77,1.86h1.05l-3.21-7.55H12.68z M11.5,74.48l1.57-3.71h0.02
		l1.49,3.71H11.5z"/>
	<polygon class="st1" points="43.16,69.62 42.27,69.62 42.27,77.17 46.62,77.17 46.62,76.34 43.16,76.34 	"/>
	<path class="st1" d="M76.9,74.16c0,1.22-0.45,2.37-1.95,2.37c-1.5,0-1.95-1.15-1.95-2.37v-4.54h-0.9v4.67
		c0,1.64,0.77,3.07,2.85,3.07c2.08,0,2.85-1.43,2.85-3.07v-4.67h-0.9V74.16z"/>
	<polygon class="st1" points="108.08,75.54 108.06,75.54 105.5,69.62 104.17,69.62 104.17,77.17 105.06,77.17 105.06,70.83 
		105.08,70.83 107.79,77.17 108.34,77.17 111.05,70.83 111.07,70.83 111.07,77.17 111.96,77.17 111.96,69.62 110.66,69.62 	"/>
	<polygon class="st1" points="143.9,75.89 143.87,75.89 139.5,69.62 138.37,69.62 138.37,77.17 139.27,77.17 139.27,70.9 
		139.29,70.9 143.66,77.17 144.79,77.17 144.79,69.62 143.9,69.62 	"/>
	<rect x="171.2" y="69.62" class="st1" width="0.9" height="7.55"/>
</g>
</svg>
