<?xml version="1.0" encoding="utf-8"?>
<!-- Generator: Adobe Illustrator 24.1.2, SVG Export Plug-In . SVG Version: 6.00 Build 0)  -->
<svg version="1.1" id="Layer_1" xmlns="http://www.w3.org/2000/svg" xmlns:xlink="http://www.w3.org/1999/xlink" x="0px" y="0px"
	 viewBox="0 0 277 87" style="enable-background:new 0 0 277 87;" xml:space="preserve">
<style type="text/css">
	.st1{fill:#4d4d4d;}
</style>
<g class="st0">
	<polygon class="st1" points="226.66,42.17 226.66,44.64 226.66,47.98 226.66,50.41 226.66,54.07 226.66,56.8 226.66,56.81 
		241.64,56.81 241.64,54.07 229.96,54.07 229.96,50.41 236.81,50.41 236.81,47.98 229.96,47.98 229.96,44.64 241.64,44.64 
		241.64,42.17 229.96,42.17 	"/>
	<polygon class="st1" points="159.25,42.17 159.25,44.64 159.25,47.98 159.25,50.41 159.25,54.07 159.25,56.8 159.25,56.81 
		174.23,56.81 174.23,54.07 162.55,54.07 162.55,50.41 169.4,50.41 169.4,47.98 162.55,47.98 162.55,44.64 174.23,44.64 
		174.23,42.17 162.55,42.17 	"/>
	<polygon class="st1" points="137.36,42.17 134.28,42.17 134.28,56.8 137.36,56.8 137.36,46.79 148.53,56.27 148.53,52.18 
		137.36,42.7 	"/>
	<rect x="33.59" y="42.17" class="st1" width="3.32" height="14.63"/>
	<polygon class="st1" points="122.76,52 118.89,42.17 116.43,42.17 112.52,52.13 108.84,42.17 105.34,42.17 110.92,56.81 
		113.3,56.81 117.38,46.76 121.45,56.81 123.96,56.81 129.54,42.17 126.39,42.17 	"/>
	<rect x="148.54" y="42.17" class="st1" width="3.08" height="14.63"/>
	<path class="st1" d="M258.73,42.17h-7.29h-0.55h-2.75V56.8h3.3v-0.01h7.29c4,0,7.25-3.25,7.25-7.25V49.4
		C265.98,45.41,262.73,42.17,258.73,42.17z M257.83,54.05h-6.39v-9.14h6.39c2.52,0,4.57,2.04,4.57,4.57
		C262.4,52,260.36,54.05,257.83,54.05z"/>
	<path class="st1" d="M217.02,47.97h-10.36v-3.34h9.71l-0.02,1.81l2.99-0.67v-1.26c0-1.29-1.05-2.34-2.34-2.34h-10.96
		c-1.29,0-2.34,1.05-2.34,2.34v3.8c0,1.4,1.13,2.54,2.54,2.54h10.25v3.21h-10.47V52.4l-2.96,0.58v1.48c0,1.29,1.05,2.34,2.34,2.34
		h11.62c1.29,0,2.34-1.05,2.34-2.34v-4.15C219.36,49.02,218.31,47.97,217.02,47.97z"/>
	<path class="st1" d="M193.94,51.36c1.43,0,2.59-1.16,2.59-2.59v-4.02c0-1.43-1.16-2.59-2.59-2.59h-13.27V56.8h3.41v-5.45h3.3
		l5.89,5.45h4.78l-6.6-5.44H193.94z M184.08,48.8v-0.01v-4.2h8.11c0.53,0,0.98,0.43,0.98,0.98v2.25c0,0.53-0.43,0.98-0.98,0.98
		H184.08z"/>
	<path class="st1" d="M24.29,49.28c1.43,0,2.59-1.16,2.59-2.59v-1.94c0-1.43-1.16-2.59-2.59-2.59H11.02V56.8h3.41h9.87
		c1.43,0,2.59-1.16,2.59-2.59v-2.34C26.88,50.45,25.72,49.29,24.29,49.28z M23.52,53.27c0,0.53-0.43,0.98-0.98,0.98h-8.12v-3.78
		c0.01-0.01,8.12-0.01,8.12-0.01c0.53,0,0.98,0.43,0.98,0.98V53.27z M23.52,47.02c0,0.53-0.43,0.98-0.98,0.98h-8.11v-3.41h8.11
		c0.53,0,0.98,0.43,0.98,0.98V47.02z"/>
	<polygon class="st1" points="43.62,44.78 52.84,44.78 42.58,55.24 42.58,56.81 58.29,56.81 58.29,54.03 47.94,54.03 58.29,43.7 
		58.29,42.17 43.62,42.17 	"/>
	<path class="st1" d="M82.36,37.33c-0.39-0.06-0.78-0.08-1.18-0.08c-4.92,0-8.92,3.99-8.92,8.92s3.99,8.92,8.92,8.92
		c4.92,0,8.92-3.99,8.92-8.92c0-0.38-0.03-0.75-0.07-1.11l-6.94,3.45c-0.43,0.21-0.91,0.32-1.4,0.32c-1.07,0-2.09-0.57-2.66-1.48
		c-0.57-0.92-0.63-2.06-0.14-3.04L82.36,37.33z"/>
	<path class="st1" d="M94.7,42.72c0.28,1.1,0.44,2.26,0.44,3.44c0,7.71-6.25,13.96-13.96,13.96c-7.71,0-13.96-6.25-13.96-13.96
		c0-7.71,6.25-13.96,13.97-13.96c1.21,0,2.38,0.17,3.5,0.46l1.75-3.52c-1.66-0.52-3.42-0.79-5.25-0.79c-9.83,0-17.8,7.97-17.8,17.8
		c0,9.83,7.97,17.8,17.8,17.8s17.8-7.97,17.8-17.8c0.01-1.79-0.27-3.53-0.77-5.18L94.7,42.72z"/>
	<path class="st1" d="M92.42,23.03l-5.93,11.9l-5.25,10.54c-0.21,0.44,0.25,0.91,0.69,0.69l10.55-5.24l11.9-5.93l-9.99-2.02
		L92.42,23.03z"/>
</g>
</svg>
