<svg width="24" height="24" viewBox="0 0 24 24" fill="none" xmlns="http://www.w3.org/2000/svg">
<path d="M20.05 8.33H12.76V4C12.76 3.45 12.31 3 11.76 3H3.95996C3.40996 3 2.95996 3.45 2.95996 4V20C2.95996 20.55 3.40996 21 3.95996 21H6.41996H9.29996H11.76H14.46H17.35H20.05C20.6 21 21.05 20.55 21.05 20V9.33C21.05 8.78 20.6 8.33 20.05 8.33ZM4.94996 5H10.75V9.33V19H10.3V14.43C10.3 13.88 9.84996 13.43 9.29996 13.43H6.40996C5.85996 13.43 5.40996 13.88 5.40996 14.43V19H4.94996V5ZM7.40996 19V15.43H8.29996V19H7.40996ZM15.46 19V16.6H16.35V19H15.46ZM19.05 19H18.35V15.6C18.35 15.05 17.9 14.6 17.35 14.6H14.46C13.91 14.6 13.46 15.05 13.46 15.6V19H12.76V10.33H19.05V19Z" fill="#343C44"/>
<path d="M6.84978 10.86C7.29978 10.86 7.66979 10.49 7.66979 10.04C7.66979 9.58998 7.29978 9.22998 6.84978 9.22998C6.39978 9.22998 6.02979 9.59998 6.02979 10.05C6.02979 10.5 6.39978 10.86 6.84978 10.86Z" fill="#343C44"/>
<path d="M8.86004 10.86C9.31004 10.86 9.68004 10.49 9.68004 10.04C9.68004 9.58998 9.31004 9.22998 8.86004 9.22998C8.41004 9.22998 8.04004 9.59998 8.04004 10.05C8.04004 10.5 8.41004 10.86 8.86004 10.86Z" fill="#343C44"/>
<path d="M6.84978 8.60002C7.29978 8.60002 7.66979 8.23002 7.66979 7.78002C7.66979 7.33002 7.29978 6.96002 6.84978 6.96002C6.39978 6.96002 6.02979 7.33002 6.02979 7.78002C6.02979 8.23002 6.39978 8.60002 6.84978 8.60002Z" fill="#343C44"/>
<path d="M8.86004 8.60002C9.31004 8.60002 9.68004 8.23002 9.68004 7.78002C9.68004 7.33002 9.31004 6.96002 8.86004 6.96002C8.41004 6.96002 8.04004 7.33002 8.04004 7.78002C8.04004 8.23002 8.41004 8.60002 8.86004 8.60002Z" fill="#343C44"/>
</svg>
