<?xml version="1.0" encoding="utf-8"?>
<!-- Generator: Adobe Illustrator 24.1.2, SVG Export Plug-In . SVG Version: 6.00 Build 0)  -->
<svg version="1.1" id="Layer_1" xmlns="http://www.w3.org/2000/svg" xmlns:xlink="http://www.w3.org/1999/xlink" x="0px" y="0px"
	 viewBox="0 0 93 87" style="enable-background:new 0 0 93 87;" xml:space="preserve">
<style type="text/css">
	.st1{fill:#4d4d4d;}
</style>
<g class="st0">
	<polygon class="st1" points="20.87,58.63 18.54,58.63 18.54,56.68 20.78,56.68 20.78,55.45 18.54,55.45 18.54,53.86 20.87,53.86 
		20.87,52.63 17.13,52.63 17.13,59.85 20.87,59.85 	"/>
	<path class="st1" d="M24.65,59.85h1.34v-2.87c0-1.09-0.37-1.98-1.63-1.98c-0.48,0-0.95,0.16-1.23,0.58h-0.01v-0.42h-1.34v4.7h1.34
		v-2.33c0-0.57,0.01-1.46,0.8-1.46c0.76,0,0.73,0.73,0.73,1.29V59.85z"/>
	<polygon class="st1" points="28.44,59.85 28.44,56.28 29.27,56.28 29.27,55.15 28.44,55.15 28.44,53.56 27.1,53.56 27.1,55.15 
		26.64,55.15 26.64,56.28 27.1,56.28 27.1,59.85 	"/>
	<path class="st1" d="M30.93,55.64h-0.01v-0.48h-1.34v4.7h1.34v-2.12c0-0.73,0.09-1.55,1.02-1.55c0.21,0,0.4,0.05,0.56,0.17
		l0.16-1.25C32.48,55.05,32.29,55,32.1,55C31.6,55,31.2,55.23,30.93,55.64z"/>
	<path class="st1" d="M35.09,60c0.99,0,1.81-0.52,2.14-1.46l-1.24-0.2c-0.18,0.37-0.46,0.64-0.9,0.64c-0.7,0-0.93-0.67-0.93-1.26
		v-0.01h3.09v-0.16c0-1.42-0.69-2.56-2.23-2.56c-1.52,0-2.28,1.12-2.28,2.55S33.63,60,35.09,60z M35.1,55.94
		c0.52,0,0.82,0.47,0.89,0.95H34.2C34.27,56.4,34.56,55.94,35.1,55.94z"/>
	<path class="st1" d="M39.21,59.42h0.02c0.27,0.38,0.78,0.59,1.26,0.59c1.38,0,2.17-1.25,2.17-2.53c0-1.24-0.81-2.48-2.14-2.48
		c-0.5,0-0.99,0.22-1.3,0.58h-0.01v-0.42h-1.34v7.21h1.34V59.42z M40.19,56.19c0.69,0,1.11,0.68,1.11,1.31s-0.42,1.32-1.11,1.32
		s-1.11-0.69-1.11-1.32S39.5,56.19,40.19,56.19z"/>
	<path class="st1" d="M46.38,55.11C46.2,55.05,46.01,55,45.82,55c-0.5,0-0.9,0.23-1.17,0.64h-0.01v-0.48H43.3v4.7h1.34v-2.12
		c0-0.73,0.09-1.55,1.02-1.55c0.21,0,0.4,0.05,0.56,0.17L46.38,55.11z"/>
	<path class="st1" d="M50.97,57.71v-0.16c0-1.42-0.69-2.56-2.23-2.56c-1.52,0-2.28,1.12-2.28,2.55S47.35,60,48.81,60
		c0.98,0,1.8-0.52,2.13-1.46l-1.23-0.2c-0.18,0.37-0.46,0.64-0.9,0.64c-0.7,0-0.93-0.67-0.93-1.26v-0.01
		C47.88,57.71,50.97,57.71,50.97,57.71z M48.82,55.94c0.52,0,0.82,0.47,0.89,0.95h-1.79C47.99,56.4,48.28,55.94,48.82,55.94z"/>
	<path class="st1" d="M54.19,55c-0.48,0-0.95,0.16-1.23,0.58h-0.02v-0.42H51.6v4.7h1.35v-2.33c0-0.57,0-1.46,0.8-1.46
		c0.76,0,0.73,0.73,0.73,1.29v2.49h1.34v-2.87C55.82,55.89,55.45,55,54.19,55z"/>
	<path class="st1" d="M58.71,54.99c-1.52,0-2.28,1.12-2.28,2.55S57.32,60,58.78,60c0.99,0,1.81-0.52,2.14-1.46l-1.24-0.2
		c-0.18,0.37-0.46,0.64-0.9,0.64c-0.7,0-0.93-0.67-0.93-1.26v-0.01h3.09v-0.16C60.94,56.13,60.25,54.99,58.71,54.99z M57.89,56.89
		c0.07-0.49,0.36-0.95,0.9-0.95c0.52,0,0.82,0.47,0.89,0.95H57.89z"/>
	<path class="st1" d="M61.54,55.15v2.77c0,1.37,0.71,2.09,2.11,2.09s2.11-0.72,2.11-2.09v-2.77h-1.34v2.55
		c0,0.54-0.09,1.18-0.77,1.18s-0.77-0.64-0.77-1.18v-2.55H61.54z"/>
	<path class="st1" d="M68.04,57.74c0-0.73,0.09-1.55,1.02-1.55c0.21,0,0.4,0.05,0.56,0.17l0.16-1.25C69.6,55.05,69.41,55,69.22,55
		c-0.5,0-0.9,0.23-1.17,0.64h-0.01v-0.48H66.7v4.7h1.34C68.04,59.86,68.04,57.74,68.04,57.74z"/>
	<path class="st1" d="M72.44,56.98c-0.48-0.21-0.97-0.3-0.97-0.65c0-0.23,0.22-0.4,0.44-0.4c0.27,0,0.52,0.15,0.71,0.33l0.57-0.79
		c-0.38-0.34-1.01-0.49-1.51-0.49c-0.88,0-1.49,0.64-1.49,1.52c0,0.76,0.47,1.04,0.94,1.24s0.94,0.3,0.94,0.71
		c0,0.31-0.24,0.51-0.54,0.51c-0.4,0-0.74-0.25-1-0.54l-0.61,0.79c0.41,0.5,1.03,0.79,1.66,0.79c0.99,0,1.83-0.63,1.83-1.67
		C73.41,57.52,72.93,57.19,72.44,56.98z"/>
	<polygon class="st1" points="74.98,52.44 73.94,55.35 74.83,55.46 76.21,52.59 	"/>
	<path class="st1" d="M20.36,62.81c-2.1,0-3.57,1.77-3.57,3.79c0,2.07,1.46,3.81,3.57,3.81c2.1,0,3.57-1.74,3.57-3.81
		C23.93,64.58,22.47,62.81,20.36,62.81z M20.37,69.02c-1.2,0-2.12-1.39-2.12-2.48c0-1.17,0.88-2.35,2.12-2.35s2.12,1.18,2.12,2.35
		C22.49,67.63,21.57,69.02,20.37,69.02z"/>
	<path class="st1" d="M25.95,66h-0.01v-0.48H24.6v4.7h1.34V68.1c0-0.73,0.09-1.55,1.02-1.55c0.21,0,0.4,0.05,0.56,0.17l0.16-1.25
		c-0.18-0.06-0.37-0.11-0.56-0.11C26.62,65.36,26.22,65.59,25.95,66z"/>
	<path class="st1" d="M31.19,65.96h-0.02c-0.27-0.36-0.75-0.6-1.22-0.6c-1.39,0-2.18,1.25-2.18,2.54c0,1.26,0.74,2.47,2.12,2.47
		c0.49,0,0.99-0.24,1.28-0.62h0.02v0.31c0,0.71-0.02,1.54-0.97,1.54c-0.51,0-0.86-0.32-0.93-0.82h-1.42
		c0.06,1.25,1.22,1.95,2.37,1.95c1.76,0,2.28-1.27,2.28-2.8h0.01v-4.42h-1.34C31.19,65.51,31.19,65.96,31.19,65.96z M30.24,69.18
		c-0.69,0-1.11-0.68-1.11-1.31s0.42-1.32,1.11-1.32s1.11,0.69,1.11,1.32S30.92,69.18,30.24,69.18z"/>
	<path class="st1" d="M36.6,65.95c-0.32-0.38-0.82-0.59-1.31-0.59c-1.35,0-2.14,1.23-2.14,2.48c0,1.27,0.78,2.53,2.16,2.53
		c0.48,0,0.98-0.21,1.27-0.58h0.02v0.43h1.32v-4.71H36.6V65.95z M35.62,69.18c-0.69,0-1.11-0.69-1.11-1.32s0.42-1.31,1.11-1.31
		s1.12,0.68,1.12,1.31S36.31,69.18,35.62,69.18z"/>
	<path class="st1" d="M41.48,65.37c-0.48,0-0.95,0.16-1.23,0.58h-0.01v-0.42H38.9v4.7h1.34V67.9c0-0.57,0.01-1.46,0.8-1.46
		c0.76,0,0.73,0.72,0.73,1.29v2.49h1.34v-2.87C43.11,66.26,42.74,65.37,41.48,65.37z"/>
	<path class="st1" d="M44.81,62.75c-0.44,0-0.79,0.36-0.79,0.79c0,0.45,0.35,0.8,0.79,0.8s0.79-0.36,0.79-0.8
		C45.6,63.11,45.24,62.75,44.81,62.75z"/>
	<rect x="44.13" y="65.52" class="st1" width="1.34" height="4.7"/>
	<polygon class="st1" points="46.37,65.51 46.37,66.64 48.4,66.64 46,70.22 50.46,70.22 50.46,69.09 48.23,69.09 50.61,65.51 	"/>
	<path class="st1" d="M54.22,65.95c-0.32-0.38-0.82-0.59-1.31-0.59c-1.35,0-2.14,1.23-2.14,2.48c0,1.27,0.78,2.53,2.16,2.53
		c0.48,0,0.98-0.21,1.27-0.58h0.02v0.43h1.32v-4.71h-1.32V65.95z M53.23,69.18c-0.69,0-1.11-0.69-1.11-1.32s0.42-1.31,1.11-1.31
		s1.12,0.68,1.12,1.31S53.92,69.18,53.23,69.18z"/>
	<polygon class="st1" points="58.01,63.93 56.67,63.93 56.67,65.51 56.21,65.51 56.21,66.64 56.67,66.64 56.67,70.22 58.01,70.22 
		58.01,66.64 58.83,66.64 58.83,65.51 58.01,65.51 	"/>
	<rect x="59.19" y="65.52" class="st1" width="1.34" height="4.7"/>
	<path class="st1" d="M59.87,62.75c-0.45,0-0.8,0.36-0.8,0.79c0,0.45,0.36,0.8,0.8,0.8s0.79-0.36,0.79-0.8
		C60.66,63.11,60.3,62.75,59.87,62.75z"/>
	<path class="st1" d="M63.7,65.36c-1.47,0-2.47,1.05-2.47,2.51s1,2.5,2.47,2.5c1.47,0,2.47-1.04,2.47-2.5S65.16,65.36,63.7,65.36z
		 M63.69,69.18c-0.69,0-1.11-0.68-1.11-1.31c0-0.65,0.43-1.32,1.11-1.32c0.69,0,1.11,0.67,1.11,1.32
		C64.8,68.5,64.38,69.18,63.69,69.18z"/>
	<path class="st1" d="M69.39,65.37c-0.48,0-0.95,0.16-1.23,0.58h-0.02v-0.42H66.8v4.7h1.35V67.9c0-0.57,0.01-1.46,0.8-1.46
		c0.76,0,0.73,0.72,0.73,1.29v2.49h1.34v-2.87C71.02,66.26,70.65,65.37,69.39,65.37z"/>
	<ellipse class="st1" cx="51.31" cy="15.64" rx="1.36" ry="1.37"/>
	<path class="st1" d="M39.96,17.01c0.76,0,1.37-0.62,1.37-1.37s-0.62-1.37-1.37-1.37s-1.36,0.61-1.36,1.37
		C38.6,16.4,39.21,17.01,39.96,17.01z"/>
	<ellipse class="st1" cx="63.13" cy="15.64" rx="1.39" ry="1.37"/>
	<path class="st1" d="M51.53,46.98c6.62,0,12.01-5.33,12.01-11.89c0-4.04-2.03-7.62-5.13-9.78l2.42-4.3l-0.74-0.52
		c0,0-1.25,1.79-2.85,4.09c-1.7-0.92-3.64-1.44-5.71-1.44c-6.62,0-12.01,5.36-12.01,11.95C39.52,41.65,44.91,46.98,51.53,46.98z
		 M51.53,26.96c1.25,0,2.42,0.3,3.48,0.81c-2.33,3.33-4.58,6.56-4.61,6.6c-0.2,0.33-0.24,0.73-0.09,1.11
		c0.26,0.65,0.99,0.96,1.64,0.71c0.34-0.13,0.54-0.45,0.73-0.7l3.81-6.78c1.85,1.48,3.05,3.77,3.05,6.35c0,4.46-3.59,8.1-8.01,8.1
		c-4.42-0.01-8.01-3.64-8.01-8.1C43.52,30.59,47.12,26.96,51.53,26.96z"/>
	<polygon class="st1" points="36.62,42.82 26.87,42.82 26.87,36.77 36.01,36.77 36.01,32.92 26.87,32.92 26.87,27.39 36.62,27.39 
		36.62,23.54 22.86,23.54 22.86,46.66 36.62,46.66 	"/>
</g>
</svg>
