<svg width="83" height="81" viewBox="0 0 83 81" fill="none" xmlns="http://www.w3.org/2000/svg">
<path d="M82.0695 63.89H0.679535C0.309535 63.89 0.0195312 63.59 0.0195312 63.23V1.29999C0.0195312 0.929988 0.319535 0.640015 0.679535 0.640015H82.0695C82.4396 0.640015 82.7296 0.939988 82.7296 1.29999V63.23C82.7296 63.59 82.4296 63.89 82.0695 63.89ZM1.33954 62.56H81.4095V1.95999H1.33954V62.56Z" fill="white"/>
<path d="M63.0494 43.41H19.6994C19.4094 43.41 19.1694 43.17 19.1694 42.88V8.37997C19.1694 8.08997 19.4094 7.84998 19.6994 7.84998H63.0494C63.3394 7.84998 63.5794 8.08997 63.5794 8.37997V42.88C63.5794 43.17 63.3394 43.41 63.0494 43.41ZM20.2294 42.35H62.5194V8.90997H20.2294V42.35Z" fill="white"/>
<path d="M55.5294 80.7H27.2194C26.9894 80.7 26.7694 80.58 26.6494 80.38C26.5294 80.18 26.5294 79.93 26.6394 79.72L31.9494 69.99C32.1194 69.67 32.5294 69.55 32.8494 69.73C33.1694 69.91 33.2894 70.31 33.1094 70.63L28.3394 79.38H54.4194L49.6494 70.63C49.4694 70.31 49.5894 69.91 49.9094 69.73C50.2294 69.55 50.6394 69.67 50.8094 69.99L56.1194 79.72C56.2294 79.93 56.2294 80.18 56.1094 80.38C55.9894 80.58 55.7594 80.7 55.5294 80.7Z" fill="white"/>
<path d="M82.0695 49.74H0.679535C0.309535 49.74 0.0195312 49.44 0.0195312 49.08C0.0195312 48.72 0.319535 48.42 0.679535 48.42H82.0695C82.4396 48.42 82.7296 48.72 82.7296 49.08C82.7296 49.44 82.4296 49.74 82.0695 49.74Z" fill="white"/>
<path d="M41.3697 58.8C42.8333 58.8 44.0197 57.6135 44.0197 56.15C44.0197 54.6864 42.8333 53.5 41.3697 53.5C39.9062 53.5 38.7197 54.6864 38.7197 56.15C38.7197 57.6135 39.9062 58.8 41.3697 58.8Z" fill="white"/>
<path d="M56.8494 22.62H25.8894C25.5994 22.62 25.3594 22.38 25.3594 22.09V13.31C25.3594 13.02 25.5994 12.78 25.8894 12.78H56.8494C57.1394 12.78 57.3794 13.02 57.3794 13.31V22.09C57.3794 22.38 57.1494 22.62 56.8494 22.62ZM26.4194 21.56H56.3194V13.84H26.4194V21.56Z" fill="white"/>
<path d="M56.8494 27.11H25.8894C25.5994 27.11 25.3594 26.87 25.3594 26.58C25.3594 26.29 25.5994 26.05 25.8894 26.05H56.8494C57.1394 26.05 57.3794 26.29 57.3794 26.58C57.3794 26.87 57.1494 27.11 56.8494 27.11Z" fill="white"/>
<path d="M56.8494 32.35H25.8894C25.5994 32.35 25.3594 32.11 25.3594 31.82C25.3594 31.53 25.5994 31.29 25.8894 31.29H56.8494C57.1394 31.29 57.3794 31.53 57.3794 31.82C57.3794 32.11 57.1494 32.35 56.8494 32.35Z" fill="white"/>
<path d="M37.3894 37.6H25.8894C25.5994 37.6 25.3594 37.36 25.3594 37.07C25.3594 36.78 25.5994 36.54 25.8894 36.54H37.3894C37.6794 36.54 37.9194 36.78 37.9194 37.07C37.9194 37.36 37.6794 37.6 37.3894 37.6Z" fill="white"/>
<path d="M56.8493 37.66H45.3493C45.0593 37.66 44.8193 37.42 44.8193 37.13C44.8193 36.84 45.0593 36.6 45.3493 36.6H56.8493C57.1393 36.6 57.3793 36.84 57.3793 37.13C57.3793 37.42 57.1493 37.66 56.8493 37.66Z" fill="white"/>
<path d="M68.0293 26.16L77.3793 29.83L73.5993 32.67L71.7093 36.46L68.0293 26.16Z" fill="white"/>
<path d="M73.6096 30.879L72.2803 32.2084L75.8724 35.8005L77.2017 34.4711L73.6096 30.879Z" fill="white"/>
</svg>
