<?xml version="1.0" encoding="utf-8"?>
<!-- Generator: Adobe Illustrator 24.1.2, SVG Export Plug-In . SVG Version: 6.00 Build 0)  -->
<svg version="1.1" id="Layer_1" xmlns="http://www.w3.org/2000/svg" xmlns:xlink="http://www.w3.org/1999/xlink" x="0px" y="0px"
	 viewBox="0 0 104 87" style="enable-background:new 0 0 104 87;" xml:space="preserve">
<style type="text/css">
	.st1{fill:#4d4d4d;}
</style>
<g class="st0">
	<path class="st1" d="M81.36,43.01c-0.07,0-0.15,0-0.22,0c-4.45,0-7.61,1.85-9.61,4.75c-0.04,0.06-0.08,0.12-0.12,0.18c0,0,0,0,0,0
		c0,0,0,0,0,0c-1.74-2.78-4.65-4.86-9.32-4.92c-0.07,0-0.15,0-0.22,0c-4.45,0-7.61,1.85-9.62,4.75c1.18,1.84,1.83,3.99,2.14,6.06
		c-0.31-2.07-0.96-4.22-2.14-6.06c0,0,0,0,0,0c-1.75-2.74-4.64-4.79-9.27-4.85c-3.85-0.05-6.75,1.27-8.78,3.45l-0.09,0.87l0.09-0.87
		c-0.3,0.32-0.58,0.66-0.85,1.02c0.26-0.36,0.55-0.7,0.85-1.02l0.29-2.8H14.01l-1.53,14.93l6.86,0.84c0.48-0.72,1.12-1.77,3.37-1.77
		c2.85,0,4.21,1.81,4.21,4.29c0,2.17-1.16,4.29-4.09,4.29c-1.65,0-2.97-0.76-3.45-2.33c-0.2-0.64-0.2-1.32-0.2-2.01L11,62.67
		c0.44,2.08,0.84,4.01,2.61,5.86c3.13,3.17,7.71,3.17,9.19,3.17c2.33,0,6.63-0.2,9.63-3.29c0.29-0.29,0.56-0.6,0.81-0.94
		c0,0,0,0,0,0c2.1,2.77,5.24,4.27,8.97,4.27c4.61,0,7.71-1.99,9.66-4.85c0,0,0,0,0,0c0.33-0.48,0.63-1,0.89-1.52
		c-0.27,0.53-0.56,1.04-0.89,1.53c2.09,3.21,5.43,4.95,9.45,4.95c4.7,0,7.84-2.08,9.78-5.03c0,0,0,0,0,0c0,0,0,0,0,0
		c0.02,0.02,0.03,0.05,0.05,0.07c2.09,3.21,5.43,4.95,9.45,4.95c9.19,0,12.4-7.95,12.4-14.81C93,51.36,90.71,43.13,81.36,43.01z
		 M30.8,53.48c-1.68-0.96-3.73-1.49-5.99-1.49c-1.49,0-3.29,0.28-4.5,0.76c-0.28,0.12-0.56,0.28-0.84,0.44l0.4-3.89h12.31
		C31.55,50.57,31.09,51.98,30.8,53.48c0.59,0.34,1.13,0.72,1.61,1.16C31.93,54.21,31.39,53.82,30.8,53.48z M35.33,61.26
		c0-0.86-0.11-1.68-0.32-2.44C35.22,59.58,35.33,60.4,35.33,61.26C35.33,61.26,35.33,61.26,35.33,61.26z M42.49,66.08
		c-1.81,0-3.01-1.33-3.53-3.45c-0.32-1.45-0.36-2.97-0.36-4.45c0-2.73,0.16-6.3,1.2-8.07c0.76-1.25,1.93-1.73,2.85-1.73
		c1.93,0,2.93,1.56,3.33,3.29c0.4,1.73,0.48,4.74,0.48,5.98C46.47,61.59,45.87,66.08,42.49,66.08z M49.52,57.83
		c0-2.39,0.34-4.68,1.05-6.71C49.86,53.15,49.52,55.44,49.52,57.83c0,3.1,0.6,5.74,1.67,7.87C50.12,63.57,49.52,60.93,49.52,57.83z
		 M61.6,66.18c-1.81,0-3.01-1.32-3.53-3.45c-0.32-1.45-0.36-2.97-0.36-4.45c0-2.73,0.16-6.3,1.2-8.07c0.76-1.24,1.93-1.73,2.85-1.73
		c1.93,0,2.93,1.56,3.33,3.29c0.4,1.73,0.48,4.74,0.48,5.98C65.58,61.68,64.97,66.18,61.6,66.18z M68.89,55.71
		c-0.06,0.69-0.09,1.4-0.09,2.12c0,0,0,0,0,0C68.79,57.11,68.83,56.4,68.89,55.71C68.89,55.71,68.89,55.71,68.89,55.71z
		 M68.96,55.03c-0.03,0.21-0.05,0.42-0.07,0.64c0,0.01,0,0.02,0,0.03C68.91,55.47,68.93,55.25,68.96,55.03
		C68.96,55.03,68.96,55.03,68.96,55.03z M68.97,54.92c0.01-0.07,0.02-0.15,0.03-0.22c-0.01,0.07-0.02,0.13-0.03,0.2
		C68.98,54.9,68.97,54.91,68.97,54.92z M69.16,53.7c-0.03,0.15-0.05,0.31-0.08,0.46c0,0.01,0,0.01,0,0.02
		C69.11,54.02,69.13,53.86,69.16,53.7C69.16,53.7,69.16,53.7,69.16,53.7z M69.3,53.05c-0.03,0.12-0.05,0.24-0.08,0.37
		C69.25,53.3,69.27,53.17,69.3,53.05C69.3,53.05,69.3,53.05,69.3,53.05z M69.63,51.79c-0.03,0.11-0.06,0.22-0.1,0.34
		c0,0,0,0.01,0,0.01C69.56,52.02,69.59,51.91,69.63,51.79C69.63,51.79,69.63,51.79,69.63,51.79z M69.82,51.19
		c-0.04,0.1-0.07,0.21-0.1,0.31c0,0,0,0,0,0C69.75,51.4,69.79,51.29,69.82,51.19C69.82,51.18,69.82,51.18,69.82,51.19z M80.88,66.18
		c-1.8,0-3.01-1.33-3.53-3.45c-0.32-1.45-0.36-2.97-0.36-4.45c0-2.73,0.16-6.3,1.2-8.07c0.76-1.24,1.93-1.73,2.85-1.73
		c1.93,0,2.93,1.56,3.33,3.29c0.4,1.73,0.48,4.74,0.48,5.98C84.85,61.68,84.25,66.18,80.88,66.18z"/>
	<polygon class="st1" points="34.5,33.39 31.46,33.39 31.46,20.63 34.5,20.63 34.5,15.16 18.28,15.16 18.28,20.63 21.33,20.63 
		21.33,33.39 18.28,33.39 18.28,38.47 34.5,38.47 	"/>
	<path class="st1" d="M48.04,33.39h-2.42v-4.41c0-1.86,1.4-3.24,3.27-3.24c1.47,0,2.61,0.72,2.61,2.32v5.32h-2.35v5.08h12.39v-5
		c1.7,3.75,6.06,5.45,10.48,5.45c3.61,0,8.61-0.87,9.74-6.41l0.06-0.59l-6.6,0l-0.22,0c0,1.87-1.36,2.76-2.91,2.76
		c-2.94,0-3.17-2.45-3.17-4.81v-0.05v0c0-2.36,0.23-4.81,3.17-4.81c2.32,0,2.71,2.01,2.79,3.91l6.85-0.75
		c-0.83-7.98-9.71-7.41-9.71-7.41c-5.65,0-11.21,2.78-11.22,9.08c0,1.34,0.25,2.52,0.71,3.55h-2.02v-6.72c0-4.29-3.14-5.85-7-5.85
		c-2.75,0-4.84,0.75-6.67,2.84c-0.13,0.16-0.29,0.36-0.46,0.49v-3.51H35.34v5.09h2.29v7.67h-2.29v5.08h12.69V33.39z"/>
	<polygon class="st1" points="60.8,29.84 60.8,29.83 60.8,29.83 	"/>
	<path class="st1" d="M84.14,38.56c1.6,0,2.89-1.29,2.89-2.89c0-1.59-1.29-2.89-2.89-2.89c-1.59,0-2.89,1.3-2.89,2.89
		C81.25,37.26,82.54,38.56,84.14,38.56z"/>
</g>
</svg>
