<svg width="95" height="81" viewBox="0 0 95 81" fill="none" xmlns="http://www.w3.org/2000/svg">
<path d="M36.2897 79.57C34.4597 79.57 32.9697 78.08 32.9697 76.25C32.9697 74.42 34.4597 72.93 36.2897 72.93C38.1197 72.93 39.6097 74.42 39.6097 76.25C39.6097 78.08 38.1197 79.57 36.2897 79.57ZM36.2897 74.26C35.1897 74.26 34.2997 75.15 34.2997 76.25C34.2997 77.35 35.1897 78.24 36.2897 78.24C37.3897 78.24 38.2797 77.35 38.2797 76.25C38.2797 75.15 37.3797 74.26 36.2897 74.26Z" fill="white"/>
<path d="M4.8797 41.97C2.5597 41.97 0.679688 40.08 0.679688 37.77C0.679688 35.46 2.5697 33.57 4.8797 33.57C7.1897 33.57 9.07968 35.46 9.07968 37.77C9.07968 40.08 7.1997 41.97 4.8797 41.97ZM4.8797 34.89C3.2897 34.89 1.99969 36.18 1.99969 37.77C1.99969 39.36 3.2897 40.65 4.8797 40.65C6.4697 40.65 7.7597 39.36 7.7597 37.77C7.7597 36.18 6.4597 34.89 4.8797 34.89Z" fill="white"/>
<path d="M66.8396 41.97C64.5196 41.97 62.6396 40.08 62.6396 37.77C62.6396 35.46 64.5296 33.57 66.8396 33.57C69.1496 33.57 71.0396 35.46 71.0396 37.77C71.0396 40.08 69.1596 41.97 66.8396 41.97ZM66.8396 34.89C65.2496 34.89 63.9596 36.18 63.9596 37.77C63.9596 39.36 65.2496 40.65 66.8396 40.65C68.4296 40.65 69.7196 39.36 69.7196 37.77C69.7196 36.18 68.4296 34.89 66.8396 34.89Z" fill="white"/>
<path d="M28.2997 5.69999H27.8797C27.5097 5.69999 27.2197 5.39996 27.2197 5.03996C27.2197 4.66996 27.5197 4.37998 27.8797 4.37998H28.2997C29.0297 4.37998 29.7497 4.13999 30.3397 3.69999L30.6197 3.48997C32.1597 2.32997 34.2297 2.22995 35.8797 3.21995C36.9597 3.85995 38.2897 3.86995 39.3697 3.21995L41.7097 1.81999C42.0297 1.62999 42.4297 1.72997 42.6197 2.04997C42.8097 2.35997 42.7097 2.77 42.3897 2.96L40.0497 4.35996C38.5497 5.25996 36.6897 5.25996 35.1997 4.35996C34.0097 3.64996 32.5297 3.71997 31.4197 4.54997L31.1397 4.75999C30.3197 5.35999 29.3097 5.69999 28.2997 5.69999Z" fill="white"/>
<path d="M6.6496 17.95C6.5096 17.95 6.3796 17.9 6.2796 17.79L2.29959 13.81C2.08959 13.6 2.08959 13.27 2.29959 13.06C2.50959 12.85 2.83959 12.85 3.04959 13.06L7.0296 17.04C7.2396 17.25 7.2396 17.58 7.0296 17.79C6.9196 17.9 6.7796 17.95 6.6496 17.95Z" fill="white"/>
<path d="M2.66962 17.95C2.52962 17.95 2.39959 17.9 2.29959 17.79C2.08959 17.58 2.08959 17.25 2.29959 17.04L6.2796 13.06C6.4896 12.85 6.8196 12.85 7.0296 13.06C7.2396 13.27 7.2396 13.6 7.0296 13.81L3.04959 17.79C2.93959 17.9 2.79962 17.95 2.66962 17.95Z" fill="white"/>
<path d="M85.3896 5.70001C85.2196 5.70001 85.0496 5.64 84.9196 5.51L80.9396 1.53002C80.6796 1.27002 80.6796 0.85002 80.9396 0.59002C81.1996 0.33002 81.6196 0.33002 81.8796 0.59002L85.8596 4.57C86.1196 4.83 86.1196 5.25 85.8596 5.51C85.7296 5.63 85.5596 5.70001 85.3896 5.70001Z" fill="white"/>
<path d="M81.4096 5.70001C81.2396 5.70001 81.0696 5.64 80.9396 5.51C80.6796 5.25 80.6796 4.83 80.9396 4.57L84.9196 0.59002C85.1796 0.33002 85.5996 0.33002 85.8596 0.59002C86.1196 0.85002 86.1196 1.27002 85.8596 1.53002L81.8796 5.51C81.7496 5.63 81.5796 5.70001 81.4096 5.70001Z" fill="white"/>
<path d="M64.1496 76.48H53.5296C53.1596 76.48 52.8696 76.18 52.8696 75.82C52.8696 75.45 53.1696 75.16 53.5296 75.16H64.1496C64.5196 75.16 64.8096 75.46 64.8096 75.82C64.8196 76.18 64.5196 76.48 64.1496 76.48Z" fill="white"/>
<path d="M52.6498 80.9H44.6898C44.3198 80.9 44.0298 80.6 44.0298 80.24C44.0298 79.88 44.3298 79.58 44.6898 79.58H52.6498C53.0198 79.58 53.3098 79.88 53.3098 80.24C53.3098 80.6 53.0198 80.9 52.6498 80.9Z" fill="white"/>
<path d="M91.5798 54.67C90.0698 54.67 88.8398 53.44 88.8398 51.93V45.74C88.8398 44.23 90.0698 43 91.5798 43C93.0898 43 94.3199 44.23 94.3199 45.74V51.93C94.3199 53.44 93.0898 54.67 91.5798 54.67ZM91.5798 44.05C90.6498 44.05 89.8998 44.8 89.8998 45.73V51.92C89.8998 52.85 90.6498 53.6 91.5798 53.6C92.5098 53.6 93.2599 52.85 93.2599 51.92V45.73C93.2599 44.8 92.5098 44.05 91.5798 44.05Z" fill="white"/>
<path d="M82.7699 72.05H11.9899C8.20987 72.05 5.12988 68.97 5.12988 65.19C5.12988 64.82 5.42989 64.53 5.78989 64.53H88.9499C89.3199 64.53 89.6099 64.83 89.6099 65.19C89.6299 68.98 86.5499 72.05 82.7699 72.05ZM6.49988 65.86C6.82988 68.6 9.16987 70.73 11.9899 70.73H82.7699C85.5899 70.73 87.9299 68.6 88.2599 65.86H6.49988Z" fill="white"/>
<path d="M81.8897 65.86H12.8797C12.5097 65.86 12.2197 65.56 12.2197 65.2V15.73C12.2197 12.88 14.5397 10.57 17.3797 10.57H77.3897C80.2397 10.57 82.5497 12.89 82.5497 15.73V65.2C82.5497 65.56 82.2497 65.86 81.8897 65.86ZM13.5397 64.53H81.2197V15.72C81.2197 13.61 79.4997 11.88 77.3797 11.88H17.3697C15.2497 11.88 13.5297 13.6 13.5297 15.72V64.53H13.5397Z" fill="white"/>
<path d="M61.5399 62.76H34.9998C34.6298 62.76 34.3398 62.46 34.3398 62.1V57.86C34.3398 53.25 38.0899 49.5 42.6999 49.5H53.8398C58.4498 49.5 62.1999 53.25 62.1999 57.86V62.1C62.1999 62.47 61.8999 62.76 61.5399 62.76ZM35.6599 61.44H60.8698V57.86C60.8698 53.98 57.7098 50.82 53.8298 50.82H42.6898C38.8098 50.82 35.6498 53.98 35.6498 57.86V61.44H35.6599Z" fill="white"/>
<path d="M40.7498 62.76C40.3798 62.76 40.0898 62.46 40.0898 62.1V58.56C40.0898 58.19 40.3898 57.9 40.7498 57.9C41.1098 57.9 41.4099 58.2 41.4099 58.56V62.1C41.4099 62.47 41.1098 62.76 40.7498 62.76Z" fill="white"/>
<path d="M56.2298 62.76C55.8598 62.76 55.5698 62.46 55.5698 62.1V58.56C55.5698 58.19 55.8698 57.9 56.2298 57.9C56.5998 57.9 56.8898 58.2 56.8898 58.56V62.1C56.8898 62.47 56.5898 62.76 56.2298 62.76Z" fill="white"/>
<path d="M50.6996 62.76C50.3996 62.76 50.1196 62.55 50.0496 62.24C50.0396 62.21 49.3796 59.23 47.7096 56.72C45.8496 53.93 45.8296 50.31 45.8296 50.16C45.8296 49.79 46.1296 49.5 46.4896 49.5C46.8596 49.5 47.1496 49.8 47.1496 50.16C47.1496 50.19 47.1796 53.54 48.8096 55.99C50.6296 58.72 51.3196 61.84 51.3396 61.97C51.4196 62.33 51.1896 62.68 50.8296 62.76C50.7996 62.76 50.7496 62.76 50.6996 62.76Z" fill="white"/>
<path d="M46.4999 62.76C46.4499 62.76 46.4099 62.75 46.3599 62.74C45.9999 62.66 45.7699 62.31 45.8499 61.95C45.8799 61.82 46.5699 58.7 48.3799 55.97C50.0099 53.52 50.0399 50.18 50.0399 50.14C50.0399 49.77 50.3399 49.48 50.6999 49.48C51.0699 49.48 51.3599 49.78 51.3599 50.14C51.3599 50.29 51.3399 53.91 49.4799 56.7C47.8099 59.21 47.1499 62.19 47.1399 62.22C47.0799 62.55 46.7999 62.76 46.4999 62.76Z" fill="white"/>
<path d="M48.6199 48.61H48.5299C43.3799 48.61 39.1999 44.42 39.1999 39.28V32.54C33.4999 30.88 33.8899 24.96 33.8899 24.9C33.9199 24.56 34.1999 24.29 34.5399 24.29C34.8799 24.29 35.1699 24.54 35.2099 24.88C35.2099 24.89 35.3599 25.97 36.2799 26.56C37.1399 27.1 38.4199 27.09 40.0899 26.54C40.4399 26.43 40.8099 26.61 40.9299 26.96C41.0499 27.31 40.8599 27.68 40.5099 27.8C38.4899 28.47 36.8499 28.45 35.6499 27.73C36.1899 29.18 37.3899 30.79 40.0099 31.39C40.3099 31.46 40.5199 31.73 40.5199 32.04V39.3C40.5199 43.71 44.1099 47.3 48.5199 47.3H48.6099C53.1699 47.3 56.8799 43.59 56.8799 39.03V36.46C56.8799 36.09 57.1799 35.8 57.5399 35.8C57.8999 35.8 58.1999 36.1 58.1999 36.46V39.03C58.2199 44.3 53.9099 48.61 48.6199 48.61Z" fill="white"/>
<path d="M57.5597 40.98C57.5196 40.98 57.4696 40.9799 57.4296 40.9699C57.1196 40.91 56.8996 40.64 56.8996 40.32V36.66H56.2396C55.8696 36.66 55.5796 36.36 55.5796 36V33.12H40.2996C39.9296 33.12 39.6397 32.82 39.6397 32.46C39.6397 32.09 39.9396 31.8 40.2996 31.8H56.2197C56.5897 31.8 56.8797 32.1 56.8797 32.46V35.34H57.5397C57.6197 35.34 57.6897 35.35 57.7597 35.38V27.02C57.7597 26.24 57.1297 25.61 56.3497 25.61H42.4997C40.8497 25.61 39.6496 25.37 38.7696 25.06C38.9096 25.72 39.0097 26.55 39.0097 27.59C39.0097 27.96 38.7097 28.25 38.3497 28.25C37.9897 28.25 37.6897 27.95 37.6897 27.59C37.6897 25.5 37.2697 24.46 37.0097 24C36.7597 23.74 36.6396 23.54 36.6096 23.48C36.4696 23.21 36.5397 22.87 36.7797 22.68C37.0197 22.48 37.3597 22.47 37.5997 22.65C37.6497 22.69 37.8197 22.83 38.0397 23.14C38.4997 23.54 39.7196 24.29 42.5196 24.29H56.3696C57.8796 24.29 59.0997 25.52 59.0997 27.02V38.22C59.0997 38.31 59.0796 38.4 59.0496 38.48L58.1697 40.59C58.0597 40.83 57.8197 40.98 57.5597 40.98Z" fill="white"/>
<path d="M77.9296 63.07H16.8396C16.5496 63.07 16.3096 62.83 16.3096 62.54V18.75C16.3096 16.26 18.3296 14.24 20.8196 14.24H73.9396C76.4296 14.24 78.4496 16.26 78.4496 18.75V62.54C78.4596 62.83 78.2196 63.07 77.9296 63.07ZM17.3696 62.01H77.3996V18.75C77.3996 16.85 75.8496 15.3 73.9496 15.3H20.8296C18.9296 15.3 17.3796 16.85 17.3796 18.75L17.3696 62.01Z" fill="white"/>
</svg>
