<?xml version="1.0" encoding="utf-8"?>
<!-- Generator: Adobe Illustrator 24.1.2, SVG Export Plug-In . SVG Version: 6.00 Build 0)  -->
<svg version="1.1" id="Layer_1" xmlns="http://www.w3.org/2000/svg" xmlns:xlink="http://www.w3.org/1999/xlink" x="0px" y="0px"
	 viewBox="0 0 95 87" style="enable-background:new 0 0 95 87;" xml:space="preserve">
<style type="text/css">
	.st1{fill:#4d4d4d;}
</style>
<g class="st0">
	<polygon class="st1" points="33.86,51.82 39.69,51.82 39.69,33.2 31.78,33.2 29.59,41.53 27.3,33.2 19.51,33.2 19.51,51.82 
		24.28,51.82 24.28,41.48 27.23,51.82 31.21,51.82 33.86,41.68 	"/>
	<polygon class="st1" points="61.22,51.85 75.47,51.85 75.47,46.89 67.39,46.89 67.39,44.61 73.96,44.61 73.96,39.95 67.42,39.95 
		67.42,38.09 75.49,38.09 75.49,33.13 61.22,33.13 	"/>
	<path class="st1" d="M58.73,45.94c0-1.75-1.11-3.25-2.67-3.81c1.32-0.64,2.23-2,2.23-3.57v-0.38c0-2.75-2.24-5-5-5H43.02v18.65
		h10.53c2.86,0,5.18-2.33,5.18-5.18V45.94z M48.81,37.75h2.41c0.65,0,1.19,0.53,1.19,1.19s-0.53,1.19-1.19,1.19h-2.41V37.75z
		 M51.38,47.17h-2.58v-2.56h2.58c0.71,0,1.28,0.58,1.28,1.28C52.67,46.6,52.09,47.17,51.38,47.17z"/>
	<path class="st1" d="M36.08,58.8c-0.18,0.15-0.39,0.22-0.65,0.22c-0.21,0-0.4-0.05-0.58-0.16c-0.18-0.11-0.31-0.27-0.4-0.49
		c-0.08-0.22-0.13-0.47-0.13-0.76c0-0.23,0.04-0.45,0.11-0.66c0.07-0.21,0.2-0.38,0.37-0.51s0.4-0.19,0.66-0.19
		c0.23,0,0.42,0.06,0.57,0.17c0.15,0.11,0.27,0.3,0.35,0.54l0.45-0.11c-0.09-0.32-0.25-0.56-0.49-0.74
		c-0.23-0.17-0.52-0.26-0.86-0.26c-0.3,0-0.58,0.07-0.83,0.21c-0.25,0.14-0.45,0.34-0.58,0.61c-0.14,0.27-0.2,0.58-0.2,0.93
		c0,0.33,0.06,0.63,0.18,0.92s0.3,0.5,0.53,0.65c0.23,0.15,0.53,0.23,0.9,0.23c0.36,0,0.66-0.1,0.91-0.29
		c0.25-0.2,0.42-0.48,0.51-0.85l-0.45-0.11C36.37,58.44,36.25,58.65,36.08,58.8z"/>
	<polygon class="st1" points="38.2,57.78 40.09,57.78 40.09,57.38 38.2,57.38 38.2,56.33 40.22,56.33 40.22,55.92 37.74,55.92 
		37.74,59.35 40.3,59.35 40.3,58.94 38.2,58.94 	"/>
	<path class="st1" d="M43.27,57.96c-0.06-0.06-0.15-0.11-0.27-0.17c0.33-0.05,0.57-0.15,0.73-0.32c0.16-0.17,0.24-0.37,0.24-0.61
		c0-0.19-0.05-0.36-0.14-0.52c-0.1-0.16-0.22-0.26-0.38-0.33c-0.16-0.06-0.39-0.09-0.7-0.09h-1.52v3.43h0.45v-1.52h0.53
		c0.12,0,0.2,0.01,0.25,0.02c0.07,0.02,0.14,0.05,0.21,0.09c0.07,0.04,0.14,0.12,0.23,0.23c0.09,0.11,0.19,0.27,0.33,0.47l0.45,0.71
		h0.57l-0.6-0.93C43.52,58.23,43.4,58.08,43.27,57.96z M42.65,57.43h-0.97V56.3h1.08c0.25,0,0.44,0.05,0.56,0.16
		c0.12,0.1,0.18,0.24,0.18,0.4c0,0.11-0.03,0.21-0.09,0.31c-0.06,0.09-0.15,0.16-0.27,0.21C43.02,57.41,42.86,57.43,42.65,57.43z"/>
	<polygon class="st1" points="44.61,56.33 45.74,56.33 45.74,59.35 46.2,59.35 46.2,56.33 47.33,56.33 47.33,55.92 44.61,55.92 	"/>
	<rect x="48.16" y="55.92" class="st1" width="0.45" height="3.43"/>
	<polygon class="st1" points="49.72,59.35 50.17,59.35 50.17,57.79 51.78,57.79 51.78,57.39 50.17,57.39 50.17,56.33 52.03,56.33 
		52.03,55.92 49.72,55.92 	"/>
	<rect x="52.99" y="55.92" class="st1" width="0.45" height="3.43"/>
	<polygon class="st1" points="54.99,57.78 56.88,57.78 56.88,57.38 54.99,57.38 54.99,56.33 57.01,56.33 57.01,55.92 54.53,55.92 
		54.53,59.35 57.09,59.35 57.09,58.94 54.99,58.94 	"/>
	<path class="st1" d="M60.3,56.22c-0.14-0.12-0.31-0.2-0.5-0.25c-0.14-0.03-0.34-0.05-0.61-0.05H58v3.43h1.24
		c0.21,0,0.39-0.02,0.55-0.06c0.16-0.04,0.3-0.1,0.41-0.17c0.11-0.08,0.22-0.18,0.31-0.31c0.1-0.13,0.17-0.3,0.23-0.5
		c0.06-0.2,0.09-0.43,0.09-0.69c0-0.31-0.04-0.58-0.13-0.81C60.61,56.56,60.48,56.37,60.3,56.22z M60.28,58.27
		c-0.06,0.18-0.14,0.33-0.25,0.43c-0.08,0.08-0.18,0.14-0.31,0.18c-0.13,0.04-0.31,0.06-0.53,0.06h-0.73v-2.62h0.72
		c0.27,0,0.47,0.02,0.59,0.07c0.17,0.07,0.31,0.19,0.43,0.39c0.12,0.19,0.18,0.47,0.18,0.83C60.37,57.87,60.34,58.09,60.28,58.27z"
		/>
	<path class="st1" d="M47.81,68.98l-0.6,0.01l0.01,0.45l0.51-0.01c0.15,0,0.23-0.02,0.28-0.04c0.05-0.02,0.08-0.04,0.1-0.08
		c0.02-0.04,0.04-0.08,0.03-0.12c0-0.06-0.02-0.11-0.07-0.15C48.02,69,47.93,68.98,47.81,68.98z"/>
	<path class="st1" d="M36.09,20.71c0.09,0.03,0.17,0.05,0.25,0.05c0.1,0,0.2-0.02,0.31-0.07c0.19-0.09,0.32-0.23,0.38-0.42
		c0.06-0.2,0.03-0.43-0.1-0.69c-0.08-0.17-0.18-0.31-0.29-0.4c-0.11-0.09-0.23-0.14-0.36-0.16c-0.03,0-0.05,0-0.08,0
		c-0.1,0-0.2,0.02-0.31,0.07c-0.18,0.09-0.31,0.22-0.38,0.41c-0.07,0.18-0.03,0.43,0.12,0.75C35.75,20.48,35.9,20.64,36.09,20.71z"
		/>
	<path class="st1" d="M50.41,68.86c-0.01,0-0.03,0-0.05,0c-0.05,0-0.11,0-0.2,0.01l-0.44,0.04l0.05,0.51l0.44-0.04
		c0.21-0.02,0.28-0.07,0.31-0.1c0.03-0.03,0.06-0.08,0.05-0.2c-0.01-0.06-0.03-0.11-0.06-0.15C50.49,68.88,50.46,68.86,50.41,68.86z
		"/>
	<path class="st1" d="M49.6,18.28c0.02,0,0.04,0,0.05,0c0.06-0.01,0.11-0.02,0.15-0.04c0.03-0.02,0.06-0.04,0.08-0.08
		c0.02-0.04,0.04-0.08,0.04-0.14c0-0.06-0.01-0.12-0.03-0.16c-0.03-0.05-0.06-0.08-0.12-0.1c-0.05-0.02-0.14-0.05-0.33-0.06
		L49,17.66l-0.04,0.57l0.49,0.04C49.51,18.28,49.56,18.28,49.6,18.28z"/>
	<path class="st1" d="M78.26,46.68l5.91-3l-5.88-3.06l5.21-4.1l-6.36-1.85l4.31-5.03l-6.6-0.58l3.25-5.78L71.5,24l2.06-6.3
		l-6.32,1.99l0.79-6.58l-5.81,3.19L61.7,9.69l-5.08,4.26l-1.79-6.38l-4.15,5.17l-3-5.91l-3.06,5.88l-4.1-5.21l-1.85,6.36l-5.03-4.31
		l-0.58,6.6l-5.78-3.25L28,19.5l-6.3-2.06l1.99,6.32l-6.58-0.79l3.19,5.81l-6.61,0.51l4.26,5.08l-6.38,1.79l5.17,4.15l-5.91,3
		l5.88,3.06l-5.21,4.1l6.36,1.85l-4.31,5.03l6.6,0.58l-3.25,5.78L23.5,63l-2.06,6.3l6.32-1.99l-0.79,6.58l5.81-3.19l0.51,6.61
		l5.08-4.26l1.79,6.38l4.15-5.17l3,5.91l3.06-5.88l4.1,5.21l1.85-6.36l5.03,4.31l0.58-6.6l5.78,3.25L67,67.5l6.3,2.06l-1.99-6.32
		l6.58,0.79l-3.19-5.81l6.61-0.51l-4.26-5.08l6.38-1.79L78.26,46.68z M64.83,25.01c0.04,0.1,0.11,0.19,0.2,0.28
		c0.08,0.08,0.16,0.13,0.24,0.17c0.05,0.02,0.1,0.03,0.14,0.03c0.01,0,0.03,0,0.04,0c0.05-0.01,0.09-0.03,0.12-0.06
		c0.03-0.03,0.05-0.07,0.05-0.11c0-0.03,0-0.09-0.05-0.19c-0.02-0.04-0.08-0.15-0.24-0.4c-0.14-0.22-0.23-0.39-0.27-0.5
		c-0.05-0.16-0.07-0.31-0.04-0.45c0.03-0.14,0.1-0.27,0.2-0.38c0.11-0.12,0.25-0.2,0.42-0.24c0.06-0.01,0.12-0.02,0.18-0.02
		c0.11,0,0.22,0.02,0.33,0.07c0.16,0.06,0.32,0.17,0.46,0.3c0.16,0.15,0.27,0.31,0.34,0.47c0.08,0.18,0.1,0.35,0.07,0.53
		c-0.03,0.17-0.11,0.33-0.23,0.46l-0.1,0.12l-0.5-0.41l0.1-0.12c0.07-0.1,0.11-0.19,0.1-0.28c-0.01-0.09-0.08-0.2-0.19-0.31
		c-0.15-0.15-0.25-0.18-0.31-0.19c-0.01,0-0.02,0-0.03,0c-0.06,0-0.1,0.02-0.13,0.05c-0.03,0.03-0.05,0.07-0.04,0.11
		c0,0.01,0.01,0.1,0.22,0.42c0.17,0.25,0.27,0.43,0.32,0.55c0.07,0.18,0.1,0.36,0.07,0.51c-0.03,0.16-0.1,0.3-0.22,0.43
		c-0.12,0.12-0.26,0.21-0.44,0.25c-0.07,0.02-0.14,0.02-0.21,0.02c-0.11,0-0.22-0.02-0.33-0.06c-0.18-0.06-0.34-0.17-0.49-0.31
		c-0.19-0.18-0.32-0.36-0.4-0.54c-0.08-0.19-0.1-0.38-0.07-0.58c0.04-0.19,0.12-0.37,0.26-0.52l0.1-0.11l0.5,0.4l-0.09,0.13
		c-0.06,0.08-0.1,0.16-0.11,0.24C64.78,24.84,64.79,24.92,64.83,25.01z M63.43,21.38c0.08-0.03,0.17-0.04,0.26-0.04
		c0.08,0,0.17,0.01,0.25,0.04c0.17,0.05,0.33,0.13,0.49,0.25c0.17,0.13,0.3,0.28,0.39,0.44c0.09,0.17,0.14,0.34,0.12,0.52
		c-0.01,0.17-0.07,0.34-0.18,0.49l-0.09,0.13l-0.54-0.36l0.08-0.13c0.06-0.11,0.09-0.2,0.07-0.29c-0.02-0.09-0.1-0.19-0.22-0.29
		c-0.17-0.13-0.27-0.16-0.33-0.16c-0.1,0-0.14,0.04-0.16,0.07c-0.03,0.04-0.04,0.07-0.03,0.12c0,0.01,0.02,0.1,0.26,0.39
		c0.19,0.23,0.31,0.4,0.37,0.51c0.09,0.18,0.13,0.34,0.12,0.5c-0.01,0.16-0.07,0.31-0.18,0.45c-0.1,0.13-0.24,0.23-0.41,0.29
		c-0.1,0.03-0.2,0.05-0.3,0.05c-0.08,0-0.16-0.01-0.24-0.03c-0.18-0.04-0.36-0.13-0.52-0.26c-0.2-0.16-0.35-0.32-0.45-0.5
		c-0.1-0.18-0.14-0.37-0.13-0.57c0.02-0.19,0.08-0.38,0.21-0.54l0.09-0.12l0.54,0.34l-0.08,0.13c-0.05,0.09-0.08,0.17-0.09,0.25
		c0,0.07,0.02,0.15,0.06,0.23c0.05,0.09,0.13,0.18,0.23,0.26c0.09,0.07,0.17,0.12,0.26,0.14c0.04,0.01,0.08,0.02,0.12,0.02
		c0.02,0,0.05,0,0.07-0.01c0.05-0.01,0.08-0.04,0.11-0.08c0.03-0.04,0.04-0.07,0.04-0.11c0-0.03-0.01-0.09-0.07-0.18
		c-0.02-0.04-0.09-0.14-0.28-0.37c-0.16-0.21-0.27-0.36-0.32-0.47c-0.07-0.15-0.1-0.3-0.09-0.45c0.01-0.14,0.07-0.28,0.16-0.4
		C63.14,21.53,63.27,21.44,63.43,21.38z M63.03,20.63l-0.33,0.54l-1.31-0.81l-0.25,0.4l1.23,0.76l-0.33,0.54L60.8,21.3l-0.3,0.48
		l1.36,0.85l-0.33,0.54l-1.93-1.2l1.55-2.49L63.03,20.63z M58.92,18.35l0.29,2l0.73-1.51l0.59,0.28l-1.27,2.65l-0.54-0.26l-0.29-2
		l-0.73,1.51l-0.59-0.28l1.27-2.65L58.92,18.35z M57.12,17.61l0.63,0.24l-1.05,2.74l-0.63-0.24L57.12,17.61z M53.75,18.41l0.62,0.13
		l-0.03,0.16c-0.02,0.1-0.02,0.19,0.01,0.26c0.02,0.07,0.07,0.13,0.14,0.19c0.08,0.07,0.18,0.12,0.3,0.16
		c0.09,0.03,0.17,0.04,0.24,0.04c0.02,0,0.03,0,0.05,0c0.08-0.01,0.13-0.03,0.18-0.06c0.04-0.03,0.07-0.07,0.08-0.11
		c0.01-0.04,0.01-0.08,0-0.12c-0.01-0.03-0.04-0.08-0.13-0.14c-0.04-0.03-0.13-0.09-0.39-0.24c-0.23-0.13-0.38-0.24-0.47-0.33
		c-0.12-0.12-0.2-0.25-0.24-0.38c-0.04-0.14-0.04-0.28,0.01-0.43c0.05-0.16,0.14-0.29,0.26-0.4c0.13-0.11,0.29-0.17,0.48-0.19
		c0.04,0,0.09-0.01,0.13-0.01c0.14,0,0.28,0.02,0.42,0.06c0.21,0.06,0.38,0.15,0.52,0.27c0.15,0.12,0.25,0.27,0.3,0.44
		c0.05,0.17,0.05,0.34,0.01,0.52l-0.04,0.15l-0.63-0.14l0.03-0.15c0.02-0.12,0.01-0.22-0.04-0.29c-0.05-0.08-0.16-0.14-0.31-0.19
		c-0.1-0.03-0.18-0.04-0.25-0.04c-0.04,0-0.08,0.01-0.11,0.02c-0.09,0.04-0.11,0.08-0.12,0.12c-0.01,0.05-0.01,0.08,0.01,0.12
		c0.01,0.01,0.06,0.09,0.39,0.27c0.26,0.15,0.44,0.26,0.53,0.34c0.15,0.13,0.25,0.27,0.29,0.43c0.05,0.16,0.05,0.32,0,0.48
		c-0.05,0.16-0.14,0.3-0.28,0.42c-0.13,0.11-0.3,0.19-0.49,0.21c-0.06,0.01-0.11,0.01-0.17,0.01c-0.13,0-0.27-0.02-0.41-0.06
		c-0.25-0.07-0.45-0.17-0.6-0.3c-0.16-0.13-0.27-0.29-0.32-0.48c-0.06-0.19-0.06-0.38,0-0.58L53.75,18.41z M51.05,17.78l0.3-1.64
		l0.66,0.12l-0.3,1.64c-0.05,0.25-0.04,0.38-0.03,0.44c0.02,0.08,0.05,0.14,0.11,0.19c0.07,0.06,0.16,0.1,0.28,0.12
		c0.07,0.01,0.14,0.02,0.2,0.02c0.1,0,0.19-0.02,0.24-0.06c0.05-0.04,0.15-0.16,0.22-0.52l0.3-1.64l0.66,0.12l-0.3,1.64
		c-0.05,0.28-0.12,0.49-0.22,0.65c-0.1,0.17-0.26,0.3-0.46,0.38c-0.12,0.05-0.26,0.07-0.41,0.07c-0.1,0-0.2-0.01-0.31-0.03
		c-0.27-0.05-0.48-0.14-0.64-0.27c-0.17-0.13-0.27-0.31-0.32-0.51C50.99,18.31,50.99,18.08,51.05,17.78z M48.46,15.89l1.14,0.08
		c0.22,0.02,0.4,0.06,0.54,0.13c0.15,0.08,0.26,0.19,0.33,0.33c0.07,0.14,0.11,0.29,0.09,0.44c-0.01,0.14-0.06,0.27-0.14,0.39
		c-0.03,0.04-0.07,0.08-0.11,0.12c0.06,0.05,0.12,0.11,0.16,0.18c0.1,0.15,0.14,0.32,0.12,0.5c-0.01,0.15-0.05,0.28-0.12,0.4
		c-0.07,0.12-0.16,0.22-0.26,0.28c-0.1,0.06-0.22,0.11-0.35,0.13c-0.08,0.01-0.17,0.02-0.28,0.02c-0.06,0-0.12,0-0.19-0.01
		l-1.16-0.09L48.46,15.89z M44.73,16.02l0.63,0.82c0.05,0.07,0.1,0.13,0.15,0.2c0.04-0.08,0.08-0.16,0.13-0.24l0.49-0.88l0.8-0.06
		l-1.06,1.8l0.09,1.21l-0.67,0.05l-0.09-1.22l-1.27-1.63L44.73,16.02z M43.87,16.11l0.11,0.62l-0.85,0.15l0.4,2.27l-0.66,0.12
		l-0.4-2.27l-0.85,0.15l-0.11-0.62L43.87,16.11z M41.06,16.65l0.72,2.85l-0.65,0.16l-0.72-2.85L41.06,16.65z M38.72,17.32
		c0.22-0.08,0.4-0.11,0.55-0.11l0.03,0c0.17,0.01,0.32,0.07,0.45,0.18c0.13,0.11,0.22,0.25,0.28,0.41c0.07,0.22,0.06,0.42-0.03,0.62
		c-0.05,0.1-0.12,0.2-0.22,0.28c0.11,0.06,0.23,0.13,0.34,0.22l0.89,0.71l-0.78,0.26l-0.57-0.46c-0.14-0.11-0.25-0.2-0.34-0.25
		c-0.1-0.06-0.15-0.08-0.17-0.09c-0.03-0.01-0.06-0.01-0.09-0.01c-0.01,0-0.02,0-0.03,0c-0.01,0-0.05,0.01-0.15,0.04l-0.23,0.08
		l0.37,1.1l-0.63,0.22l-0.94-2.78L38.72,17.32z M34.88,19.33c0.12-0.36,0.37-0.64,0.74-0.82c0.2-0.1,0.41-0.14,0.62-0.14
		c0.04,0,0.09,0,0.13,0.01c0.25,0.02,0.49,0.12,0.69,0.28c0.2,0.16,0.36,0.37,0.48,0.63c0.12,0.26,0.18,0.53,0.18,0.79
		c-0.01,0.27-0.09,0.51-0.24,0.71c-0.15,0.2-0.34,0.36-0.57,0.47c-0.2,0.1-0.41,0.14-0.62,0.14c-0.05,0-0.1,0-0.14-0.01
		c-0.26-0.03-0.49-0.12-0.69-0.29c-0.2-0.16-0.35-0.35-0.46-0.58C34.81,20.09,34.77,19.69,34.88,19.33z M32.32,20.42l1.84,0.83
		l-0.89-1.42l0.56-0.35l1.56,2.49l-0.51,0.32l-1.84-0.83l0.89,1.42l-0.56,0.35l-1.56-2.49L32.32,20.42z M31.27,21.15l1.75,2.36
		l-0.54,0.4l-1.75-2.36L31.27,21.15z M28.65,23.29l1.72,0.99l-0.77-1.83l0.56-0.49l1.95,2.19l-0.49,0.44l-0.92-1.04l0.56,1.36
		l-0.41,0.36l-1.29-0.73l0.93,1.05l-0.49,0.44l-1.95-2.19L28.65,23.29z M38.92,69.1l-0.21,0.56l-1.94-0.74l0.95-2.5l1.89,0.72
		l-0.21,0.56l-1.3-0.49l-0.14,0.37l1.21,0.46l-0.21,0.56l-1.21-0.46l-0.17,0.44L38.92,69.1z M41.22,70.38l-0.55-0.15l-0.56-1.68
		l-0.39,1.42l-0.6-0.17l0.71-2.58l0.55,0.15l0.56,1.68l0.39-1.42l0.6,0.17L41.22,70.38z M42.97,70.71l-0.63-0.11l0.36-2.04
		l-0.76-0.14l0.11-0.59l2.15,0.38L44.1,68.8l-0.77-0.14L42.97,70.71z M46.27,68.99l-1.38-0.12l-0.03,0.39l1.29,0.11l-0.05,0.6
		l-1.29-0.11l-0.04,0.47l1.44,0.13l-0.05,0.6l-2.07-0.18l0.23-2.66l2.02,0.18L46.27,68.99z M48.36,71.06l-0.37-0.56
		c-0.09-0.13-0.16-0.24-0.22-0.31c-0.06-0.08-0.1-0.11-0.12-0.12c-0.03-0.02-0.06-0.03-0.09-0.04c0,0-0.03,0-0.1,0l-0.23,0
		l0.02,1.04l-0.64,0.01l-0.04-2.67l1.25-0.02c0.21,0,0.37,0.02,0.49,0.07c0.14,0.05,0.26,0.15,0.35,0.28
		c0.08,0.13,0.13,0.28,0.13,0.44c0,0.21-0.06,0.39-0.2,0.54c-0.07,0.07-0.15,0.13-0.25,0.18c0.08,0.08,0.15,0.17,0.22,0.27
		l0.58,0.88L48.36,71.06z M51.05,69.64c-0.14,0.19-0.4,0.3-0.78,0.34l-0.44,0.04l0.1,0.95l-0.63,0.06l-0.27-2.66l1.04-0.11
		c0.11-0.01,0.21-0.02,0.29-0.02c0.04,0,0.07,0,0.1,0c0.14,0.01,0.26,0.04,0.37,0.1c0.11,0.06,0.2,0.15,0.27,0.26
		c0.07,0.11,0.11,0.24,0.13,0.38C51.25,69.24,51.19,69.45,51.05,69.64z M53.55,70.42l-0.46-0.48c-0.11-0.12-0.2-0.2-0.27-0.26
		c-0.08-0.07-0.12-0.09-0.14-0.1c-0.03-0.01-0.07-0.02-0.1-0.02c-0.01,0-0.04,0-0.13,0.02l-0.19,0.04l0.2,1.02l-0.62,0.12
		l-0.52-2.62l1.18-0.23c0.15-0.03,0.28-0.04,0.38-0.04c0.06,0,0.11,0,0.16,0.01c0.15,0.03,0.28,0.1,0.39,0.22
		c0.1,0.11,0.17,0.25,0.2,0.41c0.04,0.2,0.01,0.39-0.1,0.56c-0.05,0.08-0.12,0.16-0.21,0.22c0.09,0.06,0.18,0.14,0.26,0.23
		l0.73,0.76L53.55,70.42z M54.49,70.18l-0.71-2.58l0.61-0.17l0.71,2.58L54.49,70.18z M57.33,68.87c-0.04,0.16-0.12,0.3-0.25,0.42
		c-0.12,0.12-0.28,0.21-0.46,0.27c-0.19,0.07-0.37,0.1-0.52,0.1c-0.03,0-0.05,0-0.08,0c-0.19-0.01-0.36-0.08-0.5-0.19
		c-0.14-0.11-0.25-0.25-0.31-0.43l-0.05-0.14l0.55-0.25l0.07,0.14c0.04,0.08,0.09,0.14,0.14,0.18c0.05,0.04,0.11,0.06,0.2,0.06
		c0.02,0,0.03,0,0.05,0c0.08,0,0.16-0.02,0.25-0.05c0.09-0.03,0.17-0.07,0.23-0.12c0.05-0.04,0.08-0.08,0.09-0.13
		c0.01-0.04,0.01-0.08,0-0.11c-0.01-0.04-0.03-0.06-0.06-0.08c-0.02-0.01-0.06-0.03-0.16-0.04l-0.02,0c-0.05,0-0.15,0.01-0.39,0.03
		c-0.14,0.01-0.25,0.02-0.35,0.02c-0.07,0-0.12,0-0.17-0.01c-0.15-0.02-0.28-0.08-0.39-0.16c-0.1-0.08-0.18-0.19-0.23-0.32
		c-0.05-0.14-0.06-0.29-0.02-0.44c0.04-0.15,0.12-0.29,0.25-0.4c0.12-0.11,0.27-0.19,0.44-0.25c0.16-0.06,0.31-0.08,0.46-0.08
		c0.02,0,0.05,0,0.07,0c0.18,0.01,0.33,0.07,0.46,0.17c0.13,0.1,0.22,0.23,0.28,0.38l0.06,0.15l-0.56,0.24l-0.07-0.14
		c-0.05-0.1-0.1-0.16-0.17-0.18c-0.03-0.01-0.06-0.02-0.1-0.02c-0.06,0-0.14,0.01-0.22,0.04c-0.19,0.06-0.25,0.13-0.27,0.17
		c-0.04,0.07-0.03,0.11-0.02,0.14c0.01,0.04,0.03,0.06,0.06,0.07c0,0,0.03,0.01,0.13,0.01c0.08,0,0.17-0.01,0.29-0.02
		c0.2-0.02,0.36-0.03,0.47-0.03c0.04,0,0.07,0,0.1,0c0.18,0.02,0.33,0.07,0.45,0.16c0.12,0.09,0.21,0.21,0.26,0.36
		C57.36,68.56,57.37,68.71,57.33,68.87z M58,69.02l-1.11-2.43l1.84-0.84l0.25,0.55l-1.26,0.58l0.16,0.36l1.18-0.54l0.25,0.55
		l-1.18,0.54l0.2,0.43l1.31-0.6l0.25,0.55L58,69.02z M76.14,38.74h-7.46c0.04,0.19,0.08,0.38,0.12,0.57h5.81v5.95h-5.46
		c-0.03,0.33-0.06,0.66-0.1,0.99h7.06v6.25H67.3c-3.4,7.54-10.99,12.79-19.8,12.79c-8.82,0-16.42-5.26-19.82-12.82h-0.95l-1.81-6.36
		v6.36h-6.06V32.55h8.93l0.33,1.21c3.58-7.06,10.91-11.91,19.38-11.91c7.94,0,14.89,4.26,18.67,10.63h9.96V38.74z"/>
	<path class="st1" d="M49.61,17.07c0.07,0,0.1-0.01,0.12-0.01c0.06-0.01,0.09-0.03,0.12-0.06c0.03-0.03,0.04-0.07,0.04-0.13
		c0-0.06,0-0.1-0.03-0.15c-0.02-0.04-0.04-0.06-0.08-0.07c-0.03-0.01-0.12-0.04-0.35-0.05l-0.36-0.03l-0.03,0.46l0.4,0.03
		C49.51,17.07,49.56,17.07,49.61,17.07z"/>
	<path class="st1" d="M52.76,68.46c-0.04,0-0.09,0.01-0.15,0.02l-0.57,0.11l0.09,0.44l0.5-0.1c0.15-0.03,0.23-0.06,0.27-0.09
		c0.04-0.03,0.07-0.06,0.09-0.1c0.02-0.04,0.02-0.08,0.01-0.13c-0.01-0.06-0.04-0.11-0.09-0.14C52.86,68.46,52.82,68.46,52.76,68.46
		z"/>
	<path class="st1" d="M39.03,18.43c0.16-0.06,0.25-0.11,0.29-0.14c0.05-0.04,0.07-0.08,0.09-0.13c0.01-0.05,0.01-0.1-0.01-0.15
		c-0.02-0.07-0.07-0.12-0.13-0.15c-0.03-0.01-0.06-0.02-0.1-0.02c-0.06,0-0.14,0.02-0.23,0.04l-0.63,0.21l0.17,0.51L39.03,18.43z"/>
</g>
</svg>
