<svg width="95" height="87" viewBox="0 0 95 87" fill="none" xmlns="http://www.w3.org/2000/svg">
<path d="M47.7199 76.75C28.8199 76.75 13.4399 61.37 13.4399 42.47C13.4399 23.57 28.8199 8.19 47.7199 8.19C66.6199 8.19 81.9999 23.56 81.9999 42.47C81.9999 61.37 66.6199 76.75 47.7199 76.75ZM47.7199 9.51001C29.5499 9.51001 14.7599 24.29 14.7599 42.47C14.7599 60.65 29.5399 75.43 47.7199 75.43C65.8899 75.43 80.6799 60.65 80.6799 42.47C80.6799 24.29 65.8899 9.51001 47.7199 9.51001Z" fill="white"/>
<path d="M36.0399 36.09C36.0399 34.28 37.5099 32.81 39.3199 32.81C41.1299 32.81 42.5999 34.28 42.5999 36.09C42.5999 36.14 42.5899 36.18 42.5899 36.23C43.3199 35.43 43.7799 34.38 43.7799 33.21C43.7799 30.75 41.7799 28.75 39.3199 28.75C36.8599 28.75 34.8599 30.75 34.8599 33.21C34.8599 34.38 35.3199 35.43 36.0499 36.23C36.0499 36.18 36.0399 36.14 36.0399 36.09Z" fill="white"/>
<path d="M53.7298 36.09C53.7298 34.28 55.1998 32.81 57.0098 32.81C58.8198 32.81 60.2898 34.28 60.2898 36.09C60.2898 36.14 60.2798 36.18 60.2798 36.23C61.0098 35.43 61.4698 34.38 61.4698 33.21C61.4698 30.75 59.4698 28.75 57.0098 28.75C54.5498 28.75 52.5498 30.75 52.5498 33.21C52.5498 34.38 53.0098 35.43 53.7398 36.23C53.7398 36.18 53.7298 36.14 53.7298 36.09Z" fill="white"/>
<path d="M36.2199 84.27C34.3899 84.27 32.8999 82.78 32.8999 80.95C32.8999 79.12 34.3899 77.63 36.2199 77.63C38.0499 77.63 39.5399 79.12 39.5399 80.95C39.5399 82.78 38.0499 84.27 36.2199 84.27ZM36.2199 78.96C35.1199 78.96 34.2299 79.85 34.2299 80.95C34.2299 82.05 35.1199 82.94 36.2199 82.94C37.3199 82.94 38.2099 82.05 38.2099 80.95C38.2099 79.86 37.3199 78.96 36.2199 78.96Z" fill="white"/>
<path d="M4.80988 41.36C2.48988 41.36 0.609863 39.47 0.609863 37.16C0.609863 34.85 2.49988 32.96 4.80988 32.96C7.11988 32.96 9.00989 34.85 9.00989 37.16C9.00989 39.47 7.12988 41.36 4.80988 41.36ZM4.80988 34.28C3.21988 34.28 1.92987 35.57 1.92987 37.16C1.92987 38.75 3.21988 40.04 4.80988 40.04C6.39988 40.04 7.68988 38.75 7.68988 37.16C7.68988 35.57 6.39988 34.28 4.80988 34.28Z" fill="white"/>
<path d="M28.2299 5.09001H27.8099C27.4399 5.09001 27.1499 4.78997 27.1499 4.42997C27.1499 4.05997 27.4499 3.77 27.8099 3.77H28.2299C28.9599 3.77 29.6799 3.53001 30.2699 3.09001L30.5499 2.87998C32.0899 1.71998 34.1599 1.61996 35.8099 2.60996C36.8899 3.24996 38.2199 3.25996 39.2999 2.60996L41.6399 1.21C41.9599 1.02 42.3599 1.11998 42.5499 1.43998C42.7399 1.74998 42.6399 2.15995 42.3199 2.34995L39.9799 3.74998C38.4799 4.64998 36.6199 4.64998 35.1299 3.74998C33.9399 3.03998 32.4599 3.10998 31.3499 3.93998L31.0699 4.15C30.2499 4.75 29.2499 5.09001 28.2299 5.09001Z" fill="white"/>
<path d="M6.57974 17.3401C6.43974 17.3401 6.30975 17.29 6.20975 17.18L2.22977 13.2C2.01977 12.99 2.01977 12.66 2.22977 12.45C2.43977 12.24 2.76977 12.24 2.97977 12.45L6.95975 16.43C7.16975 16.64 7.16975 16.97 6.95975 17.18C6.84975 17.29 6.71974 17.3401 6.57974 17.3401Z" fill="white"/>
<path d="M2.59976 17.3401C2.45976 17.3401 2.32977 17.29 2.22977 17.18C2.01977 16.97 2.01977 16.64 2.22977 16.43L6.20975 12.45C6.41975 12.24 6.74975 12.24 6.95975 12.45C7.16975 12.66 7.16975 12.99 6.95975 13.2L2.97977 17.18C2.86977 17.29 2.73976 17.3401 2.59976 17.3401Z" fill="white"/>
<path d="M85.3198 5.96996C85.1498 5.96996 84.9798 5.91002 84.8498 5.78002L80.8698 1.79998C80.6098 1.53998 80.6098 1.11998 80.8698 0.859978C81.1298 0.599978 81.5498 0.599978 81.8098 0.859978L85.7898 4.84002C86.0498 5.10002 86.0498 5.52002 85.7898 5.78002C85.6598 5.91002 85.4898 5.96996 85.3198 5.96996Z" fill="white"/>
<path d="M81.3398 5.96996C81.1698 5.96996 80.9998 5.91002 80.8698 5.78002C80.6098 5.52002 80.6098 5.10002 80.8698 4.84002L84.8498 0.859978C85.1098 0.599978 85.5298 0.599978 85.7898 0.859978C86.0498 1.11998 86.0498 1.53998 85.7898 1.79998L81.8098 5.78002C81.6798 5.91002 81.5098 5.96996 81.3398 5.96996Z" fill="white"/>
<path d="M67.6301 82.06H57.0101C56.6401 82.06 56.3501 81.76 56.3501 81.4C56.3501 81.04 56.6501 80.74 57.0101 80.74H67.6301C68.0001 80.74 68.2901 81.04 68.2901 81.4C68.2901 81.76 67.9901 82.06 67.6301 82.06Z" fill="white"/>
<path d="M56.1296 86.35H48.1696C47.8796 86.35 47.6396 86.11 47.6396 85.82C47.6396 85.53 47.8796 85.29 48.1696 85.29H56.1296C56.4196 85.29 56.6596 85.53 56.6596 85.82C56.6596 86.11 56.4196 86.35 56.1296 86.35Z" fill="white"/>
<path d="M91.51 54.94C90 54.94 88.77 53.71 88.77 52.2V46.01C88.77 44.5 90 43.27 91.51 43.27C93.02 43.27 94.25 44.5 94.25 46.01V52.2C94.26 53.71 93.03 54.94 91.51 54.94ZM91.51 44.33C90.58 44.33 89.83 45.08 89.83 46.01V52.2C89.83 53.13 90.58 53.88 91.51 53.88C92.44 53.88 93.19 53.13 93.19 52.2V46.01C93.19 45.08 92.44 44.33 91.51 44.33Z" fill="white"/>
<path d="M32.2998 47.33C34.0798 54.44 40.4998 59.72 48.1598 59.72C55.8198 59.72 62.2398 54.45 64.0198 47.33H32.2998Z" fill="white"/>
</svg>
