<svg width="89" height="82" viewBox="0 0 89 82" fill="none" xmlns="http://www.w3.org/2000/svg">
<path d="M69.1396 59.95L88.4896 67.5499L80.6596 73.42L76.7496 81.2499L69.1396 59.95Z" fill="white"/>
<path d="M80.6781 69.7186L77.9346 72.4622L85.3662 79.8938L88.1097 77.1502L80.6781 69.7186Z" fill="white"/>
<path d="M16.8296 0.589966H8.86963V8.54996H16.8296V0.589966Z" fill="white"/>
<path d="M16.8296 63.4099H8.86963V71.3699H16.8296V63.4099Z" fill="white"/>
<path d="M79.6397 0.589966H71.6797V8.54996H79.6397V0.589966Z" fill="white"/>
<path d="M79.6397 63.4099H71.6797V71.3699H79.6397V63.4099Z" fill="white"/>
<path d="M75.2196 67.61H73.0096C72.6396 67.61 72.3496 67.31 72.3496 66.95C72.3496 66.59 72.6496 66.29 73.0096 66.29H74.5596V64.74C74.5596 64.37 74.8596 64.08 75.2196 64.08C75.5896 64.08 75.8796 64.38 75.8796 64.74V66.95C75.8796 67.31 75.5896 67.61 75.2196 67.61Z" fill="white"/>
<path d="M68.5795 67.61H64.1595C63.7895 67.61 63.4995 67.31 63.4995 66.95C63.4995 66.59 63.7995 66.29 64.1595 66.29H68.5795C68.9495 66.29 69.2395 66.59 69.2395 66.95C69.2395 67.31 68.9495 67.61 68.5795 67.61ZM59.7395 67.61H55.3195C54.9496 67.61 54.6595 67.31 54.6595 66.95C54.6595 66.59 54.9595 66.29 55.3195 66.29H59.7395C60.1095 66.29 60.3995 66.59 60.3995 66.95C60.3995 67.31 60.0995 67.61 59.7395 67.61ZM50.8896 67.61H46.4695C46.0995 67.61 45.8095 67.31 45.8095 66.95C45.8095 66.59 46.1095 66.29 46.4695 66.29H50.8896C51.2596 66.29 51.5495 66.59 51.5495 66.95C51.5495 67.31 51.2596 67.61 50.8896 67.61ZM42.0396 67.61H37.6195C37.2495 67.61 36.9595 67.31 36.9595 66.95C36.9595 66.59 37.2595 66.29 37.6195 66.29H42.0396C42.4096 66.29 42.6996 66.59 42.6996 66.95C42.6996 67.31 42.4096 67.61 42.0396 67.61ZM33.1996 67.61H28.7795C28.4095 67.61 28.1195 67.31 28.1195 66.95C28.1195 66.59 28.4195 66.29 28.7795 66.29H33.1996C33.5696 66.29 33.8595 66.59 33.8595 66.95C33.8595 67.31 33.5596 67.61 33.1996 67.61ZM24.3495 67.61H19.9295C19.5595 67.61 19.2695 67.31 19.2695 66.95C19.2695 66.59 19.5695 66.29 19.9295 66.29H24.3495C24.7195 66.29 25.0096 66.59 25.0096 66.95C25.0096 67.31 24.7095 67.61 24.3495 67.61Z" fill="white"/>
<path d="M15.4994 67.61H13.2894C12.9194 67.61 12.6294 67.31 12.6294 66.95V64.74C12.6294 64.37 12.9294 64.08 13.2894 64.08C13.6594 64.08 13.9494 64.38 13.9494 64.74V66.29H15.4994C15.8694 66.29 16.1594 66.59 16.1594 66.95C16.1594 67.31 15.8694 67.61 15.4994 67.61Z" fill="white"/>
<path d="M13.2894 60.97C12.9194 60.97 12.6294 60.67 12.6294 60.31V55.89C12.6294 55.52 12.9294 55.23 13.2894 55.23C13.6594 55.23 13.9494 55.53 13.9494 55.89V60.31C13.9494 60.68 13.6594 60.97 13.2894 60.97ZM13.2894 52.13C12.9194 52.13 12.6294 51.83 12.6294 51.47V47.05C12.6294 46.68 12.9294 46.39 13.2894 46.39C13.6594 46.39 13.9494 46.69 13.9494 47.05V51.47C13.9494 51.83 13.6594 52.13 13.2894 52.13ZM13.2894 43.28C12.9194 43.28 12.6294 42.98 12.6294 42.62V38.2C12.6294 37.83 12.9294 37.54 13.2894 37.54C13.6594 37.54 13.9494 37.84 13.9494 38.2V42.62C13.9494 42.98 13.6594 43.28 13.2894 43.28ZM13.2894 34.43C12.9194 34.43 12.6294 34.13 12.6294 33.77V29.35C12.6294 28.98 12.9294 28.69 13.2894 28.69C13.6594 28.69 13.9494 28.99 13.9494 29.35V33.77C13.9494 34.13 13.6594 34.43 13.2894 34.43ZM13.2894 25.58C12.9194 25.58 12.6294 25.28 12.6294 24.92V20.5C12.6294 20.13 12.9294 19.84 13.2894 19.84C13.6594 19.84 13.9494 20.14 13.9494 20.5V24.92C13.9494 25.29 13.6594 25.58 13.2894 25.58ZM13.2894 16.74C12.9194 16.74 12.6294 16.44 12.6294 16.08V11.66C12.6294 11.29 12.9294 11 13.2894 11C13.6594 11 13.9494 11.3 13.9494 11.66V16.08C13.9494 16.44 13.6594 16.74 13.2894 16.74Z" fill="white"/>
<path d="M13.2894 7.89001C12.9194 7.89001 12.6294 7.59001 12.6294 7.23001V5.01999C12.6294 4.64999 12.9294 4.35999 13.2894 4.35999H15.4994C15.8694 4.35999 16.1594 4.65999 16.1594 5.01999C16.1594 5.37999 15.8594 5.67999 15.4994 5.67999H13.9494V7.23001C13.9494 7.59001 13.6594 7.89001 13.2894 7.89001Z" fill="white"/>
<path d="M68.5795 5.67999H64.1595C63.7895 5.67999 63.4995 5.37999 63.4995 5.01999C63.4995 4.65999 63.7995 4.35999 64.1595 4.35999H68.5795C68.9495 4.35999 69.2395 4.65999 69.2395 5.01999C69.2395 5.37999 68.9495 5.67999 68.5795 5.67999ZM59.7395 5.67999H55.3195C54.9496 5.67999 54.6595 5.37999 54.6595 5.01999C54.6595 4.65999 54.9595 4.35999 55.3195 4.35999H59.7395C60.1095 4.35999 60.3995 4.65999 60.3995 5.01999C60.3995 5.37999 60.0995 5.67999 59.7395 5.67999ZM50.8896 5.67999H46.4695C46.0995 5.67999 45.8095 5.37999 45.8095 5.01999C45.8095 4.65999 46.1095 4.35999 46.4695 4.35999H50.8896C51.2596 4.35999 51.5495 4.65999 51.5495 5.01999C51.5495 5.37999 51.2596 5.67999 50.8896 5.67999ZM42.0396 5.67999H37.6195C37.2495 5.67999 36.9595 5.37999 36.9595 5.01999C36.9595 4.65999 37.2595 4.35999 37.6195 4.35999H42.0396C42.4096 4.35999 42.6996 4.65999 42.6996 5.01999C42.6996 5.37999 42.4096 5.67999 42.0396 5.67999ZM33.1996 5.67999H28.7795C28.4095 5.67999 28.1195 5.37999 28.1195 5.01999C28.1195 4.65999 28.4195 4.35999 28.7795 4.35999H33.1996C33.5696 4.35999 33.8595 4.65999 33.8595 5.01999C33.8595 5.37999 33.5596 5.67999 33.1996 5.67999ZM24.3495 5.67999H19.9295C19.5595 5.67999 19.2695 5.37999 19.2695 5.01999C19.2695 4.65999 19.5695 4.35999 19.9295 4.35999H24.3495C24.7195 4.35999 25.0096 4.65999 25.0096 5.01999C25.0096 5.37999 24.7095 5.67999 24.3495 5.67999Z" fill="white"/>
<path d="M75.2196 7.89001C74.8496 7.89001 74.5596 7.59001 74.5596 7.23001V5.67999H73.0096C72.6396 5.67999 72.3496 5.37999 72.3496 5.01999C72.3496 4.65999 72.6496 4.35999 73.0096 4.35999H75.2196C75.5896 4.35999 75.8796 4.65999 75.8796 5.01999V7.23001C75.8796 7.59001 75.5896 7.89001 75.2196 7.89001Z" fill="white"/>
<path d="M75.2196 60.97C74.8496 60.97 74.5596 60.67 74.5596 60.31V55.89C74.5596 55.52 74.8596 55.23 75.2196 55.23C75.5896 55.23 75.8796 55.53 75.8796 55.89V60.31C75.8796 60.68 75.5896 60.97 75.2196 60.97ZM75.2196 52.13C74.8496 52.13 74.5596 51.83 74.5596 51.47V47.05C74.5596 46.68 74.8596 46.39 75.2196 46.39C75.5896 46.39 75.8796 46.69 75.8796 47.05V51.47C75.8796 51.83 75.5896 52.13 75.2196 52.13ZM75.2196 43.28C74.8496 43.28 74.5596 42.98 74.5596 42.62V38.2C74.5596 37.83 74.8596 37.54 75.2196 37.54C75.5896 37.54 75.8796 37.84 75.8796 38.2V42.62C75.8796 42.98 75.5896 43.28 75.2196 43.28ZM75.2196 34.43C74.8496 34.43 74.5596 34.13 74.5596 33.77V29.35C74.5596 28.98 74.8596 28.69 75.2196 28.69C75.5896 28.69 75.8796 28.99 75.8796 29.35V33.77C75.8796 34.13 75.5896 34.43 75.2196 34.43ZM75.2196 25.58C74.8496 25.58 74.5596 25.28 74.5596 24.92V20.5C74.5596 20.13 74.8596 19.84 75.2196 19.84C75.5896 19.84 75.8796 20.14 75.8796 20.5V24.92C75.8796 25.29 75.5896 25.58 75.2196 25.58ZM75.2196 16.74C74.8496 16.74 74.5596 16.44 74.5596 16.08V11.66C74.5596 11.29 74.8596 11 75.2196 11C75.5896 11 75.8796 11.3 75.8796 11.66V16.08C75.8796 16.44 75.5896 16.74 75.2196 16.74Z" fill="white"/>
<path d="M44.2499 35.1C50.0999 35.1 54.8699 30.34 54.8699 24.48C54.8699 18.63 50.1099 13.86 44.2499 13.86C38.3999 13.86 33.6299 18.62 33.6299 24.48C33.6399 30.33 38.3999 35.1 44.2499 35.1ZM44.2499 15.63C49.1299 15.63 53.0999 19.6 53.0999 24.48C53.0999 29.36 49.1299 33.33 44.2499 33.33C39.3699 33.33 35.3999 29.36 35.3999 24.48C35.4099 19.6 39.3799 15.63 44.2499 15.63Z" fill="white"/>
<path d="M50.4797 38.1899H37.1297C30.5697 38.1899 25.2197 43.5299 25.2197 50.0999V56.7699C25.2197 57.2599 25.6197 57.6499 26.0997 57.6499C26.5897 57.6499 26.9797 57.2499 26.9797 56.7699V50.0999C26.9797 44.5099 31.5297 39.9599 37.1197 39.9599H50.4697C56.0597 39.9599 60.6097 44.5099 60.6097 50.0999V56.7699C60.6097 57.2599 61.0097 57.6499 61.4897 57.6499C61.9797 57.6499 62.3697 57.2499 62.3697 56.7699V50.0999C62.3897 43.5299 57.0497 38.1899 50.4797 38.1899Z" fill="white"/>
<path d="M82.5497 31.12C82.5497 27.03 79.2797 23.71 75.2197 23.6V24.85C78.5897 24.95 81.2997 27.72 81.2997 31.11C81.2997 34.5 78.5897 37.27 75.2197 37.37V38.62C79.2797 38.54 82.5497 35.21 82.5497 31.12ZM79.4397 40.85H75.2197V42.1H79.4397C83.3997 42.1 86.6297 45.32 86.6297 49.29V54.02C86.6297 54.37 86.9097 54.65 87.2597 54.65C87.6097 54.65 87.8897 54.37 87.8897 54.02V49.29C87.8897 44.64 84.0997 40.85 79.4397 40.85Z" fill="white"/>
<path d="M12.6895 38.64V37.39C9.31954 37.29 6.60953 34.52 6.60953 31.13C6.60953 27.74 9.31954 24.97 12.6895 24.87V23.62C8.62955 23.73 5.35953 27.05 5.35953 31.14C5.34953 35.21 8.62955 38.54 12.6895 38.64ZM0.0195312 49.29V54.02C0.0195312 54.37 0.299536 54.65 0.649536 54.65C0.999536 54.65 1.27954 54.37 1.27954 54.02V49.29C1.27954 45.33 4.49954 42.1 8.46954 42.1H12.6895V40.85H8.46954C3.80954 40.85 0.0195312 44.64 0.0195312 49.29Z" fill="white"/>
</svg>
