<svg width="166" height="26" viewBox="0 0 166 26" fill="none" xmlns="http://www.w3.org/2000/svg">
<g opacity="0.2">
<path d="M140.288 12.1592V13.7207V15.8322V17.3684V19.6822V21.408V21.4144H150.022V19.6822H142.432V17.3684H146.884V15.8322H142.432V13.7207H150.022V12.1592H142.432H140.288Z" fill="black"/>
<path d="M96.4844 12.1592V13.7207V15.8322V17.3684V19.6822V21.408V21.4144H106.219V19.6822H98.6288V17.3684H103.08V15.8322H98.6288V13.7207H106.219V12.1592H98.6288H96.4844Z" fill="black"/>
<path d="M82.2593 12.1592H80.2578V21.408H82.2593V15.0799L89.5177 21.073V18.4873L82.2593 12.4942V12.1592Z" fill="black"/>
<path d="M16.9845 12.1592H14.8271V21.408H16.9845V12.1592Z" fill="black"/>
<path d="M72.772 18.3735L70.2572 12.1592H68.6586L66.1179 18.4557L63.7265 12.1592H61.4521L65.0781 21.4144H66.6247L69.276 15.0609L71.9207 21.4144H73.5518L77.1778 12.1592H75.1309L72.772 18.3735Z" fill="black"/>
<path d="M91.5258 12.1592H89.5244V21.408H91.5258V12.1592Z" fill="black"/>
<path d="M161.128 12.1592H156.39H156.033H154.246V21.408H156.39V21.4017H161.128C163.727 21.4017 165.839 19.3471 165.839 16.8184V16.7299C165.839 14.2075 163.727 12.1592 161.128 12.1592ZM160.543 19.6695H156.39V13.8914H160.543C162.18 13.8914 163.512 15.181 163.512 16.7804C163.512 18.3735 162.187 19.6695 160.543 19.6695Z" fill="black"/>
<path d="M134.024 15.8258H127.292V13.7144H133.601L133.588 14.8586L135.531 14.435V13.6385C135.531 12.823 134.849 12.1592 134.011 12.1592H126.889C126.05 12.1592 125.368 12.823 125.368 13.6385V16.0408C125.368 16.9258 126.102 17.6465 127.019 17.6465H133.679V19.6758H126.876V18.6264L124.952 18.9931V19.9287C124.952 20.7442 125.634 21.408 126.473 21.408H134.024C134.862 21.408 135.544 20.7442 135.544 19.9287V17.3052C135.544 16.4896 134.862 15.8258 134.024 15.8258Z" fill="black"/>
<path d="M119.026 17.9689C119.956 17.9689 120.709 17.2356 120.709 16.3316V13.7902C120.709 12.8862 119.956 12.1528 119.026 12.1528H110.403V21.408H112.619V17.9626H114.764L118.591 21.408H121.697L117.408 17.9689H119.026ZM112.619 16.3505V16.3442V13.689H117.889C118.234 13.689 118.526 13.9609 118.526 14.3086V15.731C118.526 16.0661 118.247 16.3505 117.889 16.3505H112.619Z" fill="black"/>
<path d="M8.78424 16.654C9.71348 16.654 10.4673 15.9206 10.4673 15.0166V13.7902C10.4673 12.8862 9.71348 12.1528 8.78424 12.1528H0.161133V21.408H2.37702H8.79073C9.71998 21.408 10.4738 20.6747 10.4738 19.7706V18.2913C10.4673 17.3936 9.71348 16.6603 8.78424 16.654ZM8.28388 19.1764C8.28388 19.5115 8.00445 19.7959 7.64705 19.7959H2.37052V17.4063C2.37702 17.4 7.64705 17.4 7.64705 17.4C7.99146 17.4 8.28388 17.6718 8.28388 18.0195V19.1764ZM8.28388 15.2252C8.28388 15.5603 8.00445 15.8448 7.64705 15.8448H2.37702V13.689H7.64705C7.99146 13.689 8.28388 13.9609 8.28388 14.3086V15.2252Z" fill="black"/>
<path d="M21.3457 13.8092H27.3371L20.6699 20.4218V21.4144H30.8786V19.6569H24.153L30.8786 13.1264V12.1592H21.3457V13.8092Z" fill="black"/>
<path d="M46.5192 9.0994C46.2658 9.06147 46.0124 9.04883 45.7525 9.04883C42.5553 9.04883 39.9561 11.5712 39.9561 14.6879C39.9561 17.8046 42.5488 20.327 45.7525 20.327C48.9496 20.327 51.5489 17.8046 51.5489 14.6879C51.5489 14.4477 51.5294 14.2138 51.5034 13.9862L46.9936 16.1672C46.7142 16.3 46.4023 16.3695 46.0839 16.3695C45.3886 16.3695 44.7257 16.0092 44.3553 15.4339C43.9849 14.8523 43.946 14.1316 44.2644 13.512L46.5192 9.0994Z" fill="black"/>
<path d="M54.5382 12.5068C54.7202 13.2023 54.8241 13.9356 54.8241 14.6816C54.8241 19.5557 50.7628 23.5069 45.7527 23.5069C40.7426 23.5069 36.6812 19.5557 36.6812 14.6816C36.6812 9.80742 40.7426 5.85627 45.7592 5.85627C46.5455 5.85627 47.3057 5.96374 48.0335 6.14708L49.1707 3.92179C48.092 3.59305 46.9483 3.42236 45.7592 3.42236C39.3714 3.42236 34.1924 8.46087 34.1924 14.6752C34.1924 20.8896 39.3714 25.9281 45.7592 25.9281C52.1469 25.9281 57.3259 20.8896 57.3259 14.6752C57.3324 13.5436 57.1505 12.4436 56.8256 11.4005L54.5382 12.5068Z" fill="black"/>
<path d="M53.0559 0.0592041L49.2024 7.58219L45.7909 14.2454C45.6544 14.5236 45.9533 14.8207 46.2393 14.6816L53.0949 11.369L60.8277 7.62012L54.336 6.34311L53.0559 0.0592041Z" fill="black"/>
</g>
</svg>
