<svg width="54" height="36" viewBox="0 0 54 36" fill="none" xmlns="http://www.w3.org/2000/svg">
<g opacity="0.2">
<path d="M46.197 17.6902C46.1512 17.6902 46.0989 17.6902 46.0532 17.6902C43.1435 17.6902 41.0774 18.8598 39.7697 20.6931C39.7435 20.731 39.7174 20.7689 39.6912 20.8069C38.5535 19.0494 36.6508 17.7345 33.5974 17.6965C33.5516 17.6965 33.4993 17.6965 33.4535 17.6965C30.5439 17.6965 28.4778 18.8661 27.1635 20.6994C27.9351 21.8626 28.3601 23.2218 28.5628 24.5304C28.3601 23.2218 27.9351 21.8626 27.1635 20.6994C26.0193 18.9672 24.1297 17.6712 21.1024 17.6333C18.5851 17.6017 16.6889 18.4362 15.3616 19.8143L15.3028 20.3644L15.3616 19.8143C15.1655 20.0166 14.9824 20.2316 14.8058 20.4592C14.9758 20.2316 15.1655 20.0166 15.3616 19.8143L15.5512 18.0442H2.16046L1.16007 27.4827L5.64546 28.0138C5.95931 27.5586 6.37777 26.8948 7.84892 26.8948C9.71238 26.8948 10.6016 28.0391 10.6016 29.6069C10.6016 30.9787 9.84315 32.319 7.92738 32.319C6.84854 32.319 5.98546 31.8385 5.67161 30.846C5.54084 30.4414 5.54084 30.0115 5.54084 29.5753L0.192383 30.1189C0.480075 31.4339 0.741613 32.654 1.89892 33.8235C3.94546 35.8276 6.94007 35.8276 7.90777 35.8276C9.43123 35.8276 12.2428 35.7011 14.2043 33.7477C14.3939 33.5644 14.5705 33.3684 14.7339 33.1534C16.107 34.9046 18.1601 35.8529 20.5989 35.8529C23.6132 35.8529 25.6401 34.5948 26.9151 32.7868C27.1308 32.4833 27.327 32.1546 27.497 31.8259C27.3205 32.1609 27.1308 32.4833 26.9151 32.7931C28.2816 34.8224 30.4655 35.9224 33.0939 35.9224C36.167 35.9224 38.2201 34.6075 39.4885 32.7425C39.5016 32.7552 39.5082 32.7741 39.5212 32.7868C40.8878 34.8161 43.0716 35.9161 45.7001 35.9161C51.7089 35.9161 53.8078 30.8902 53.8078 26.5534C53.8078 22.9689 52.3105 17.7661 46.197 17.6902ZM13.1385 24.3092C12.0401 23.7023 10.6997 23.3672 9.222 23.3672C8.24777 23.3672 7.07084 23.5442 6.27969 23.8477C6.09661 23.9235 5.91354 24.0247 5.73046 24.1258L5.992 21.6666H14.0408C13.6289 22.4695 13.3282 23.3609 13.1385 24.3092C13.5243 24.5241 13.8774 24.7644 14.1912 25.0425C13.8774 24.7707 13.5243 24.5241 13.1385 24.3092ZM16.1005 29.2276C16.1005 28.6839 16.0285 28.1655 15.8912 27.685C16.0285 28.1655 16.1005 28.6839 16.1005 29.2276ZM20.782 32.2747C19.5985 32.2747 18.8139 31.4339 18.4739 30.0937C18.2647 29.177 18.2385 28.2161 18.2385 27.2804C18.2385 25.5546 18.3432 23.2977 19.0232 22.1787C19.5201 21.3885 20.2851 21.085 20.8866 21.085C22.1485 21.085 22.8024 22.0712 23.0639 23.1649C23.3255 24.2586 23.3778 26.1615 23.3778 26.9454C23.3843 29.4362 22.992 32.2747 20.782 32.2747ZM25.3785 27.0592C25.3785 25.5483 25.6008 24.1006 26.0651 22.8172C25.6008 24.1006 25.3785 25.5483 25.3785 27.0592C25.3785 29.019 25.7708 30.6879 26.4705 32.0345C25.7708 30.6879 25.3785 29.019 25.3785 27.0592ZM33.277 32.3379C32.0935 32.3379 31.3089 31.5034 30.9689 30.1569C30.7597 29.2402 30.7335 28.2793 30.7335 27.3437C30.7335 25.6178 30.8382 23.3609 31.5182 22.2419C32.0151 21.458 32.7801 21.1483 33.3816 21.1483C34.6435 21.1483 35.2974 22.1345 35.5589 23.2281C35.8205 24.3218 35.8728 26.2247 35.8728 27.0086C35.8793 29.4931 35.4805 32.3379 33.277 32.3379ZM38.0435 25.7189C38.0043 26.1552 37.9847 26.604 37.9847 27.0592C37.9782 26.604 38.0043 26.1552 38.0435 25.7189ZM38.0893 25.2891C38.0697 25.4218 38.0566 25.5546 38.0435 25.6937C38.0435 25.7 38.0435 25.7063 38.0435 25.7126C38.0566 25.5672 38.0697 25.4281 38.0893 25.2891ZM38.0958 25.2195C38.1024 25.1753 38.1089 25.1247 38.1155 25.0804C38.1089 25.1247 38.1024 25.1626 38.0958 25.2069C38.1024 25.2069 38.0958 25.2132 38.0958 25.2195ZM38.2201 24.4483C38.2005 24.5431 38.1874 24.6442 38.1678 24.7391C38.1678 24.7454 38.1678 24.7454 38.1678 24.7517C38.1874 24.6506 38.2005 24.5494 38.2201 24.4483ZM38.3116 24.0373C38.292 24.1132 38.2789 24.1891 38.2593 24.2712C38.2789 24.1954 38.292 24.1132 38.3116 24.0373ZM38.5274 23.2408C38.5078 23.3103 38.4882 23.3799 38.462 23.4557V23.4621C38.4816 23.3862 38.5012 23.3167 38.5274 23.2408ZM38.6516 22.8615C38.6255 22.9247 38.6058 22.9942 38.5862 23.0575C38.6058 22.9942 38.632 22.9247 38.6516 22.8615C38.6516 22.8552 38.6516 22.8552 38.6516 22.8615ZM45.8832 32.3379C44.7062 32.3379 43.9151 31.4971 43.5751 30.1569C43.3658 29.2402 43.3397 28.2793 43.3397 27.3437C43.3397 25.6178 43.4443 23.3609 44.1243 22.2419C44.6212 21.458 45.3862 21.1483 45.9878 21.1483C47.2497 21.1483 47.9035 22.1345 48.1651 23.2281C48.4266 24.3218 48.4789 26.2247 48.4789 27.0086C48.4789 29.4931 48.0866 32.3379 45.8832 32.3379Z" fill="black"/>
<path d="M15.5575 11.6086H13.5698V3.54191H15.5575V0.0838623H4.95215V3.54191H6.94638V11.6086H4.95215V14.8201H15.5575V11.6086Z" fill="black"/>
<path d="M24.4113 11.6085H22.829V8.82061C22.829 7.64474 23.7443 6.77233 24.967 6.77233C25.9282 6.77233 26.6736 7.2275 26.6736 8.239V11.6022H25.137V14.8137H33.2382V11.6528C34.3497 14.0235 37.2005 15.0982 40.0905 15.0982C42.4509 15.0982 45.7201 14.5482 46.459 11.0459L46.4982 10.6729H42.1828H42.039C42.039 11.8551 41.1497 12.4177 40.1363 12.4177C38.214 12.4177 38.0636 10.8689 38.0636 9.37693V9.34532C38.0636 7.85337 38.214 6.30451 40.1363 6.30451C41.6532 6.30451 41.9082 7.5752 41.9605 8.77635L46.4393 8.30222C45.8966 3.25739 40.0905 3.61773 40.0905 3.61773C36.3963 3.61773 32.7609 5.3752 32.7543 9.35796C32.7543 10.2051 32.9178 10.9511 33.2186 11.6022H31.8978V7.35394C31.8978 4.64187 29.8447 3.65566 27.3209 3.65566C25.5228 3.65566 24.1563 4.1298 22.9597 5.45107C22.8747 5.55222 22.7701 5.67865 22.659 5.76084V3.54187H16.1074V6.75969H17.6047V11.6085H16.1074V14.82H24.4047V11.6085H24.4113Z" fill="black"/>
<path d="M48.0146 14.8769C49.0608 14.8769 49.9042 14.0614 49.9042 13.0499C49.9042 12.0447 49.0608 11.2229 48.0146 11.2229C46.975 11.2229 46.125 12.0447 46.125 13.0499C46.125 14.0551 46.9685 14.8769 48.0146 14.8769Z" fill="black"/>
</g>
</svg>
