<svg width="111" height="44" viewBox="0 0 111 44" fill="none" xmlns="http://www.w3.org/2000/svg">
<g opacity="0.2">
<path d="M46.3682 11.2907C47.7199 11.2907 48.7482 10.943 49.4338 10.2413C50.1258 9.5459 50.4686 8.55338 50.4686 7.27004V4.65912C50.4686 3.38843 50.1258 2.40855 49.4273 1.71315C48.7353 1.01774 47.7005 0.670044 46.323 0.670044C44.9777 0.670044 43.9559 1.01774 43.238 1.71947C42.5266 2.42119 42.1709 3.40108 42.1709 4.67177V7.30797C42.1709 8.57866 42.5266 9.55855 43.238 10.2476C43.9494 10.9494 44.9907 11.2907 46.3682 11.2907ZM44.9131 4.62751C44.9131 4.07751 45.023 3.65395 45.2429 3.36315C45.4628 3.06602 45.8314 2.92062 46.3359 2.92062C46.8339 2.92062 47.1896 3.06602 47.4224 3.36315C47.6488 3.66027 47.7587 4.08384 47.7587 4.62751V7.33958C47.7587 7.8959 47.6423 8.32579 47.4224 8.61659C47.1961 8.91372 46.8339 9.06544 46.3359 9.06544C45.8314 9.06544 45.4628 8.91372 45.2429 8.60395C45.023 8.29418 44.9131 7.87694 44.9131 7.33958V4.62751Z" fill="black"/>
<path d="M58.1329 11.2907C59.4846 11.2907 60.5129 10.943 61.1984 10.2413C61.884 9.5459 62.2332 8.55338 62.2332 7.27004V4.65912C62.2332 3.38843 61.884 2.40855 61.192 1.71315C60.4999 1.01774 59.4652 0.670044 58.0876 0.670044C56.7424 0.670044 55.7141 1.01774 55.0027 1.71947C54.2913 2.42119 53.9355 3.40108 53.9355 4.67177V7.30797C53.9355 8.57866 54.2913 9.55855 55.0027 10.2476C55.7076 10.9494 56.7553 11.2907 58.1329 11.2907ZM56.6712 4.62751C56.6712 4.07751 56.7812 3.65395 57.0011 3.36315C57.221 3.06602 57.5896 2.92062 58.0941 2.92062C58.5921 2.92062 58.9478 3.06602 59.1806 3.36315C59.407 3.66027 59.5169 4.08384 59.5169 4.62751V7.33958C59.5169 7.8959 59.4005 8.32579 59.1806 8.61659C58.9542 8.91372 58.5921 9.06544 58.0941 9.06544C57.5832 9.06544 57.221 8.91372 57.0011 8.60395C56.7812 8.29418 56.6712 7.87694 56.6712 7.33958V4.62751Z" fill="black"/>
<path d="M67.5753 11.2907C68.927 11.2907 69.9553 10.943 70.6408 10.2413C71.3264 9.5459 71.6691 8.55338 71.6691 7.27004V4.65912C71.6691 3.38843 71.3264 2.40855 70.6279 1.71315C69.9359 1.01774 68.9011 0.670044 67.5235 0.670044C66.1783 0.670044 65.15 1.01774 64.4386 1.71947C63.7272 2.42119 63.3779 3.40108 63.3779 4.67177V7.30797C63.3779 8.57866 63.7336 9.55855 64.4386 10.2476C65.1565 10.9494 66.2042 11.2907 67.5753 11.2907ZM66.1201 4.62751C66.1201 4.07751 66.2301 3.65395 66.4499 3.36315C66.6763 3.06602 67.0385 2.92062 67.5429 2.92062C68.0409 2.92062 68.3966 3.06602 68.6295 3.36315C68.8558 3.66027 68.9658 4.08384 68.9658 4.62751V7.33958C68.9658 7.8959 68.8493 8.32579 68.6295 8.61659C68.4031 8.91372 68.0409 9.06544 67.5429 9.06544C67.032 9.06544 66.6698 8.91372 66.4499 8.60395C66.2301 8.29418 66.1201 7.87694 66.1201 7.33958V4.62751Z" fill="black"/>
<path d="M77.0366 11.2907C78.3883 11.2907 79.4166 10.943 80.1021 10.2413C80.7877 9.5459 81.1369 8.55338 81.1369 7.27004V4.65912C81.1369 3.38843 80.7877 2.40855 80.0957 1.71315C79.4037 1.01774 78.3689 0.670044 76.9913 0.670044C75.6461 0.670044 74.6242 1.01774 73.9128 1.71947C73.2014 2.42119 72.8457 3.40108 72.8457 4.67177V7.30797C72.8457 8.57866 73.2014 9.55855 73.9128 10.2476C74.6178 10.9494 75.659 11.2907 77.0366 11.2907ZM75.5814 4.62751C75.5814 4.07751 75.6914 3.65395 75.9113 3.36315C76.1311 3.06602 76.4998 2.92062 77.0042 2.92062C77.5022 2.92062 77.8579 3.06602 78.0908 3.36315C78.3171 3.66027 78.4271 4.08384 78.4271 4.62751V7.33958C78.4271 7.8959 78.3107 8.32579 78.0908 8.61659C77.8644 8.91372 77.5022 9.06544 77.0042 9.06544C76.4933 9.06544 76.1311 8.91372 75.9113 8.60395C75.6914 8.29418 75.5814 7.87694 75.5814 7.33958V4.62751Z" fill="black"/>
<path d="M38.2193 11.2528H40.8257V0.948242H39.0407L36.0527 1.82066L36.5895 3.89422L38.2193 3.49594V11.2528Z" fill="black"/>
<path d="M53.4888 9.86841H51.2446L50.4814 12.6374H52.066L53.4888 9.86841Z" fill="black"/>
<path d="M40.8514 20.2552C40.528 20.2552 40.2693 20.173 40.1335 20.0593C39.9265 19.8886 39.823 19.6863 39.8101 19.4524H37.249C37.2878 21.2288 39.1052 21.8736 40.7543 21.8736C42.4617 21.8736 44.3243 21.3552 44.3243 19.4524C44.3243 18.3271 43.5418 17.8087 42.6493 17.5305C41.7568 17.2397 40.7414 17.1828 40.2887 16.9995C40.1399 16.9299 39.9783 16.8414 39.9783 16.6391C39.9783 16.1903 40.4116 16.1081 40.7932 16.1081C41.013 16.1081 41.2265 16.1776 41.3882 16.3104C41.5628 16.4305 41.6857 16.6012 41.6986 16.8288H44.1368C44.0656 15.0713 42.2418 14.6604 40.722 14.6604C39.3121 14.6604 37.4042 15.1093 37.4042 16.8414C37.4042 18.0173 38.2256 18.6558 40.2758 18.9972C41.524 19.2058 41.7503 19.3259 41.7503 19.7305C41.7568 20.1225 41.2006 20.2552 40.8514 20.2552Z" fill="black"/>
<path d="M53.7924 21.7028H56.4764V16.9931C56.4764 15.8804 55.8685 14.6666 54.0641 14.6666C52.3179 14.6666 51.7746 15.6592 51.6647 15.735C51.3413 15.0459 50.5264 14.6666 49.7697 14.6666C48.7931 14.6666 48.0106 14.9574 47.4673 15.754H47.4415V14.8373H44.8545V21.7092H47.5385V17.9919C47.5385 17.2775 47.7648 16.7592 48.4439 16.7592C49.2588 16.7592 49.3235 17.3408 49.3235 17.9919V21.7092H52.0074V17.9919C52.0074 17.2775 52.2403 16.7592 52.9129 16.7592C53.7278 16.7592 53.7924 17.3408 53.7924 17.9919V21.7028Z" fill="black"/>
<path d="M64.2244 20.1604V17.3408C64.2244 16.0132 64.2503 14.6541 60.8937 14.6541C59.2251 14.6541 57.3625 14.9701 57.2784 16.9046H59.7684C59.7813 16.6138 59.943 16.2029 60.7708 16.2029C61.2042 16.2029 61.6504 16.3736 61.6504 16.8351C61.6504 17.2713 61.2818 17.3788 60.9196 17.442C59.555 17.6949 56.9551 17.6127 56.9551 19.7811C56.9551 21.2224 58.0804 21.8609 59.4321 21.8609C60.2987 21.8609 61.1265 21.6776 61.6957 21.0454H61.7215C61.7086 21.2288 61.7474 21.5069 61.8121 21.6903H64.5478C64.2503 21.2604 64.2244 20.6788 64.2244 20.1604ZM61.6504 19.25C61.6051 19.9644 61.133 20.3247 60.5251 20.3247C60.04 20.3247 59.6843 20.0023 59.6843 19.6862C59.6843 19.2247 59.9948 19.0793 60.5898 18.9466C60.9584 18.8644 61.3206 18.7759 61.6504 18.6178V19.25Z" fill="black"/>
<path d="M67.8402 12.5804H65.1562V21.6965H67.8402V12.5804Z" fill="black"/>
<path d="M71.5589 12.5804H68.875V21.6965H71.5589V12.5804Z" fill="black"/>
<path d="M45.4561 29.0045C45.4561 27.3924 44.8158 25.4327 42.4617 25.4327C41.6662 25.4327 40.9419 25.774 40.5409 26.3557H40.515V23.024H37.8311V32.4752H40.418V31.7229H40.4439C40.7802 32.1591 41.1876 32.6522 42.5005 32.6522C44.4925 32.6459 45.4561 30.7241 45.4561 29.0045ZM41.5951 30.743C40.6314 30.743 40.418 29.858 40.418 29.0361C40.418 28.2269 40.6379 27.3419 41.5951 27.3419C42.5587 27.3419 42.7721 28.2269 42.7721 29.0361C42.7721 29.8516 42.5587 30.743 41.5951 30.743Z" fill="black"/>
<path d="M50.5594 29.2321C50.5594 30.3321 49.9514 30.5534 49.4922 30.5534C48.7032 30.5534 48.6127 29.9971 48.6127 29.2068V25.6034H45.9287V30.3132C45.9287 31.8873 47.0799 32.6459 48.3411 32.6459C49.4082 32.6459 50.1261 32.2856 50.6305 31.6028H50.6564V32.4752H53.2433V25.6034H50.5594V29.2321Z" fill="black"/>
<path d="M59.1733 28.3092C58.2808 28.0184 57.2655 27.9615 56.8192 27.7781C56.6705 27.7086 56.5088 27.6201 56.5088 27.4178C56.5088 26.9689 56.9421 26.8868 57.3237 26.8868C57.5436 26.8868 57.757 26.9563 57.9187 27.0891C58.0933 27.2092 58.2162 27.3799 58.2291 27.6011H60.6673C60.5962 25.8437 58.7724 25.4327 57.2525 25.4327C55.8426 25.4327 53.9348 25.8816 53.9348 27.6201C53.9348 28.796 54.7626 29.4345 56.8063 29.7758C58.0545 29.9845 58.2808 30.1046 58.2808 30.5029C58.2808 30.9011 57.7246 31.0339 57.3689 31.0339C57.0456 31.0339 56.7869 30.9517 56.6511 30.8379C56.4506 30.6672 56.3406 30.4712 56.3277 30.231H53.7666C53.8054 32.0075 55.6227 32.6523 57.2719 32.6523C58.9793 32.6523 60.8484 32.1339 60.8484 30.231C60.8484 29.0994 60.0658 28.581 59.1733 28.3092Z" fill="black"/>
<path d="M64.1273 25.6034H61.4434V32.4752H64.1273V25.6034Z" fill="black"/>
<path d="M64.1273 23.024H61.4434V24.8637H64.1273V23.024Z" fill="black"/>
<path d="M70.0126 25.4327C68.9455 25.4327 68.2276 25.7931 67.7232 26.4758H67.6973V25.6034H65.1104V32.4753H67.7943V28.8465C67.7943 27.7465 68.4022 27.5253 68.8679 27.5253C69.6505 27.5253 69.7475 28.0816 69.7475 28.8718V32.4689H72.425V27.7592C72.425 26.185 71.2738 25.4327 70.0126 25.4327Z" fill="black"/>
<path d="M76.7582 25.4327C74.5334 25.4327 73.0459 27.0575 73.0459 29.0615C73.0459 31.35 74.7404 32.646 76.9845 32.646C78.582 32.646 80.063 31.9569 80.5998 30.4776H78.0969C77.8835 30.8063 77.4049 30.9644 76.9716 30.9644C76.1308 30.9644 75.6717 30.408 75.607 29.6304H80.7485C80.755 26.9563 79.5456 25.4327 76.7582 25.4327ZM75.6199 28.2649C75.7428 27.5253 76.202 27.1143 77.0039 27.1143C77.6959 27.1143 78.181 27.6264 78.181 28.2649H75.6199Z" fill="black"/>
<path d="M88.0242 30.2247C88.0242 29.0994 87.2416 28.581 86.3427 28.3092C85.4502 28.0184 84.4348 27.9615 83.9885 27.7781C83.8398 27.7086 83.6781 27.6201 83.6781 27.4178C83.6781 26.9689 84.1114 26.8868 84.493 26.8868C84.7064 26.8868 84.9263 26.9563 85.088 27.0891C85.2626 27.2092 85.3855 27.3799 85.3984 27.6011H87.8366C87.772 25.8437 85.9417 25.4327 84.4219 25.4327C83.012 25.4327 81.1041 25.8816 81.1041 27.6201C81.1041 28.796 81.9319 29.4345 83.9756 29.7758C85.2238 29.9845 85.4502 30.1046 85.4502 30.5029C85.4502 30.9011 84.894 31.0339 84.5447 31.0339C84.2214 31.0339 83.9627 30.9517 83.8269 30.8379C83.6264 30.6672 83.5164 30.4712 83.5035 30.231H80.9424C80.9812 32.0075 82.7985 32.6523 84.4477 32.6523C86.1551 32.646 88.0242 32.1339 88.0242 30.2247Z" fill="black"/>
<path d="M93.5737 28.3092C92.6812 28.0184 91.6658 27.9615 91.2196 27.7781C91.0708 27.7086 90.9027 27.6201 90.9027 27.4178C90.9027 26.9689 91.336 26.8868 91.7176 26.8868C91.9375 26.8868 92.1509 26.9563 92.3126 27.0891C92.4872 27.2092 92.6101 27.3799 92.623 27.6011H95.0612C94.9901 25.8437 93.1663 25.4327 91.6464 25.4327C90.2366 25.4327 88.3287 25.8816 88.3287 27.6201C88.3287 28.796 89.1565 29.4345 91.1937 29.7758C92.4419 29.9845 92.6748 30.1046 92.6748 30.5029C92.6748 30.9011 92.1186 31.0339 91.7693 31.0339C91.446 31.0339 91.1873 30.9517 91.0514 30.8379C90.851 30.6672 90.7345 30.4712 90.7281 30.231H88.167C88.2058 32.0075 90.0231 32.6523 91.6723 32.6523C93.3797 32.6523 95.2488 32.1339 95.2488 30.231C95.2552 29.0994 94.4662 28.581 93.5737 28.3092Z" fill="black"/>
<path d="M99.2074 25.4327C96.9891 25.4327 95.4951 27.0575 95.4951 29.0615C95.4951 31.35 97.1896 32.646 99.4402 32.646C101.038 32.646 102.512 31.9569 103.056 30.4776H100.546C100.333 30.8063 99.8542 30.9644 99.4208 30.9644C98.5865 30.9644 98.1209 30.408 98.0562 29.6304H103.198C103.204 26.9563 101.995 25.4327 99.2074 25.4327ZM98.0692 28.2649C98.192 27.5253 98.6512 27.1143 99.4532 27.1143C100.145 27.1143 100.63 27.6264 100.63 28.2649H98.0692Z" fill="black"/>
<path d="M108.791 28.3092C107.899 28.0184 106.884 27.9615 106.431 27.7781C106.282 27.7086 106.12 27.6201 106.12 27.4178C106.12 26.9689 106.554 26.8868 106.929 26.8868C107.149 26.8868 107.362 26.9563 107.524 27.0891C107.699 27.2092 107.821 27.3799 107.841 27.6011H110.279C110.208 25.8437 108.384 25.4327 106.864 25.4327C105.454 25.4327 103.546 25.8816 103.546 27.6201C103.546 28.796 104.374 29.4345 106.418 29.7758C107.666 29.9845 107.893 30.1046 107.893 30.5029C107.893 30.9011 107.336 31.0339 106.987 31.0339C106.664 31.0339 106.405 30.9517 106.269 30.8379C106.069 30.6672 105.959 30.4712 105.946 30.231H103.385C103.43 32.0075 105.241 32.6523 106.89 32.6523C108.597 32.6523 110.467 32.1339 110.467 30.231C110.473 29.0994 109.684 28.581 108.791 28.3092Z" fill="black"/>
<path d="M24.6577 5.87928C24.6383 6.12584 24.6318 6.36607 24.6577 6.73905C24.69 7.10572 24.9164 7.17526 25.1233 7.0994C25.3691 6.99825 25.5114 6.58733 25.5114 6.13848V4.83618L25.1427 5.06377C24.7547 5.27239 24.69 5.55055 24.6577 5.87928Z" fill="black"/>
<path d="M0.527344 32.6839H33.3558V0.594238H0.527344V32.6839ZM10.1185 13.3644H9.01903V12.8902C8.88968 13.2126 8.53397 13.4402 8.04245 13.4402C7.60914 13.4402 6.92359 13.2632 6.92359 12.2707C6.92359 11.354 7.57033 11.1644 8.24294 10.8799C8.89615 10.608 8.96729 10.5701 8.96729 10.3362V9.62815C8.96729 9.33734 8.7862 9.2109 8.46283 9.22987C8.33349 9.23619 8.10066 9.29941 8.08772 9.45746C8.06832 9.6724 8.28821 9.65975 8.32055 9.95688C8.36582 10.3741 7.99718 10.5448 7.66088 10.5322C7.43452 10.5132 7.14995 10.3931 7.11762 10.0264C7.07881 9.47642 7.75142 9.00228 8.70859 9.00228C9.12897 9.00228 9.40707 9.07815 9.6205 9.19826C9.9374 9.38159 10.112 9.62182 10.112 10.1845V13.3644H10.1185ZM19.9425 13.3644H18.6166V11.7712H18.843C19.0241 12.6057 19.2763 13.1178 19.9295 13.1368C20.3434 13.1494 20.6409 12.9155 20.6409 12.4983C20.6409 12.1 20.3564 11.8281 19.7226 11.4741C19.0306 11.0822 18.5843 10.8356 18.5843 10.2414C18.5778 9.48906 19.1599 8.99596 20.0653 8.99596C20.3499 8.99596 21.223 8.99596 21.223 8.99596V10.1592H20.9966C20.8802 9.66608 20.6603 9.26148 20.1235 9.22355C19.7937 9.19826 19.5027 9.37527 19.4703 9.65343C19.438 9.93791 19.535 10.2224 20.1429 10.5385C20.8932 10.9304 21.4882 11.1264 21.4882 11.9799C21.4817 12.9029 20.6733 13.3644 19.9425 13.3644ZM27.7292 3.10401H28.7963V3.58447C28.9321 3.30631 29.2684 3.05975 29.7147 3.02815C30.452 2.97757 30.937 3.40113 30.937 4.30516V7.39021H29.7858V4.14711C29.7858 3.78677 29.7729 3.47067 29.5077 3.40113C29.3978 3.37585 29.2296 3.39481 29.1197 3.48964C28.9257 3.65401 28.8739 3.84999 28.8739 4.14711V7.38389H27.7227V3.10401H27.7292ZM25 3.25573C24.8706 3.26205 24.6378 3.33159 24.6313 3.48332C24.6119 3.69194 24.8318 3.68562 24.8641 3.98274C24.9029 4.39998 24.5343 4.57067 24.2045 4.55171C23.9781 4.53907 23.6871 4.41263 23.6612 4.05228C23.6224 3.50228 24.295 3.02815 25.2457 3.02815C25.6661 3.02815 25.9442 3.10401 26.1641 3.23044C26.481 3.40746 26.6621 3.65401 26.6621 4.21033V7.39021H25.5626V6.91608C25.4333 7.23849 25.0776 7.46608 24.586 7.46608C24.1527 7.46608 23.4672 7.28906 23.4672 6.29021C23.4672 5.37987 24.1139 5.18389 24.7865 4.90573C25.4462 4.63389 25.5109 4.59596 25.5109 4.36205V3.65401C25.5109 3.36952 25.3363 3.23677 25 3.25573ZM17.5236 3.10401H18.5649V3.58447C18.7007 3.30631 19.0111 3.05975 19.4639 3.02815C19.9877 2.99654 20.3564 3.18619 20.5439 3.61608C20.6603 3.37585 20.9772 3.06608 21.4817 3.02815C22.219 2.97757 22.6846 3.40113 22.6846 4.30516V7.39021H21.5464V4.15343C21.5464 3.79309 21.5334 3.477 21.2683 3.40746C21.1519 3.37585 21.029 3.38849 20.9061 3.49596C20.7056 3.65401 20.6603 3.84998 20.6603 4.14079V7.38389H19.5285V4.14711C19.5285 3.78677 19.5156 3.47067 19.2504 3.40113C19.134 3.36953 19.0111 3.38217 18.8818 3.48964C18.6878 3.64769 18.636 3.84999 18.636 4.14711V7.38389H17.5172V3.10401H17.5236ZM14.5745 3.04711C14.9173 3.04711 15.1436 3.20516 15.2601 3.43274V2.21895H16.4048V7.39021H15.3118V6.96033C15.2019 7.18791 14.9432 7.43447 14.471 7.43447C13.3134 7.43447 13.0094 5.99309 13.0288 5.14596C13.0676 3.88792 13.7273 3.04711 14.5745 3.04711ZM11.108 2.21895H12.2657V7.39021H11.108V2.21895ZM12.7119 8.99596C13.2034 8.98964 13.5268 9.14136 13.7402 9.44481C13.9148 9.69136 13.9407 10.1023 13.7014 10.3552C13.4169 10.6523 12.7572 10.6017 12.6602 10.2034C12.5761 9.85573 12.7572 9.71033 12.9189 9.53964C13.0288 9.43217 13.0094 9.21723 12.699 9.22355C12.3174 9.23619 12.1622 9.63447 12.1104 10.1402C12.0199 10.9557 12.0264 11.6701 12.1298 12.3149C12.1945 12.7575 12.3303 13.181 12.9189 13.1873C13.7014 13.1937 14.4969 12.1822 14.4969 11.1075V8.18677H15.6481V9.41953C15.8163 9.19826 16.1073 9.02125 16.4889 8.99596C17.2261 8.94539 17.7047 9.36895 17.7047 10.273V13.358H16.56V10.1339C16.56 9.77355 16.5471 9.45745 16.2884 9.38791C16.172 9.36263 16.0103 9.37527 15.8939 9.4701C15.6998 9.63447 15.6481 9.83044 15.6481 10.1339V13.358H14.4969V12.2011C14.3158 12.7638 13.6109 13.4402 12.8089 13.4402C12.0975 13.4402 10.8816 13.1178 10.8816 11.2655C10.8881 9.53964 12.0846 9.00228 12.7119 8.99596ZM7.56386 3.40746C7.84843 3.17987 8.16533 3.02815 8.56631 3.02815C8.97376 3.02815 9.28419 3.17987 9.57522 3.40746C10.0538 3.79309 10.3384 4.47585 10.3384 5.25343C10.3384 6.03102 10.0538 6.7201 9.57522 7.09941C9.28419 7.327 8.97376 7.47872 8.56631 7.47872C8.15887 7.47872 7.84843 7.327 7.56386 7.09941C7.08528 6.7201 6.80071 6.03734 6.80071 5.25343C6.80718 4.46953 7.08528 3.78677 7.56386 3.40746ZM4.47892 2.13044H6.01169V3.93217H5.78533C5.60425 3.06608 5.17093 2.37067 4.563 2.34539C4.14908 2.32642 3.90332 2.54136 3.71577 2.87642C3.50881 3.23677 3.4118 4.04596 3.4118 5.00688C3.4118 5.89194 3.4506 6.55573 3.56702 7.02355C3.62522 7.25746 3.77397 7.61148 4.21376 7.6178C4.46598 7.62412 4.60827 7.53562 4.72468 7.4155C4.90577 7.23849 4.93164 6.84654 4.93164 6.58102V5.74654C4.93164 5.43045 4.80876 5.22815 4.65354 5.13332C4.52419 5.05746 4.3237 5.05113 4.20729 5.04481V4.81723H6.07637V9.36895H5.85001C5.76593 9.00861 5.68185 8.76205 5.52017 8.47125C5.35849 8.17412 5.06745 7.88332 4.56946 7.85171C4.03267 7.8201 3.61229 8.15516 3.61229 8.6293C3.61229 9.2678 4.00033 9.40688 4.75055 9.81148C5.44256 10.1781 6.36093 10.4942 6.36093 11.6322C6.36093 12.6942 5.37789 13.3707 4.2849 13.3707H2.53224V11.1707H2.76506C3.06256 12.8333 3.80631 13.1241 4.29783 13.1241C4.92517 13.1241 5.2356 12.7322 5.2162 12.1758C5.19033 11.4868 4.69881 11.2402 3.9874 10.8735C2.98495 10.3488 2.51283 10.0833 2.53224 9.19194C2.55164 8.44596 3.17251 7.95918 3.90332 7.77585C2.42229 7.60516 1.99544 6.32815 2.00838 4.96263C2.02131 3.60343 2.8556 2.13044 4.47892 2.13044Z" fill="black"/>
<path d="M8.57267 7.25741C8.78609 7.25741 8.90897 7.16258 8.98658 6.99821C9.14827 6.66948 9.14827 6.0373 9.14827 5.25339C9.14827 4.46948 9.14827 3.83097 8.98658 3.50224C8.90897 3.33787 8.78609 3.24304 8.57267 3.24304C8.35924 3.24304 8.23636 3.33787 8.15876 3.50224C7.99707 3.83097 7.99707 4.46948 7.99707 5.25339C7.99707 6.0373 7.99707 6.66948 8.15876 6.99821C8.23636 7.16258 8.35924 7.25741 8.57267 7.25741Z" fill="black"/>
<path d="M14.6907 7.16264C14.8524 7.16264 14.9365 7.0931 15.0464 6.96034C15.3245 6.61896 15.2922 5.77816 15.2922 5.15862C15.2922 4.53908 15.2728 3.79942 15.0335 3.46436C14.9624 3.35689 14.8783 3.29367 14.7101 3.29999C14.2833 3.31264 14.1992 4.27356 14.1992 5.12701C14.1992 5.62643 14.2122 6.09425 14.251 6.47356C14.3027 6.91609 14.4579 7.15632 14.6907 7.16264Z" fill="black"/>
<path d="M8.1196 11.8409C8.1002 12.0937 8.09373 12.3276 8.1196 12.7006C8.14547 13.0673 8.3783 13.1368 8.58525 13.061C8.83101 12.9661 8.9733 12.5552 8.9733 12.1001V10.8041L8.60466 11.0253C8.21661 11.2403 8.14547 11.5248 8.1196 11.8409Z" fill="black"/>
<path d="M4.20052 38.5127L2.04688 43.2857H2.70008L3.20454 42.1098H5.64921L6.1472 43.2857H6.82628L4.75024 38.5127H4.20052ZM3.43736 41.5851L4.45274 39.2397H4.46568L5.42932 41.5851H3.43736Z" fill="black"/>
<path d="M23.9135 38.5127H23.3379V43.2857H26.1512V42.761H23.9135V38.5127Z" fill="black"/>
<path d="M45.7342 41.3828C45.7342 42.1541 45.4432 42.8811 44.4731 42.8811C43.503 42.8811 43.2119 42.1541 43.2119 41.3828V38.5127H42.6299V41.465C42.6299 42.5018 43.1279 43.4058 44.4731 43.4058C45.8183 43.4058 46.3163 42.5018 46.3163 41.465V38.5127H45.7342V41.3828Z" fill="black"/>
<path d="M65.8998 42.2552H65.8869L64.2313 38.5127H63.3711V43.2857H63.9467V39.2776H63.9596L65.7123 43.2857H66.068L67.8207 39.2776H67.8336V43.2857H68.4092V38.5127H67.5684L65.8998 42.2552Z" fill="black"/>
<path d="M89.0657 42.4765H89.0463L86.2201 38.5127H85.4893V43.2857H86.0713V39.3219H86.0843L88.9105 43.2857H89.6413V38.5127H89.0657V42.4765Z" fill="black"/>
<path d="M107.304 38.5127H106.722V43.2857H107.304V38.5127Z" fill="black"/>
</g>
</svg>
