<svg width="105" height="22" viewBox="0 0 105 22" fill="none" xmlns="http://www.w3.org/2000/svg">
<g opacity="0.2">
<path d="M7.11661 5.03223H0.368922C0.244691 5.03223 0.192383 5.15234 0.192383 5.20292V7.12475C0.192383 7.24487 0.316614 7.29544 0.368922 7.29544H2.12777C2.252 7.29544 2.30431 7.41556 2.30431 7.46613V18.7759C2.30431 18.896 2.42854 18.9466 2.48084 18.9466H4.71046C4.83469 18.9466 4.887 18.8265 4.887 18.7759V7.52935C4.887 7.40924 5.01123 7.35866 5.06354 7.35866H7.12315C7.24738 7.35866 7.29969 7.23855 7.29969 7.18797V5.19659C7.28661 5.0828 7.16892 5.03223 7.11661 5.03223Z" fill="black"/>
<path d="M21.9003 12.1316C21.848 11.961 21.848 11.6765 21.9003 11.5058L24.1299 5.31671C24.1822 5.14602 24.0776 5.03223 23.9011 5.03223H21.7891C21.6126 5.03223 21.4426 5.15234 21.3707 5.31671L20.3768 8.77475C20.3245 8.94544 20.2526 8.94544 20.2003 8.77475L19.1345 5.31671C19.0822 5.14602 18.9057 5.03223 18.7161 5.03223H16.6238C16.4472 5.03223 16.3295 5.15234 16.3949 5.31671L18.6245 11.5058C18.6768 11.6765 18.6768 11.961 18.6245 12.1316L16.3426 18.6558C16.2903 18.8265 16.3949 18.9403 16.5714 18.9403H18.4349C18.6114 18.9403 18.8534 18.8202 18.9057 18.6558L20.1414 15.0334C20.1938 14.8627 20.318 14.8627 20.3703 15.0334L21.5407 18.6558C21.593 18.8265 21.7695 18.9403 21.9591 18.9403H24.0188C24.1953 18.9403 24.313 18.8202 24.2476 18.6558L21.9003 12.1316Z" fill="black"/>
<path d="M14.9761 16.7149H11.3996C11.3473 16.7149 11.2754 16.6643 11.2754 16.5948V13.0229C11.2754 12.9723 11.3277 12.9028 11.3996 12.9028H13.9823C14.0346 12.9028 14.1065 12.8522 14.1065 12.7827V10.7471C14.1065 10.6965 14.0542 10.6269 13.9823 10.6269H11.3996C11.3473 10.6269 11.2754 10.5764 11.2754 10.5068V7.44073C11.2754 7.39016 11.3277 7.32062 11.3996 7.32062H14.9238C14.9761 7.32062 15.0481 7.27005 15.0481 7.20051V5.09533C15.0481 5.04476 14.9958 4.97522 14.9238 4.97522H8.82345C8.77114 4.97522 8.69922 5.02579 8.69922 5.09533V18.7189C8.69922 18.7695 8.75153 18.839 8.82345 18.839H14.9958V18.9338C15.0481 18.9275 15.1004 18.8769 15.1004 18.82V16.8287C15.1004 16.7844 15.0481 16.7149 14.9761 16.7149Z" fill="black"/>
<path d="M30.2494 5.03223H27.4968C27.4444 5.03223 27.3725 5.0828 27.3202 5.15234L24.9141 18.7759C24.9141 18.8265 24.9664 18.896 25.0383 18.896H27.2156C27.2679 18.896 27.3398 18.8454 27.3921 18.7759L27.8629 16.3294C27.8629 16.2788 27.9152 16.2092 28.0394 16.2092H29.7852C29.8375 16.2092 29.9094 16.2598 29.9618 16.3294L30.3802 18.7759C30.3802 18.8265 30.4325 18.896 30.5568 18.896H32.8387C32.891 18.896 32.9629 18.8454 32.9629 18.7759L30.4325 5.15234C30.426 5.10177 30.3737 5.03223 30.2494 5.03223ZM29.4125 13.9018H28.3664C28.3141 13.9018 28.2421 13.8512 28.2421 13.7817L28.8894 10.1592C28.8894 10.1087 28.9418 10.1087 28.9418 10.1592L29.5368 13.7817C29.5368 13.8322 29.4844 13.9018 29.4125 13.9018Z" fill="black"/>
<path d="M39.3516 11.7775C38.1813 10.7471 37.6451 10.2413 36.9455 9.33098C36.2982 8.47121 36.5466 7.05511 37.5405 7.05511C38.482 7.05511 38.5343 8.01604 38.5343 8.01604V9.50167C38.5343 9.50167 38.5343 9.62178 38.5866 9.67236C38.6586 9.72293 38.7109 9.72293 38.7109 9.72293H40.8228C40.8228 9.72293 40.947 9.72293 40.9993 9.67236C40.9993 9.62178 40.9993 9.45109 40.9993 9.45109L40.947 7.52925C40.947 7.52925 40.6005 4.79822 37.5993 4.79822C34.8466 4.79822 34.0228 6.61891 34.0228 8.37006C34.0228 9.90627 34.9643 11.2022 36.0824 12.2327C38.1943 14.2241 38.3643 14.793 38.3643 14.793C38.5409 15.2482 39.0116 16.8982 37.4751 16.8982C36.5859 16.8982 36.357 16.1586 36.357 16.1586V14.2367C36.357 14.2367 36.357 14.1166 36.3047 14.066C36.2328 14.0155 36.1805 14.0155 36.1805 14.0155H34.1209C34.1209 14.0155 33.9966 14.0155 33.9443 14.066C33.9443 14.1166 33.9443 14.1862 33.9443 14.1988C33.9443 14.5339 33.9966 15.3304 33.9966 16.1902C33.9966 17.385 35.2324 19.0919 37.6909 19.0919C39.9205 19.0919 41.1628 17.2206 41.1628 15.8551C41.1693 14.7741 41.1693 13.4781 39.3516 11.7775Z" fill="black"/>
<path d="M100.342 11.7775C99.1712 10.7471 98.6351 10.2413 97.9355 9.33098C97.2882 8.47121 97.5366 7.05511 98.5305 7.05511C99.4197 7.05511 99.472 8.01604 99.472 8.01604V9.50167C99.472 9.50167 99.472 9.62178 99.5243 9.67236C99.5962 9.72293 99.6485 9.72293 99.6485 9.72293H101.76C101.76 9.72293 101.885 9.72293 101.937 9.67236C101.937 9.62178 101.937 9.45109 101.937 9.45109L101.885 7.52925C101.885 7.52925 101.538 4.79822 98.537 4.79822C95.7843 4.79822 94.9605 6.61891 94.9605 8.37006C94.9605 9.90627 95.902 11.2022 97.0201 12.2327C99.132 14.2241 99.302 14.793 99.302 14.793C99.4785 15.2482 99.9493 16.8982 98.4128 16.8982C97.5235 16.8982 97.2947 16.1586 97.2947 16.1586V14.2367C97.2947 14.2367 97.2947 14.1166 97.2424 14.066C97.1705 14.0155 97.1182 14.0155 97.1182 14.0155H95.0585C95.0585 14.0155 94.9343 14.0155 94.882 14.066C94.8297 14.1166 94.8297 14.1862 94.9343 14.1988C94.9343 14.5339 94.9866 15.3304 94.9866 16.1902C94.9866 17.385 96.2224 19.0919 98.6809 19.0919C100.91 19.0919 102.153 17.2206 102.153 15.8551C102.159 14.7741 102.159 13.4781 100.342 11.7775Z" fill="black"/>
<path d="M83.499 12.1316C83.4467 11.961 83.4467 11.6765 83.499 11.5058L85.7286 5.31671C85.7809 5.14602 85.6763 5.03223 85.4998 5.03223H83.4402C83.2636 5.03223 83.0936 5.15234 83.0217 5.31671L82.0279 8.77475C81.9755 8.94544 81.9036 8.94544 81.8513 8.77475L80.7855 5.31671C80.7332 5.14602 80.5567 5.03223 80.3671 5.03223H78.2029C78.0263 5.03223 77.9086 5.15234 77.974 5.31671L80.2036 11.5058C80.2559 11.6765 80.2559 11.961 80.2036 12.1316L77.9217 18.6558C77.8694 18.8265 77.974 18.9403 78.1505 18.9403H80.0336C80.2102 18.9403 80.4521 18.8202 80.5044 18.6558L81.7402 15.0334C81.7925 14.8627 81.9167 14.8627 81.969 15.0334L83.1394 18.6558C83.1917 18.8265 83.3682 18.9403 83.5578 18.9403H85.6175C85.794 18.9403 85.9117 18.8202 85.8463 18.6558L83.499 12.1316Z" fill="black"/>
<path d="M76.3853 16.7149H72.8088C72.7565 16.7149 72.6846 16.6643 72.6846 16.5948V13.0229C72.6846 12.9724 72.7369 12.9028 72.8088 12.9028H75.3915C75.4438 12.9028 75.5157 12.8522 75.5157 12.7827V10.7471C75.5157 10.6965 75.4634 10.627 75.3915 10.627H72.8088C72.7565 10.627 72.6846 10.5764 72.6846 10.5068V7.44075C72.6846 7.39018 72.7369 7.32064 72.8088 7.32064H76.333C76.3853 7.32064 76.4572 7.27006 76.4572 7.20052V5.15857C76.4572 5.10799 76.4049 5.03845 76.333 5.03845H70.2326C70.1803 5.03845 70.1084 5.08903 70.1084 5.15857V18.7821C70.1084 18.8327 70.1607 18.9022 70.2326 18.9022H76.3853V18.9339C76.4376 18.9339 76.5095 18.8833 76.5095 18.8137V16.8224C76.5095 16.7844 76.4572 16.7149 76.3853 16.7149Z" fill="black"/>
<path d="M93.5416 16.7149H89.965C89.9127 16.7149 89.8408 16.6643 89.8408 16.5948V13.0229C89.8408 12.9724 89.8931 12.9028 89.965 12.9028H92.5477C92.6 12.9028 92.672 12.8522 92.672 12.7827V10.7471C92.672 10.6965 92.6197 10.627 92.5477 10.627H89.965C89.9127 10.627 89.8408 10.5764 89.8408 10.5068V7.44075C89.8408 7.39018 89.8931 7.32064 89.965 7.32064H93.4893C93.5416 7.32064 93.6135 7.27006 93.6135 7.20052V5.15857C93.6135 5.10799 93.5612 5.03845 93.4893 5.03845H87.3889C87.3366 5.03845 87.2646 5.08903 87.2646 5.15857V18.7821C87.2646 18.8327 87.317 18.9022 87.3889 18.9022H93.5416V18.9339C93.5939 18.9339 93.6658 18.8833 93.6658 18.8137V16.8224C93.6658 16.7844 93.6135 16.7149 93.5416 16.7149Z" fill="black"/>
<path d="M55.6063 1.40967C50.0944 1.40967 45.6875 5.72748 45.6875 10.9999C45.6875 16.3292 50.1533 20.5901 55.6063 20.5901C61.0594 20.5901 65.5252 16.2723 65.5252 10.9999C65.5971 5.72116 61.1313 1.40967 55.6063 1.40967ZM60.484 9.17921L59.6667 11.2844C59.6667 11.335 59.6667 11.4551 59.6667 11.5056L60.484 13.5476C60.484 13.5982 60.5363 13.6677 60.6083 13.7183L60.6606 13.7689C60.7129 13.8194 60.7129 13.8194 60.6606 13.8194H59.719C59.6667 13.8194 59.5948 13.7689 59.5425 13.6993L59.0717 12.4539C59.0717 12.4033 59.0194 12.4033 59.0194 12.4539L58.5486 13.6993C58.5486 13.7499 58.4244 13.8194 58.3721 13.8194H57.6725C57.6202 13.8194 57.5483 13.7689 57.6202 13.6993L58.4375 11.493C58.4375 11.4424 58.4375 11.3223 58.4375 11.2717L57.6202 9.16656C57.6202 9.11599 57.6202 9.04645 57.6725 9.04645H58.4375C58.4898 9.04645 58.5617 9.09702 58.614 9.16656L59.0325 10.3614C59.0325 10.412 59.0848 10.412 59.0848 10.3614L59.5033 9.16656C59.5033 9.11599 59.5556 9.04645 59.6798 9.04645H60.4448C60.484 9.07806 60.5363 9.12863 60.484 9.17921ZM51.801 4.52633H59.5425C59.6667 4.52633 59.7713 4.64645 59.7713 4.7476L59.6471 6.04358C59.6471 6.16369 59.5229 6.26484 59.3529 6.26484H56.7702C56.646 6.26484 56.5413 6.38496 56.5413 6.48611V14.8815C56.5413 15.0016 56.5937 15.2166 56.6656 15.3367L56.8421 15.6717C56.8944 15.7919 56.8421 15.893 56.6656 15.893H54.436C54.3117 15.893 54.2071 15.7729 54.2594 15.6717L54.436 15.3367C54.4883 15.2166 54.5602 15.0016 54.5602 14.8815V6.58093C54.5602 6.46082 54.436 6.35967 54.3313 6.35967H51.9252C51.801 6.35967 51.6963 6.23955 51.6963 6.13841L51.644 4.84243C51.559 4.64645 51.6833 4.52633 51.801 4.52633ZM50.8594 9.07806H53.1413C53.1413 9.07806 53.1936 9.07806 53.1936 9.12864V9.86829C53.1936 9.86829 53.1937 9.91887 53.1413 9.91887H51.9775C51.9775 9.91887 51.9252 9.91886 51.9252 9.96944V10.9304C51.9252 10.9304 51.9252 10.9809 51.9775 10.9809H52.8667C52.8667 10.9809 52.919 10.9809 52.919 11.0315V11.8217C52.919 11.8217 52.919 11.8723 52.8667 11.8723H51.9775C51.9775 11.8723 51.9252 11.8723 51.9252 11.9229V12.9533C51.9252 12.9533 51.9252 13.0039 51.9775 13.0039H53.2133C53.2133 13.0039 53.2656 13.0039 53.2656 13.0545V13.8447C53.2656 13.8447 53.2656 13.8953 53.2133 13.8953H50.9837C50.9837 13.8953 50.9313 13.8953 50.9313 13.8447V9.41312V9.36254L50.8594 9.07806C50.794 9.12863 50.794 9.07806 50.8594 9.07806ZM63.5702 10.2097C63.799 11.6258 63.5179 13.162 62.8706 14.5275C62.2429 15.893 61.1771 17.0246 59.889 17.8148C58.601 18.6051 57.1363 19.0097 55.5998 19.0097H55.5475C54.011 19.0097 52.494 18.6051 51.2583 17.8148C49.9702 17.0246 48.9044 15.893 48.2048 14.5275C47.5052 13.162 47.2633 11.6258 47.5052 10.2097C47.6294 9.47001 47.7994 8.79358 48.1525 8.1045C48.329 7.76944 48.499 7.42806 48.6756 7.14358C48.7998 7.02346 48.7279 6.80852 48.7279 6.56829C48.6756 6.28381 48.6756 5.993 48.9567 5.82863C49.2379 5.66427 49.774 5.82863 50.1925 6.23323C50.4213 6.51771 50.611 6.80852 50.611 7.093C50.611 7.26369 50.4867 7.42806 50.4344 7.54818C49.8394 8.33841 49.4406 9.36887 49.3163 10.3804C49.264 10.9556 49.264 11.512 49.3687 12.0809C49.4929 12.6562 49.6629 13.2125 49.8917 13.7309C50.4148 14.7614 51.2321 15.6528 52.2456 16.2281C53.2394 16.8539 54.3575 17.1384 55.541 17.1384H55.5933C56.7637 17.1384 57.9471 16.8033 58.8886 16.2281C59.8825 15.6528 60.6998 14.7424 61.2425 13.7309C61.4713 13.2252 61.661 12.6499 61.7656 12.0809C61.8702 11.5056 61.8898 10.9493 61.8179 10.3804C61.6936 9.29932 61.2948 8.33841 60.6998 7.54818C60.6475 7.42806 60.5233 7.26369 60.5233 7.093C60.5233 6.80852 60.6998 6.46714 60.9417 6.23323C61.2883 5.89817 61.759 5.72748 62.1121 5.82863C62.4063 5.94875 62.341 6.28381 62.341 6.56829C62.341 6.78956 62.2886 6.97289 62.3933 7.14358C62.6221 7.42806 62.8117 7.76944 62.9163 8.1045C63.276 8.77461 63.4525 9.46369 63.5702 10.2097Z" fill="black"/>
<path d="M55.6056 0.107422C49.381 0.107422 44.3398 4.9942 44.3398 11C44.3398 16.9994 49.3941 21.8925 55.6056 21.8925C61.8302 21.8925 66.8714 17.0057 66.8714 11C66.9368 4.98156 61.8302 0.107422 55.6056 0.107422ZM55.6056 21.1655C49.8518 21.1655 45.0918 16.6327 45.0918 11C45.0918 5.43673 49.7798 0.834433 55.6056 0.834433C61.3595 0.834433 66.0475 5.36719 66.0475 11C66.1195 16.6137 61.4248 21.1655 55.6056 21.1655Z" fill="black"/>
<path d="M104.18 6.11312V5.993C104.18 5.89185 104.127 5.77174 104.003 5.77174C104.127 5.72116 104.18 5.67059 104.18 5.55047C104.18 5.37978 104.055 5.26599 103.833 5.26599H103.362V6.22691H103.539V5.77174H103.768C103.892 5.77174 103.944 5.89185 103.944 5.94243V6.06254C103.944 6.18266 103.997 6.23323 104.121 6.23323V6.21427H104.245V6.16369C104.18 6.16369 104.18 6.16369 104.18 6.11312ZM103.742 5.65794H103.565V5.37346H103.794C103.866 5.37346 103.918 5.443 103.918 5.49358C103.918 5.60737 103.866 5.67059 103.742 5.65794Z" fill="black"/>
<path d="M103.742 4.6781C103.147 4.6781 102.676 5.13327 102.676 5.70856C102.676 6.28385 103.147 6.73902 103.742 6.73902C104.337 6.73902 104.807 6.28385 104.807 5.70856C104.807 5.13327 104.337 4.6781 103.742 4.6781ZM103.742 6.58097C103.199 6.58097 102.852 6.17638 102.852 5.72121C102.852 5.26603 103.218 4.86143 103.742 4.86143C104.284 4.86143 104.631 5.26603 104.631 5.72121C104.631 6.17638 104.284 6.58097 103.742 6.58097Z" fill="black"/>
</g>
</svg>
