<svg width="49" height="48" viewBox="0 0 49 48" fill="none" xmlns="http://www.w3.org/2000/svg">
<g opacity="0.2">
<path d="M15.4538 29.2598H19.32V17.4885H14.0744L12.6221 22.7546L11.1035 17.4885H5.9375V29.2598H9.10076V22.723L11.0571 29.2598H13.6964L15.4538 22.8494V29.2598Z" fill="black"/>
<path d="M33.5977 29.2788H43.0477V26.1432H37.6893V24.7018H42.0463V21.7558H37.7092V20.58H43.0609V17.4443H33.5977V29.2788Z" fill="black"/>
<path d="M31.9475 25.5426C31.9475 24.4363 31.2114 23.488 30.1769 23.134C31.0522 22.7294 31.6557 21.8696 31.6557 20.8771V20.6369C31.6557 18.8984 30.1702 17.476 28.3399 17.476H21.5293V29.2662H28.5123C30.409 29.2662 31.9475 27.7932 31.9475 25.9915V25.5426ZM25.369 20.365H26.9672C27.3982 20.365 27.7563 20.7001 27.7563 21.1173C27.7563 21.5346 27.4049 21.8696 26.9672 21.8696H25.369V20.365ZM27.0733 26.3202H25.3623V24.7018H27.0733C27.5441 24.7018 27.9221 25.0685 27.9221 25.511C27.9288 25.9599 27.5441 26.3202 27.0733 26.3202Z" fill="black"/>
<path d="M16.9265 33.6724C16.8072 33.7673 16.6679 33.8115 16.4955 33.8115C16.3562 33.8115 16.2302 33.7799 16.1108 33.7104C15.9915 33.6408 15.9053 33.5397 15.8456 33.4006C15.7925 33.2615 15.7594 33.1035 15.7594 32.9201C15.7594 32.7747 15.7859 32.6357 15.8323 32.5029C15.8787 32.3701 15.9649 32.2627 16.0777 32.1805C16.1904 32.0983 16.3429 32.0604 16.5154 32.0604C16.6679 32.0604 16.7939 32.0983 16.8934 32.1678C16.9928 32.2374 17.0724 32.3575 17.1255 32.5092L17.4239 32.4397C17.3642 32.2374 17.2581 32.0857 17.0989 31.9719C16.9464 31.8644 16.7541 31.8075 16.5286 31.8075C16.3297 31.8075 16.144 31.8517 15.9782 31.9403C15.8124 32.0288 15.6798 32.1552 15.5936 32.3259C15.5007 32.4966 15.4609 32.6926 15.4609 32.9138C15.4609 33.1224 15.5007 33.3121 15.5803 33.4954C15.6599 33.6788 15.7793 33.8115 15.9318 33.9063C16.0843 34.0012 16.2833 34.0517 16.5286 34.0517C16.7674 34.0517 16.9663 33.9885 17.1321 33.8684C17.2979 33.742 17.4106 33.565 17.4703 33.3311L17.1719 33.2615C17.1188 33.4449 17.0393 33.5776 16.9265 33.6724Z" fill="black"/>
<path d="M18.3324 33.0277H19.5858V32.7748H18.3324V32.111H19.672V31.8518H18.0273V34.0202H19.725V33.761H18.3324V33.0277Z" fill="black"/>
<path d="M21.6946 33.1415C21.6549 33.1035 21.5952 33.0719 21.5156 33.034C21.7344 33.0024 21.8936 32.9392 21.9997 32.8317C22.1058 32.7242 22.1589 32.5978 22.1589 32.4461C22.1589 32.3259 22.1257 32.2185 22.066 32.1173C21.9997 32.0162 21.9201 31.953 21.814 31.9087C21.7079 31.8708 21.5554 31.8518 21.3498 31.8518H20.3418V34.0202H20.6402V33.0593H20.9917C21.0713 33.0593 21.1243 33.0656 21.1575 33.0719C21.2039 33.0846 21.2503 33.1035 21.2967 33.1288C21.3432 33.1541 21.3896 33.2047 21.4493 33.2742C21.509 33.3438 21.5753 33.4449 21.6681 33.5713L21.9665 34.0202H22.3445L21.9466 33.4323C21.8604 33.3122 21.7809 33.2173 21.6946 33.1415ZM21.2835 32.8064H20.6402V32.092H21.3564C21.5222 32.092 21.6482 32.1236 21.7278 32.1932C21.8074 32.2564 21.8472 32.3449 21.8472 32.4461C21.8472 32.5156 21.8273 32.5788 21.7875 32.642C21.7477 32.6989 21.688 32.7432 21.6084 32.7748C21.5289 32.7938 21.4227 32.8064 21.2835 32.8064Z" fill="black"/>
<path d="M22.583 32.111H23.3324V34.0202H23.6374V32.111H24.3868V31.8518H22.583V32.111Z" fill="black"/>
<path d="M25.2359 31.8518H24.9375V34.0202H25.2359V31.8518Z" fill="black"/>
<path d="M25.9717 34.0202H26.2701V33.034H27.3378V32.7811H26.2701V32.111H27.5036V31.8518H25.9717V34.0202Z" fill="black"/>
<path d="M28.4391 31.8518H28.1406V34.0202H28.4391V31.8518Z" fill="black"/>
<path d="M29.4672 33.0277H30.7205V32.7748H29.4672V32.111H30.8067V31.8518H29.1621V34.0202H30.8598V33.761H29.4672V33.0277Z" fill="black"/>
<path d="M32.9882 32.0415C32.8953 31.9656 32.7826 31.915 32.6566 31.8834C32.5637 31.8645 32.4311 31.8518 32.252 31.8518H31.4629V34.0202H32.2852C32.4245 34.0202 32.5438 34.0076 32.6499 33.9823C32.756 33.957 32.8489 33.919 32.9218 33.8748C32.9948 33.8242 33.0677 33.761 33.1274 33.6788C33.1937 33.5966 33.2402 33.4892 33.2799 33.3627C33.3197 33.2363 33.3396 33.0909 33.3396 32.9265C33.3396 32.7305 33.3131 32.5599 33.2534 32.4145C33.1937 32.2564 33.1075 32.1363 32.9882 32.0415ZM32.9749 33.3374C32.9351 33.4512 32.882 33.5461 32.8091 33.6093C32.756 33.6599 32.6897 33.6978 32.6035 33.7231C32.5173 33.7484 32.3979 33.761 32.252 33.761H31.7679V32.1047H32.2454C32.4245 32.1047 32.5571 32.1173 32.6367 32.1489C32.7494 32.1932 32.8423 32.269 32.9218 32.3955C33.0014 32.5156 33.0412 32.6926 33.0412 32.9202C33.0346 33.0846 33.0147 33.2236 32.9749 33.3374Z" fill="black"/>
<path d="M24.7055 40.1082L24.3076 40.1145L24.3143 40.399L24.6525 40.3926C24.7519 40.3926 24.805 40.38 24.8381 40.3674C24.8713 40.3547 24.8912 40.3421 24.9045 40.3168C24.9177 40.2915 24.931 40.2662 24.9244 40.2409C24.9244 40.203 24.9111 40.1714 24.8779 40.1461C24.8448 40.1208 24.7851 40.1082 24.7055 40.1082Z" fill="black"/>
<path d="M16.9332 9.59255C16.9928 9.61152 17.0459 9.62416 17.0989 9.62416C17.1653 9.62416 17.2316 9.61152 17.3045 9.57991C17.4305 9.52302 17.5167 9.43451 17.5565 9.3144C17.5963 9.18796 17.5764 9.04256 17.4902 8.87819C17.4372 8.77072 17.3708 8.68222 17.2979 8.62532C17.2249 8.56842 17.1454 8.53681 17.0592 8.52417C17.0393 8.52417 17.026 8.52417 17.0061 8.52417C16.9398 8.52417 16.8735 8.53681 16.8005 8.56842C16.6812 8.62532 16.5949 8.7075 16.5485 8.82762C16.5021 8.94141 16.5286 9.09945 16.6281 9.30175C16.7077 9.44715 16.8072 9.5483 16.9332 9.59255Z" fill="black"/>
<path d="M26.4293 40.0322C26.4226 40.0322 26.4094 40.0322 26.3961 40.0322C26.3629 40.0322 26.3232 40.0322 26.2635 40.0385L25.9717 40.0638L26.0048 40.3862L26.2966 40.361C26.4359 40.3483 26.4823 40.3167 26.5022 40.2977C26.5221 40.2788 26.542 40.2472 26.5354 40.1713C26.5287 40.1334 26.5155 40.1018 26.4956 40.0765C26.4823 40.0449 26.4624 40.0322 26.4293 40.0322Z" fill="black"/>
<path d="M25.8922 8.05638C25.9055 8.05638 25.9187 8.05638 25.9253 8.05638C25.9651 8.05006 25.9983 8.04374 26.0248 8.03109C26.0447 8.01845 26.0646 8.00581 26.0779 7.98052C26.0911 7.95523 26.1044 7.92994 26.1044 7.89201C26.1044 7.85408 26.0978 7.81615 26.0845 7.79087C26.0646 7.75926 26.0447 7.74029 26.0049 7.72765C25.9718 7.715 25.9121 7.69604 25.7861 7.68972L25.4943 7.66443L25.4678 8.02477L25.7927 8.05006C25.8325 8.05638 25.8657 8.05638 25.8922 8.05638Z" fill="black"/>
<path d="M44.8984 26.0104L48.8176 24.1138L44.9183 22.1794L48.3733 19.5874L44.1556 18.4179L47.0139 15.238L42.637 14.8713L44.7923 11.2173L40.4154 11.6725L41.7815 7.68971L37.5904 8.94776L38.1143 4.78799L34.2613 6.80465L33.9165 2.62592L30.5476 5.31902L29.3606 1.28569L26.6085 4.55408L24.619 0.817871L22.5897 4.53511L19.8708 1.24143L18.644 5.26212L15.3083 2.53741L14.9236 6.70983L11.0906 4.65523L11.5681 8.82764L7.39017 7.52534L8.70985 11.5207L4.34627 11.0213L6.46175 14.6943L2.07827 15.0167L4.90333 18.2282L0.672377 19.3598L4.1009 21.9834L0.181641 23.8799L4.08101 25.8144L0.625957 28.4064L4.84364 29.5759L1.98543 32.7558L6.36227 33.1225L4.20701 36.7765L8.58385 36.3276L7.21775 40.3104L11.4089 39.0524L10.885 43.2121L14.738 41.1955L15.0762 45.3742L18.445 42.6811L19.6321 46.7144L22.3842 43.446L24.3736 47.1822L26.4029 43.465L29.1219 46.7587L30.3487 42.738L33.6844 45.4627L34.069 41.2903L37.9021 43.3449L37.4312 39.1725L41.6091 40.4748L40.2894 36.4794L44.653 36.9788L42.5375 33.3058L46.921 32.9834L44.096 29.7719L48.3269 28.6403L44.8984 26.0104ZM35.9922 12.311C36.0187 12.3742 36.0651 12.4311 36.1248 12.488C36.1779 12.5386 36.2309 12.5702 36.284 12.5955C36.3171 12.6081 36.3503 12.6144 36.3768 12.6144C36.3834 12.6144 36.3967 12.6144 36.4033 12.6144C36.4365 12.6081 36.463 12.5955 36.4829 12.5765C36.5028 12.5575 36.5161 12.5322 36.5161 12.507C36.5161 12.488 36.5161 12.4501 36.4829 12.3868C36.4696 12.3615 36.4299 12.292 36.3237 12.134C36.2309 11.9949 36.1712 11.8874 36.1447 11.8179C36.1115 11.7167 36.0983 11.6219 36.1182 11.5334C36.1381 11.4449 36.1845 11.3627 36.2508 11.2932C36.3237 11.2173 36.4166 11.1667 36.5293 11.1414C36.5691 11.1351 36.6089 11.1288 36.6487 11.1288C36.7216 11.1288 36.7946 11.1414 36.8675 11.173C36.9736 11.211 37.0797 11.2805 37.1726 11.3627C37.2787 11.4575 37.3516 11.5587 37.3981 11.6598C37.4511 11.7736 37.4644 11.8811 37.4445 11.9949C37.4246 12.1024 37.3715 12.2035 37.292 12.2857L37.2256 12.3615L36.8941 12.1024L36.9604 12.0265C37.0068 11.9633 37.0333 11.9064 37.0267 11.8495C37.0201 11.7926 36.9736 11.723 36.9007 11.6535C36.8012 11.5587 36.7349 11.5397 36.6951 11.5334C36.6885 11.5334 36.6819 11.5334 36.6752 11.5334C36.6354 11.5334 36.6089 11.546 36.589 11.565C36.5691 11.584 36.5559 11.6093 36.5625 11.6345C36.5625 11.6409 36.5691 11.6978 36.7084 11.9001C36.8211 12.0581 36.8874 12.1719 36.9206 12.2478C36.967 12.3615 36.9869 12.4753 36.967 12.5702C36.9471 12.6713 36.9007 12.7598 36.8211 12.842C36.7415 12.9179 36.6487 12.9748 36.5293 13.0001C36.4829 13.0127 36.4365 13.0127 36.3901 13.0127C36.3171 13.0127 36.2442 13.0001 36.1712 12.9748C36.0519 12.9368 35.9457 12.8673 35.8463 12.7788C35.7203 12.665 35.6341 12.5512 35.581 12.4374C35.528 12.3173 35.5147 12.1972 35.5346 12.0707C35.5611 11.9506 35.6142 11.8368 35.707 11.742L35.7733 11.6725L36.1049 11.9253L36.0452 12.0075C36.0054 12.0581 35.9789 12.1087 35.9723 12.1593C35.959 12.2035 35.9656 12.2541 35.9922 12.311ZM35.0637 10.0161C35.1168 9.99718 35.1765 9.99086 35.2362 9.99086C35.2892 9.99086 35.3489 9.99718 35.402 10.0161C35.5147 10.0478 35.6208 10.0983 35.7269 10.1742C35.8396 10.2564 35.9259 10.3512 35.9855 10.4524C36.0452 10.5598 36.0784 10.6673 36.0651 10.7811C36.0585 10.8886 36.0187 10.996 35.9457 11.0909L35.8861 11.173L35.528 10.9455L35.581 10.8633C35.6208 10.7937 35.6407 10.7368 35.6274 10.6799C35.6142 10.623 35.5611 10.5598 35.4815 10.4966C35.3688 10.4144 35.3025 10.3955 35.2627 10.3955C35.1964 10.3955 35.1699 10.4207 35.1566 10.4397C35.1367 10.465 35.1301 10.484 35.1367 10.5156C35.1367 10.5219 35.15 10.5788 35.3091 10.7621C35.4351 10.9075 35.5147 11.015 35.5545 11.0845C35.6142 11.1983 35.6407 11.2995 35.6341 11.4006C35.6274 11.5018 35.5876 11.5966 35.5147 11.6851C35.4484 11.7673 35.3555 11.8305 35.2428 11.8684C35.1765 11.8874 35.1102 11.9001 35.0439 11.9001C34.9908 11.9001 34.9377 11.8937 34.8847 11.8811C34.7653 11.8558 34.646 11.7989 34.5399 11.7167C34.4072 11.6156 34.3077 11.5144 34.2414 11.4006C34.1751 11.2868 34.1486 11.1667 34.1552 11.0403C34.1685 10.9202 34.2083 10.8001 34.2945 10.6989L34.3542 10.623L34.7123 10.838L34.6592 10.9202C34.6261 10.9771 34.6062 11.0276 34.5995 11.0782C34.5995 11.1225 34.6128 11.173 34.6393 11.2236C34.6725 11.2805 34.7255 11.3374 34.7919 11.388C34.8515 11.4322 34.9046 11.4638 34.9643 11.4765C34.9908 11.4828 35.0173 11.4891 35.0439 11.4891C35.0571 11.4891 35.077 11.4891 35.0903 11.4828C35.1234 11.4765 35.1433 11.4575 35.1632 11.4322C35.1831 11.407 35.1898 11.388 35.1898 11.3627C35.1898 11.3437 35.1831 11.3058 35.1433 11.2489C35.1301 11.2236 35.0836 11.1604 34.9576 11.015C34.8515 10.8822 34.7786 10.7874 34.7454 10.7179C34.699 10.623 34.6791 10.5282 34.6857 10.4334C34.6924 10.3449 34.7322 10.2564 34.7919 10.1805C34.8714 10.111 34.9576 10.0541 35.0637 10.0161ZM34.7985 9.54201L34.5796 9.88339L33.7109 9.37132L33.5451 9.62419L34.3608 10.1047L34.142 10.446L33.3196 9.96557L33.1207 10.269L34.0226 10.8064L33.8037 11.1478L32.5238 10.3891L33.5517 8.815L34.7985 9.54201ZM32.0729 8.10063L32.2652 9.365L32.7493 8.4104L33.1406 8.58741L32.2984 10.2627L31.9403 10.0983L31.748 8.83396L31.2639 9.78856L30.8726 9.61155L31.7148 7.93626L32.0729 8.10063ZM30.8792 7.63281L31.297 7.78454L30.6007 9.51672L30.1829 9.365L30.8792 7.63281ZM28.6444 8.13856L29.0555 8.22075L29.0356 8.32189C29.0224 8.38511 29.0224 8.44201 29.0423 8.48626C29.0555 8.53051 29.0887 8.56845 29.1351 8.60638C29.1882 8.65063 29.2545 8.68224 29.3341 8.70753C29.3937 8.72649 29.4468 8.73281 29.4932 8.73281C29.5065 8.73281 29.5131 8.73281 29.5264 8.73281C29.5794 8.72649 29.6126 8.71385 29.6457 8.69488C29.6723 8.67592 29.6922 8.65063 29.6988 8.62534C29.7054 8.60006 29.7054 8.57477 29.6988 8.54948C29.6922 8.53051 29.6723 8.49891 29.6126 8.46097C29.5861 8.44201 29.5264 8.40408 29.354 8.30925C29.2014 8.22707 29.102 8.15753 29.0423 8.10063C28.9627 8.02477 28.9096 7.94258 28.8831 7.8604C28.8566 7.77189 28.8566 7.68339 28.8897 7.58856C28.9229 7.48741 28.9826 7.40523 29.0622 7.33569C29.1484 7.26615 29.2545 7.22822 29.3805 7.21557C29.407 7.21557 29.4402 7.20925 29.4667 7.20925C29.5595 7.20925 29.6524 7.22189 29.7452 7.24718C29.8845 7.28511 29.9972 7.34201 30.0901 7.41787C30.1895 7.49373 30.2559 7.58856 30.289 7.69603C30.3222 7.8035 30.3222 7.91097 30.2956 8.02477L30.2691 8.11959L29.8513 8.03109L29.8712 7.93626C29.8845 7.8604 29.8779 7.79718 29.8447 7.75293C29.8115 7.70235 29.7386 7.66442 29.6391 7.63281C29.5728 7.61385 29.5197 7.60753 29.4733 7.60753C29.4468 7.60753 29.4203 7.61385 29.4004 7.62017C29.3407 7.64546 29.3274 7.67074 29.3208 7.69603C29.3142 7.72764 29.3142 7.74661 29.3274 7.77189C29.3341 7.77822 29.3672 7.82879 29.5861 7.94258C29.7585 8.03741 29.8779 8.10695 29.9375 8.15753C30.037 8.23971 30.1033 8.32822 30.1299 8.42937C30.163 8.53052 30.163 8.63166 30.1299 8.73281C30.0967 8.83396 30.037 8.92247 29.9442 8.99833C29.858 9.06787 29.7452 9.11845 29.6192 9.13109C29.5794 9.13741 29.5463 9.13741 29.5065 9.13741C29.4203 9.13741 29.3274 9.12477 29.2346 9.09948C29.0688 9.05523 28.9362 8.99201 28.8367 8.90982C28.7306 8.82764 28.6576 8.72649 28.6245 8.60638C28.5847 8.48626 28.5847 8.36615 28.6245 8.23971L28.6444 8.13856ZM26.8539 7.74029L27.0528 6.7035L27.4905 6.77937L27.2915 7.81615C27.2584 7.97419 27.265 8.05638 27.2716 8.09431C27.2849 8.14488 27.3048 8.18281 27.3446 8.21442C27.391 8.25235 27.4507 8.27764 27.5303 8.29028C27.5767 8.29661 27.6231 8.30293 27.6629 8.30293C27.7292 8.30293 27.7889 8.29029 27.8221 8.265C27.8552 8.23971 27.9215 8.16385 27.968 7.93626L28.1669 6.89948L28.6046 6.97534L28.4056 8.01212C28.3725 8.18914 28.3261 8.32189 28.2597 8.42304C28.1934 8.53052 28.0873 8.6127 27.9547 8.66327C27.8751 8.69488 27.7823 8.70753 27.6828 8.70753C27.6165 8.70753 27.5502 8.7012 27.4772 8.68856C27.2982 8.65695 27.1589 8.60006 27.0528 8.51787C26.9401 8.43569 26.8737 8.32189 26.8406 8.19546C26.8141 8.07534 26.8141 7.92994 26.8539 7.74029ZM25.1363 6.54546L25.8923 6.59603C26.0382 6.60868 26.1575 6.63396 26.2504 6.67822C26.3499 6.72879 26.4228 6.79833 26.4692 6.88684C26.5156 6.97534 26.5422 7.07017 26.5289 7.165C26.5223 7.2535 26.4891 7.33569 26.4361 7.41155C26.4162 7.43684 26.3896 7.46212 26.3631 7.48741C26.4029 7.51902 26.4427 7.55695 26.4692 7.6012C26.5355 7.69603 26.5621 7.8035 26.5488 7.9173C26.5422 8.01212 26.5156 8.09431 26.4692 8.17017C26.4228 8.24603 26.3631 8.30925 26.2968 8.34718C26.2305 8.38511 26.1509 8.41672 26.0647 8.42937C26.0116 8.43569 25.952 8.44201 25.879 8.44201C25.8392 8.44201 25.7994 8.44201 25.753 8.43569L24.9837 8.37879L25.1363 6.54546ZM22.6627 6.62764L23.0805 7.14603C23.1136 7.19029 23.1468 7.22822 23.18 7.27247C23.2065 7.22189 23.233 7.17132 23.2662 7.12074L23.5911 6.56442L24.1216 6.52649L23.4187 7.66442L23.4784 8.42937L23.0341 8.46097L22.9744 7.68971L22.1322 6.65925L22.6627 6.62764ZM22.0924 6.68454L22.1653 7.07649L21.6016 7.17132L21.8669 8.60638L21.4292 8.68224L21.164 7.24718L20.6003 7.34201L20.5273 6.95006L22.0924 6.68454ZM20.2289 7.02592L20.7064 8.82764L20.2753 8.92879L19.7979 7.12707L20.2289 7.02592ZM18.6771 7.44948C18.823 7.39891 18.9424 7.37994 19.0419 7.37994H19.0617C19.1745 7.38626 19.274 7.42419 19.3602 7.49373C19.4464 7.56327 19.5061 7.65178 19.5459 7.75293C19.5923 7.89201 19.5856 8.01845 19.526 8.14488C19.4928 8.2081 19.4464 8.27132 19.3801 8.32189C19.453 8.35983 19.5326 8.40408 19.6055 8.46097L20.1957 8.90982L19.6785 9.07419L19.3005 8.78339C19.2076 8.71385 19.1347 8.65695 19.075 8.62534C19.0087 8.58741 18.9755 8.57477 18.9623 8.56845C18.9424 8.56212 18.9225 8.56212 18.9026 8.56212C18.896 8.56212 18.8893 8.56212 18.8827 8.56212C18.8761 8.56212 18.8495 8.56845 18.7832 8.58741L18.6307 8.63799L18.8761 9.33339L18.4583 9.47247L17.8349 7.715L18.6771 7.44948ZM16.1306 8.72017C16.2102 8.49258 16.376 8.31557 16.6213 8.20178C16.754 8.13856 16.8932 8.11327 17.0325 8.11327C17.059 8.11327 17.0922 8.11327 17.1187 8.11959C17.2845 8.13224 17.4436 8.19546 17.5763 8.29661C17.7089 8.39776 17.815 8.53052 17.8946 8.69488C17.9742 8.85925 18.014 9.02994 18.014 9.19431C18.0073 9.365 17.9543 9.51672 17.8548 9.64316C17.7553 9.7696 17.6293 9.87074 17.4768 9.94028C17.3442 10.0035 17.2049 10.0288 17.0656 10.0288C17.0325 10.0288 16.9993 10.0288 16.9728 10.0225C16.8004 10.0035 16.6479 9.94661 16.5152 9.83914C16.3826 9.73799 16.2831 9.61787 16.2102 9.47247C16.0842 9.20063 16.0576 8.94776 16.1306 8.72017ZM14.4329 9.40925L15.6531 9.93396L15.0629 9.03626L15.4343 8.815L16.4688 10.3891L16.1306 10.5914L14.9104 10.0667L15.5006 10.9644L15.1292 11.1857L14.0947 9.61155L14.4329 9.40925ZM13.7366 9.87074L14.8971 11.3627L14.539 11.6156L13.3785 10.1236L13.7366 9.87074ZM11.9991 11.2236L13.1397 11.8495L12.6291 10.6926L13.0005 10.3828L14.2936 11.7673L13.9687 12.0455L13.3586 11.388L13.73 12.2478L13.4581 12.4753L12.6026 12.0138L13.2193 12.6776L12.8944 12.9558L11.6012 11.5713L11.9991 11.2236ZM18.8097 40.184L18.6705 40.538L17.384 40.0702L18.014 38.4897L19.2673 38.9449L19.1281 39.2989L18.266 38.9891L18.1731 39.223L18.9755 39.5138L18.8363 39.8679L18.0339 39.5771L17.9211 39.8552L18.8097 40.184ZM20.335 40.9932L19.9703 40.8983L19.5989 39.8363L19.3403 40.734L18.9424 40.6265L19.4132 38.9955L19.778 39.0903L20.1493 40.1524L20.408 39.2547L20.8059 39.3621L20.335 40.9932ZM21.4955 41.2018L21.0777 41.1322L21.3165 39.8426L20.8125 39.7541L20.8854 39.3811L22.3112 39.6213L22.2449 39.9943L21.7343 39.9058L21.4955 41.2018ZM23.684 40.1144L22.7688 40.0386L22.7489 40.2851L23.6044 40.3547L23.5712 40.734L22.7157 40.6644L22.6892 40.9615L23.6442 41.0437L23.611 41.423L22.2383 41.3092L22.3908 39.6276L23.7304 39.7414L23.684 40.1144ZM25.07 41.423L24.8246 41.069C24.7649 40.9868 24.7185 40.9173 24.6787 40.873C24.6389 40.8225 24.6124 40.8035 24.5991 40.7972C24.5792 40.7845 24.5593 40.7782 24.5394 40.7719C24.5394 40.7719 24.5195 40.7719 24.4731 40.7719H24.3206L24.3339 41.4294L23.9094 41.4357L23.8829 39.7478L24.7119 39.7351C24.8511 39.7351 24.9572 39.7478 25.0368 39.7794C25.1296 39.811 25.2092 39.8742 25.2689 39.9564C25.322 40.0386 25.3551 40.1334 25.3551 40.2345C25.3551 40.3673 25.3153 40.4811 25.2225 40.5759C25.1761 40.6202 25.123 40.6581 25.0567 40.6897C25.1097 40.7403 25.1562 40.7972 25.2026 40.8604L25.5872 41.4167L25.07 41.423ZM26.8539 40.5253C26.761 40.6455 26.5886 40.715 26.3366 40.7403L26.0448 40.7656L26.1111 41.3661L25.6933 41.4041L25.5143 39.7225L26.204 39.6529C26.2769 39.6466 26.3432 39.6403 26.3963 39.6403C26.4228 39.6403 26.4427 39.6403 26.4626 39.6403C26.5554 39.6466 26.635 39.6656 26.708 39.7035C26.7809 39.7414 26.8406 39.7983 26.887 39.8679C26.9334 39.9374 26.96 40.0196 26.9732 40.1081C26.9865 40.2725 26.9467 40.4052 26.8539 40.5253ZM28.5117 41.0184L28.2067 40.715C28.1337 40.6391 28.0741 40.5886 28.0276 40.5506C27.9746 40.5064 27.9481 40.4937 27.9348 40.4874C27.9149 40.4811 27.8884 40.4748 27.8685 40.4748C27.8619 40.4748 27.842 40.4748 27.7823 40.4874L27.6563 40.5127L27.7889 41.1575L27.3777 41.2334L27.0329 39.5771L27.8154 39.4317C27.9149 39.4127 28.0011 39.4064 28.0674 39.4064C28.1072 39.4064 28.1404 39.4064 28.1735 39.4127C28.273 39.4317 28.3592 39.4759 28.4322 39.5518C28.4985 39.6213 28.5449 39.7098 28.5648 39.811C28.5913 39.9374 28.5714 40.0575 28.4985 40.165C28.4653 40.2156 28.4189 40.2661 28.3592 40.3041C28.4189 40.342 28.4786 40.3926 28.5316 40.4495L29.0158 40.9299L28.5117 41.0184ZM29.1351 40.8667L28.6643 39.2357L29.0688 39.1282L29.5396 40.7593L29.1351 40.8667ZM31.0185 40.0386C30.992 40.1397 30.9389 40.2282 30.8527 40.3041C30.7731 40.3799 30.667 40.4368 30.5476 40.4748C30.4216 40.519 30.3023 40.538 30.2028 40.538C30.1829 40.538 30.1696 40.538 30.1497 40.538C30.0238 40.5317 29.911 40.4874 29.8182 40.4179C29.7253 40.3483 29.6524 40.2598 29.6126 40.146L29.5794 40.0575L29.9442 39.8995L29.9906 39.988C30.0171 40.0386 30.0503 40.0765 30.0834 40.1018C30.1166 40.1271 30.1564 40.1397 30.2161 40.1397C30.2293 40.1397 30.236 40.1397 30.2492 40.1397C30.3023 40.1397 30.3553 40.1271 30.415 40.1081C30.4747 40.0891 30.5277 40.0638 30.5675 40.0322C30.6007 40.007 30.6206 39.9817 30.6272 39.9501C30.6339 39.9248 30.6339 39.8995 30.6272 39.8805C30.6206 39.8552 30.6073 39.8426 30.5874 39.8299C30.5742 39.8236 30.5476 39.811 30.4813 39.8047H30.4681C30.4349 39.8047 30.3686 39.811 30.2094 39.8236C30.1166 39.8299 30.0436 39.8363 29.9773 39.8363C29.9309 39.8363 29.8977 39.8363 29.8646 39.8299C29.7651 39.8173 29.6789 39.7794 29.606 39.7288C29.5396 39.6782 29.4866 39.6087 29.4534 39.5265C29.4203 39.438 29.4136 39.3432 29.4402 39.2483C29.4667 39.1535 29.5198 39.065 29.606 38.9955C29.6855 38.9259 29.785 38.8753 29.8977 38.8374C30.0039 38.7995 30.1033 38.7868 30.2028 38.7868C30.2161 38.7868 30.236 38.7868 30.2492 38.7868C30.3686 38.7932 30.4681 38.8311 30.5543 38.8943C30.6405 38.9575 30.7002 39.0397 30.74 39.1345L30.7797 39.2294L30.4084 39.3811L30.362 39.2926C30.3288 39.2294 30.2956 39.1914 30.2492 39.1788C30.2293 39.1725 30.2094 39.1661 30.1829 39.1661C30.1431 39.1661 30.0901 39.1725 30.037 39.1914C29.911 39.2294 29.8712 39.2736 29.858 39.2989C29.8314 39.3432 29.8381 39.3684 29.8447 39.3874C29.8513 39.4127 29.8646 39.4253 29.8845 39.4317C29.8845 39.4317 29.9044 39.438 29.9707 39.438C30.0237 39.438 30.0834 39.4317 30.163 39.4253C30.2956 39.4127 30.4017 39.4064 30.4747 39.4064C30.5012 39.4064 30.5211 39.4064 30.541 39.4064C30.6604 39.419 30.7599 39.4506 30.8394 39.5075C30.919 39.5644 30.9787 39.6403 31.0119 39.7351C31.0384 39.8426 31.045 39.9374 31.0185 40.0386ZM31.4628 40.1334L30.7267 38.5972L31.9469 38.0661L32.1127 38.4138L31.2771 38.7805L31.3832 39.0081L32.1658 38.6667L32.3315 39.0144L31.549 39.3558L31.6816 39.6276L32.5504 39.2483L32.7162 39.596L31.4628 40.1334ZM43.4925 20.9909H38.5453C38.5719 21.111 38.5984 21.2311 38.6249 21.3512H42.4779V25.1127H38.857C38.8371 25.3213 38.8172 25.5299 38.7907 25.7386H43.4726V29.6897H37.6302C35.3754 34.4564 30.3421 37.7753 24.4996 37.7753C18.6506 37.7753 13.6106 34.4501 11.3559 29.6707H10.7259L9.52554 25.6501V29.6707H5.5068V17.0776H11.4288L11.6476 17.8426C14.0217 13.3794 18.8827 10.3133 24.4996 10.3133C29.7651 10.3133 34.3741 13.0064 36.8808 17.0334H43.4859V20.9909H43.4925Z" fill="black"/>
<path d="M25.8995 7.29143C25.9459 7.29143 25.9658 7.28511 25.9791 7.28511C26.0189 7.27879 26.0387 7.26615 26.0586 7.24718C26.0785 7.22822 26.0852 7.20293 26.0852 7.165C26.0852 7.12707 26.0852 7.10178 26.0653 7.07017C26.052 7.04488 26.0387 7.03224 26.0122 7.02592C25.9923 7.01959 25.9326 7.00063 25.7801 6.99431L25.5414 6.97534L25.5215 7.26615L25.7867 7.28511C25.8332 7.29143 25.8663 7.29143 25.8995 7.29143Z" fill="black"/>
<path d="M27.9882 39.7793C27.9617 39.7793 27.9285 39.7856 27.8887 39.7919L27.5107 39.8615L27.5704 40.1396L27.902 40.0764C28.0015 40.0575 28.0545 40.0385 28.0811 40.0195C28.1076 40.0006 28.1275 39.9816 28.1407 39.9563C28.154 39.931 28.154 39.9057 28.1474 39.8741C28.1407 39.8362 28.1209 39.8046 28.0877 39.7856C28.0545 39.7793 28.028 39.7793 27.9882 39.7793Z" fill="black"/>
<path d="M18.8827 8.15119C18.9889 8.11326 19.0485 8.08165 19.0751 8.06268C19.1082 8.03739 19.1215 8.01211 19.1347 7.9805C19.1414 7.94889 19.1414 7.91728 19.1281 7.88567C19.1149 7.84142 19.0817 7.80981 19.0419 7.79084C19.022 7.78452 19.0021 7.7782 18.9756 7.7782C18.9358 7.7782 18.8827 7.79084 18.8231 7.80349L18.4053 7.93624L18.518 8.25866L18.8827 8.15119Z" fill="black"/>
</g>
</svg>
