<svg width="39" height="38" viewBox="0 0 39 38" fill="none" xmlns="http://www.w3.org/2000/svg">
<path opacity="0.2" d="M2.68847 28.5649H1.16019V27.3322H2.62944V26.5546H1.16019V25.5494H2.68847V24.7719H0.235352V29.3362H2.68847V28.5649Z" fill="black"/>
<path opacity="0.2" d="M5.16763 29.3362H6.04655V27.5219C6.04655 26.8328 5.80386 26.2701 4.97741 26.2701C4.66258 26.2701 4.35429 26.3713 4.17064 26.6368H4.16408V26.3713H3.28516V29.3426H4.16408V27.8696C4.16408 27.5092 4.17064 26.9466 4.68881 26.9466C5.18731 26.9466 5.16763 27.4081 5.16763 27.7621V29.3362Z" fill="black"/>
<path opacity="0.2" d="M7.65428 29.3362V27.0793H8.19869V26.3649H7.65428V25.3597H6.77535V26.3649H6.47363V27.0793H6.77535V29.3362H7.65428Z" fill="black"/>
<path opacity="0.2" d="M9.28783 26.6747H9.28127V26.3713H8.40234V29.3426H9.28127V28.0023C9.28127 27.5408 9.3403 27.0224 9.9503 27.0224C10.088 27.0224 10.2127 27.054 10.3176 27.1299L10.4226 26.3397C10.3045 26.3018 10.1799 26.2701 10.0552 26.2701C9.72729 26.2701 9.46492 26.4155 9.28783 26.6747Z" fill="black"/>
<path opacity="0.2" d="M12.016 29.431C12.6654 29.431 13.2032 29.1023 13.4197 28.508L12.6063 28.3816C12.4883 28.6155 12.3046 28.7862 12.016 28.7862C11.5569 28.7862 11.406 28.3626 11.406 27.9897V27.9833H13.4328V27.8822C13.4328 26.9845 12.9802 26.2638 11.9701 26.2638C10.9731 26.2638 10.4746 26.9718 10.4746 27.8759C10.4746 28.7799 11.0584 29.431 12.016 29.431ZM12.0226 26.8644C12.3636 26.8644 12.5604 27.1615 12.6063 27.4649H11.4322C11.4782 27.1552 11.6684 26.8644 12.0226 26.8644Z" fill="black"/>
<path opacity="0.2" d="M14.7188 29.0644H14.7319C14.909 29.3046 15.2435 29.4374 15.5583 29.4374C16.4635 29.4374 16.9817 28.6471 16.9817 27.838C16.9817 27.054 16.4504 26.2701 15.578 26.2701C15.2501 26.2701 14.9287 26.4092 14.7253 26.6368H14.7188V26.3713H13.8398V30.9293H14.7188V29.0644ZM15.3616 27.0224C15.8141 27.0224 16.0896 27.4523 16.0896 27.8506C16.0896 28.2489 15.8141 28.6851 15.3616 28.6851C14.909 28.6851 14.6335 28.2489 14.6335 27.8506C14.6335 27.4523 14.909 27.0224 15.3616 27.0224Z" fill="black"/>
<path opacity="0.2" d="M19.4216 26.3397C19.3035 26.3018 19.1789 26.2701 19.0543 26.2701C18.7263 26.2701 18.464 26.4155 18.2869 26.6747H18.2803V26.3713H17.4014V29.3426H18.2803V28.0023C18.2803 27.5408 18.3393 27.0224 18.9493 27.0224C19.0871 27.0224 19.2117 27.054 19.3166 27.1299L19.4216 26.3397Z" fill="black"/>
<path opacity="0.2" d="M22.4318 27.9833V27.8822C22.4318 26.9845 21.9792 26.2638 20.9691 26.2638C19.9721 26.2638 19.4736 26.9718 19.4736 27.8759C19.4736 28.7799 20.0574 29.431 21.015 29.431C21.6578 29.431 22.1957 29.1023 22.4121 28.508L21.6054 28.3816C21.4873 28.6155 21.3036 28.7862 21.015 28.7862C20.5559 28.7862 20.405 28.3626 20.405 27.9897V27.9833H22.4318ZM21.0216 26.8644C21.3627 26.8644 21.5594 27.1615 21.6054 27.4649H20.4313C20.4772 27.1552 20.6674 26.8644 21.0216 26.8644Z" fill="black"/>
<path opacity="0.2" d="M24.5435 26.2701C24.2287 26.2701 23.9204 26.3713 23.7368 26.6368H23.7237V26.3713H22.8447V29.3426H23.7302V27.8696C23.7302 27.5092 23.7302 26.9466 24.2549 26.9466C24.7534 26.9466 24.7338 27.4081 24.7338 27.7621V29.3362H25.6127V27.5219C25.6127 26.8328 25.37 26.2701 24.5435 26.2701Z" fill="black"/>
<path opacity="0.2" d="M27.5082 26.2638C26.5112 26.2638 26.0127 26.9718 26.0127 27.8759C26.0127 28.7799 26.5965 29.431 27.5541 29.431C28.2034 29.431 28.7413 29.1023 28.9577 28.508L28.1444 28.3816C28.0263 28.6155 27.8427 28.7862 27.5541 28.7862C27.095 28.7862 26.9441 28.3626 26.9441 27.9897V27.9833H28.9709V27.8822C28.9709 26.9845 28.5183 26.2638 27.5082 26.2638ZM26.9703 27.4649C27.0162 27.1552 27.2065 26.8644 27.5607 26.8644C27.9017 26.8644 28.0985 27.1615 28.1444 27.4649H26.9703Z" fill="black"/>
<path opacity="0.2" d="M29.3652 26.3649V28.116C29.3652 28.9821 29.8309 29.4373 30.7492 29.4373C31.6675 29.4373 32.1332 28.9821 32.1332 28.116V26.3649H31.2543V27.9769C31.2543 28.3183 31.1952 28.7229 30.7492 28.7229C30.3032 28.7229 30.2442 28.3183 30.2442 27.9769V26.3649H29.3652Z" fill="black"/>
<path opacity="0.2" d="M33.6279 28.0023C33.6279 27.5408 33.687 27.0224 34.297 27.0224C34.4347 27.0224 34.5593 27.054 34.6643 27.1299L34.7692 26.3397C34.6512 26.3018 34.5265 26.2701 34.4019 26.2701C34.074 26.2701 33.8116 26.4155 33.6345 26.6747H33.6279V26.3713H32.749V29.3426H33.6279V28.0023Z" fill="black"/>
<path opacity="0.2" d="M36.5142 27.5218C36.1994 27.3891 35.878 27.3322 35.878 27.1109C35.878 26.9655 36.0223 26.858 36.1666 26.858C36.3437 26.858 36.5077 26.9528 36.6323 27.0666L37.0062 26.5672C36.7569 26.3523 36.3437 26.2574 36.0157 26.2574C35.4385 26.2574 35.0384 26.662 35.0384 27.2184C35.0384 27.6988 35.3467 27.8758 35.655 28.0023C35.9633 28.1287 36.2715 28.1919 36.2715 28.4511C36.2715 28.6471 36.1141 28.7735 35.9173 28.7735C35.655 28.7735 35.432 28.6155 35.2614 28.4322L34.8613 28.9316C35.1303 29.2477 35.5369 29.431 35.9501 29.431C36.5995 29.431 37.1505 29.0327 37.1505 28.3753C37.1505 27.8632 36.8356 27.6546 36.5142 27.5218Z" fill="black"/>
<path opacity="0.2" d="M38.1802 24.6517L37.498 26.4914L38.0818 26.5609L38.987 24.7466L38.1802 24.6517Z" fill="black"/>
<path opacity="0.2" d="M2.35431 31.2075C0.976889 31.2075 0.0126953 32.3265 0.0126953 33.6035C0.0126953 34.9121 0.970329 36.0121 2.35431 36.0121C3.73173 36.0121 4.69592 34.9121 4.69592 33.6035C4.69592 32.3265 3.73829 31.2075 2.35431 31.2075ZM2.36087 35.1334C1.57377 35.1334 0.970329 34.2546 0.970329 33.5656C0.970329 32.8259 1.54753 32.0799 2.36087 32.0799C3.1742 32.0799 3.7514 32.8259 3.7514 33.5656C3.7514 34.2546 3.14796 35.1334 2.36087 35.1334Z" fill="black"/>
<path opacity="0.2" d="M6.02123 33.2241H6.01467V32.9206H5.13574V35.8919H6.01467V34.5516C6.01467 34.0901 6.0737 33.5718 6.6837 33.5718C6.82144 33.5718 6.94607 33.6034 7.05101 33.6792L7.15596 32.889C7.03789 32.8511 6.91327 32.8195 6.78865 32.8195C6.46069 32.8195 6.19832 32.9649 6.02123 33.2241Z" fill="black"/>
<path opacity="0.2" d="M9.45807 33.1988H9.44495C9.26785 32.9712 8.95302 32.8195 8.64474 32.8195C7.73302 32.8195 7.21484 33.6097 7.21484 34.4252C7.21484 35.2218 7.70022 35.9867 8.60538 35.9867C8.92678 35.9867 9.25474 35.835 9.44495 35.5947H9.45807V35.7907C9.45807 36.2396 9.44495 36.7643 8.82183 36.7643C8.48732 36.7643 8.25775 36.562 8.21183 36.2459H7.28044C7.31979 37.0361 8.08065 37.4786 8.83495 37.4786C9.98936 37.4786 10.3304 36.6758 10.3304 35.7085H10.337V32.9143H9.45807V33.1988ZM8.83495 35.2344C8.38237 35.2344 8.10689 34.8045 8.10689 34.4062C8.10689 34.008 8.38237 33.5718 8.83495 33.5718C9.28753 33.5718 9.56301 34.008 9.56301 34.4062C9.56301 34.8045 9.28097 35.2344 8.83495 35.2344Z" fill="black"/>
<path opacity="0.2" d="M13.0061 33.1924C12.7962 32.9522 12.4682 32.8195 12.1468 32.8195C11.2613 32.8195 10.7432 33.597 10.7432 34.3873C10.7432 35.1901 11.2548 35.9867 12.1599 35.9867C12.4748 35.9867 12.8027 35.8539 12.9929 35.62H13.0061V35.8919H13.8719V32.9143H13.0061V33.1924ZM12.3633 35.2344C11.9107 35.2344 11.6352 34.7982 11.6352 34.3999C11.6352 34.0016 11.9107 33.5718 12.3633 33.5718C12.8159 33.5718 13.0979 34.0016 13.0979 34.3999C13.0979 34.7982 12.8159 35.2344 12.3633 35.2344Z" fill="black"/>
<path opacity="0.2" d="M16.2069 32.8258C15.8921 32.8258 15.5838 32.927 15.4001 33.1925H15.3936V32.927H14.5146V35.8982H15.3936V34.4252C15.3936 34.0649 15.4001 33.5022 15.9183 33.5022C16.4168 33.5022 16.3971 33.9574 16.3971 34.3178V35.8919H17.276V34.0775C17.276 33.3884 17.0334 32.8258 16.2069 32.8258Z" fill="black"/>
<path opacity="0.2" d="M18.3912 31.1696C18.1026 31.1696 17.873 31.3971 17.873 31.669C17.873 31.9535 18.1026 32.1747 18.3912 32.1747C18.6798 32.1747 18.9094 31.9471 18.9094 31.669C18.9094 31.3971 18.6733 31.1696 18.3912 31.1696Z" fill="black"/>
<path opacity="0.2" d="M18.8242 32.9207H17.9453V35.8919H18.8242V32.9207Z" fill="black"/>
<path opacity="0.2" d="M19.4146 32.9143V33.6287H20.7461L19.1719 35.8919H22.0972V35.1775H20.6346L22.1956 32.9143H19.4146Z" fill="black"/>
<path opacity="0.2" d="M24.5637 33.1924C24.3538 32.9522 24.0258 32.8195 23.7044 32.8195C22.819 32.8195 22.3008 33.597 22.3008 34.3873C22.3008 35.1901 22.8124 35.9867 23.7176 35.9867C24.0324 35.9867 24.3603 35.8539 24.5506 35.62H24.5637V35.8919H25.4295V32.9143H24.5637V33.1924ZM23.9143 35.2344C23.4617 35.2344 23.1863 34.7982 23.1863 34.3999C23.1863 34.0016 23.4617 33.5718 23.9143 33.5718C24.3669 33.5718 24.649 34.0016 24.649 34.3999C24.649 34.7982 24.3669 35.2344 23.9143 35.2344Z" fill="black"/>
<path opacity="0.2" d="M27.0498 31.9155H26.1709V32.9144H25.8691V33.6287H26.1709V35.892H27.0498V33.6287H27.5876V32.9144H27.0498V31.9155Z" fill="black"/>
<path opacity="0.2" d="M28.7022 32.9207H27.8232V35.8919H28.7022V32.9207Z" fill="black"/>
<path opacity="0.2" d="M28.2689 31.1696C27.9737 31.1696 27.7441 31.3971 27.7441 31.669C27.7441 31.9535 27.9803 32.1747 28.2689 32.1747C28.5575 32.1747 28.787 31.9471 28.787 31.669C28.787 31.3971 28.5509 31.1696 28.2689 31.1696Z" fill="black"/>
<path opacity="0.2" d="M30.7812 32.8195C29.817 32.8195 29.1611 33.4833 29.1611 34.4062C29.1611 35.3292 29.817 35.9867 30.7812 35.9867C31.7454 35.9867 32.4013 35.3292 32.4013 34.4062C32.4013 33.4833 31.7389 32.8195 30.7812 32.8195ZM30.7747 35.2344C30.3221 35.2344 30.0466 34.8045 30.0466 34.4062C30.0466 33.9953 30.3287 33.5718 30.7747 33.5718C31.2273 33.5718 31.5027 33.9953 31.5027 34.4062C31.5027 34.8045 31.2273 35.2344 30.7747 35.2344Z" fill="black"/>
<path opacity="0.2" d="M34.5142 32.8258C34.1994 32.8258 33.8911 32.927 33.7075 33.1925H33.6944V32.927H32.8154V35.8982H33.7009V34.4252C33.7009 34.0649 33.7075 33.5022 34.2256 33.5022C34.7241 33.5022 34.7045 33.9574 34.7045 34.3178V35.8919H35.5834V34.0775C35.5834 33.3884 35.3407 32.8258 34.5142 32.8258Z" fill="black"/>
<path opacity="0.2" d="M22.6547 2.25342C23.1474 2.25342 23.5468 1.86566 23.5468 1.38733C23.5468 0.909003 23.1474 0.52124 22.6547 0.52124C22.1621 0.52124 21.7627 0.909003 21.7627 1.38733C21.7627 1.86566 22.1621 2.25342 22.6547 2.25342Z" fill="black"/>
<path opacity="0.2" d="M15.2104 2.25342C15.7089 2.25342 16.109 1.86147 16.109 1.38733C16.109 0.913194 15.7023 0.52124 15.2104 0.52124C14.7185 0.52124 14.3184 0.906873 14.3184 1.38733C14.3184 1.86779 14.7185 2.25342 15.2104 2.25342Z" fill="black"/>
<path opacity="0.2" d="M30.4078 2.25342C30.9113 2.25342 31.3195 1.86566 31.3195 1.38733C31.3195 0.909003 30.9113 0.52124 30.4078 0.52124C29.9043 0.52124 29.4961 0.909003 29.4961 1.38733C29.4961 1.86566 29.9043 2.25342 30.4078 2.25342Z" fill="black"/>
<path opacity="0.2" d="M22.7994 21.1999C27.1415 21.1999 30.6769 17.8304 30.6769 13.6833C30.6769 11.1292 29.3454 8.86601 27.3121 7.50049L28.8994 4.7821L28.414 4.45337C28.414 4.45337 27.5941 5.58498 26.5447 7.039C25.4296 6.45739 24.1571 6.12866 22.7994 6.12866C18.4572 6.12866 14.9219 9.51716 14.9219 13.6833C14.9219 17.8304 18.4572 21.1999 22.7994 21.1999ZM22.7994 8.5436C23.6193 8.5436 24.3867 8.73325 25.082 9.05567C23.5537 11.1608 22.0779 13.2028 22.0582 13.2281C21.927 13.4367 21.9008 13.6896 21.9992 13.9298C22.1697 14.3407 22.6485 14.5367 23.0749 14.3787C23.2979 14.2965 23.4291 14.0942 23.5537 13.9361L26.0527 9.64992C27.2662 10.5856 28.0533 12.0333 28.0533 13.6643C28.0533 16.4838 25.6985 18.785 22.7994 18.785C19.9003 18.7787 17.5455 16.4838 17.5455 13.6643C17.5455 10.8384 19.9068 8.5436 22.7994 8.5436Z" fill="black"/>
<path opacity="0.2" d="M13.0195 18.5701H6.62436V14.7454H12.6194V12.3115H6.62436V8.8155H13.0195V6.38159H3.99414V20.9977H13.0195V18.5701Z" fill="black"/>
</svg>
