<svg width="300" height="49" viewBox="0 0 300 49" fill="none" xmlns="http://www.w3.org/2000/svg">
<path fill-rule="evenodd" clip-rule="evenodd" d="M64.8144 30.27C65.8807 25.1917 69.1602 21.8875 72.3427 21.8875C75.2668 21.8875 76.4138 24.3453 76.4138 27.0146C76.4138 31.8326 73.0535 38.4734 67.5123 38.4734C65.2506 38.4734 64.0552 37.3504 64.0552 35.2995C64.0067 34.1438 64.1359 33.2975 64.3136 32.5324L64.8144 30.27ZM65.2991 9.20793L60.6949 32.4511C60.4687 33.4765 60.291 34.7786 60.291 35.8366C60.291 39.8081 63.1182 41.3707 66.8823 41.3707C75.4768 41.3707 80.2102 33.1998 80.2102 26.5589C80.2102 22.7176 78.4332 18.7949 73.7482 18.7949C70.8726 18.7949 68.1262 20.3086 66.2199 23.2059H66.1392L68.9663 9.19165H65.2991V9.20793Z" fill="#343C44"/>
<path fill-rule="evenodd" clip-rule="evenodd" d="M91.7284 21.741C95.5733 21.741 96.7365 25.2568 96.7365 27.7634C96.7365 32.8092 93.457 38.4246 89.1274 38.4246C86.0256 38.4246 84.087 35.8855 84.087 32.3534C84.0709 27.4053 87.1242 21.741 91.7284 21.741ZM92.1323 18.7949C85.1856 18.7949 80.2744 25.3544 80.2744 32.4836C80.2744 37.3504 83.2793 41.3544 88.6428 41.3544C95.8641 41.3544 100.549 34.4368 100.549 27.7471C100.533 23.2222 97.9158 18.7949 92.1323 18.7949Z" fill="#343C44"/>
<path fill-rule="evenodd" clip-rule="evenodd" d="M103.813 40.8824L105.59 31.3768C106.527 26.331 109.354 22.4572 112.536 22.4572C112.94 22.4572 113.296 22.506 113.554 22.5386L114.265 18.8763C113.958 18.8275 113.554 18.7949 113.199 18.7949C110.323 18.7949 108.013 21.0248 106.64 23.9709H106.511C106.737 22.327 106.914 20.797 107.092 19.2832H103.861C103.635 21.2853 103.28 24.15 102.795 26.9495L100.178 40.8661H103.813V40.8824Z" fill="#343C44"/>
<path fill-rule="evenodd" clip-rule="evenodd" d="M126.22 30.2212C125.283 35.0879 121.874 38.3432 119.047 38.3432C115.897 38.3432 115.025 35.625 115.025 33.037C115.025 27.2751 119.015 21.7573 124.152 21.7573C125.703 21.7573 126.947 22.1642 127.642 22.7013L126.22 30.2212ZM130.162 9.20793L128.256 19.5599C127.319 19.1204 125.816 18.7949 124.443 18.7949C116.866 18.7949 111.212 25.8427 111.212 33.509C111.212 37.92 113.474 41.3544 117.625 41.3544C120.679 41.3544 123.377 39.6616 125.331 36.5853H125.412L124.831 40.8661H128.191C128.32 38.7664 128.676 36.2761 129.079 33.9973L133.764 9.19165H130.162V9.20793Z" fill="#343C44"/>
<path fill-rule="evenodd" clip-rule="evenodd" d="M146.01 24.4267C146.01 27.8122 141.487 28.626 135.687 28.5284C136.624 25.1428 139.225 21.7085 142.731 21.7085C144.669 21.6922 146.01 22.6851 146.01 24.4267ZM146.269 36.9109C144.944 37.6271 143.038 38.3758 140.517 38.3758C138.304 38.3758 136.575 37.4317 135.735 35.4785C135.251 34.3229 135.122 32.3046 135.299 31.3768C143.231 31.507 149.548 30.0421 149.548 24.3778C149.548 21.2527 147.335 18.7949 143.264 18.7949C136.365 18.7949 131.567 26.152 131.567 32.6627C131.567 37.4317 134.039 41.3544 139.71 41.3544C142.585 41.3544 145.202 40.5569 146.802 39.6617L146.269 36.9109Z" fill="#343C44"/>
<path fill-rule="evenodd" clip-rule="evenodd" d="M152.165 40.8824L153.942 31.3768C154.879 26.331 157.706 22.4572 160.889 22.4572C161.293 22.4572 161.648 22.506 161.907 22.5386L162.618 18.8763C162.311 18.8275 161.907 18.7949 161.551 18.7949C158.676 18.7949 156.365 21.0248 154.992 23.9709H154.863C155.089 22.327 155.267 20.797 155.445 19.2832H152.214C151.987 21.2853 151.632 24.15 151.147 26.9495L148.53 40.8661H152.165V40.8824Z" fill="#343C44"/>
<path fill-rule="evenodd" clip-rule="evenodd" d="M163.36 40.8825L169.337 9.20801H165.654L159.677 40.8825H163.36Z" fill="#343C44"/>
<path fill-rule="evenodd" clip-rule="evenodd" d="M181.502 24.4267C181.502 27.8122 176.979 28.626 171.179 28.5284C172.116 25.1428 174.717 21.7085 178.223 21.7085C180.177 21.6922 181.502 22.6851 181.502 24.4267ZM181.777 36.9109C180.452 37.6271 178.546 38.3758 176.026 38.3758C173.812 38.3758 172.084 37.4317 171.244 35.4785C170.759 34.3229 170.63 32.3046 170.807 31.3768C178.74 31.507 185.056 30.0421 185.056 24.3778C185.056 21.2527 182.843 18.7949 178.772 18.7949C171.858 18.7949 167.092 26.152 167.092 32.6627C167.092 37.4317 169.564 41.3544 175.234 41.3544C178.11 41.3544 180.727 40.5569 182.31 39.6617L181.777 36.9109Z" fill="#343C44"/>
<path fill-rule="evenodd" clip-rule="evenodd" d="M183.15 39.8571C184.12 40.6221 186.204 41.2895 188.514 41.322C193.037 41.322 196.656 38.7829 196.656 34.2254C196.656 31.8164 195.057 29.8958 192.666 28.5611C190.711 27.4868 189.693 26.5102 189.693 24.9477C189.693 23.0759 191.293 21.6923 193.506 21.6923C195.105 21.6923 196.478 22.2295 197.221 22.6689L198.239 19.8531C197.448 19.3159 195.719 18.7788 193.764 18.7788C189.241 18.7788 186.01 21.6761 186.01 25.4197C186.01 27.6496 187.383 29.5703 189.855 30.9538C192.116 32.2071 192.86 33.2325 192.86 34.9253C192.86 36.8459 191.26 38.4573 188.789 38.4573C187.011 38.4573 185.202 37.7412 184.184 37.1227L183.15 39.8571Z" fill="#343C44"/>
<path fill-rule="evenodd" clip-rule="evenodd" d="M196.736 39.8571C197.706 40.6221 199.79 41.2895 202.1 41.322C206.623 41.322 210.242 38.7829 210.242 34.2254C210.242 31.8164 208.643 29.8958 206.252 28.5611C204.297 27.4868 203.279 26.5102 203.279 24.9477C203.279 23.0759 204.879 21.6923 207.092 21.6923C208.691 21.6923 210.064 22.2295 210.807 22.6689L211.825 19.8531C211.034 19.3159 209.305 18.7788 207.35 18.7788C202.827 18.7788 199.596 21.6761 199.596 25.4197C199.596 27.6496 200.969 29.5703 203.441 30.9538C205.702 32.2071 206.446 33.2325 206.446 34.9253C206.446 36.8459 204.846 38.4573 202.374 38.4573C200.597 38.4573 198.788 37.7412 197.77 37.1227L196.736 39.8571Z" fill="#343C44"/>
<path fill-rule="evenodd" clip-rule="evenodd" d="M217.125 40.329L218.902 30.5142C219.661 26.1846 221.955 23.1571 224.12 23.1571C225.671 23.1571 226.155 24.3128 226.155 25.8265C226.155 26.5915 226.026 27.4379 225.897 28.3168L223.635 40.3128H229.79L231.6 30.4165C232.44 26.0055 234.572 23.1408 236.689 23.1408C238.142 23.1408 238.821 24.2151 238.821 25.7288C238.821 26.5752 238.692 27.5193 238.514 28.3657L236.349 40.3128H242.553L244.895 27.6007C245.073 26.4776 245.251 24.7522 245.251 23.857C245.251 20.1622 243.296 17.9648 239.984 17.9648C237.157 17.9648 234.443 19.2995 232.504 22.1154C232.327 20.1948 230.824 17.9648 227.367 17.9648C224.572 17.9648 221.923 19.2182 219.936 22.0177H219.855L220.259 18.4857H214.815C214.556 20.4552 214.201 22.8153 213.7 25.5823L211.002 40.2965H217.125V40.329Z" fill="#2A79BD"/>
<path fill-rule="evenodd" clip-rule="evenodd" d="M252.633 15.8001C254.668 15.8001 256.397 14.4654 256.397 12.1867C256.397 10.266 255.072 9.0127 253.166 9.0127C251.211 9.0127 249.499 10.4776 249.499 12.675C249.499 14.5468 250.775 15.8001 252.552 15.8001H252.633ZM250.856 40.3291L254.975 18.5183H248.594L244.475 40.3291H250.856Z" fill="#2A79BD"/>
<path fill-rule="evenodd" clip-rule="evenodd" d="M259.273 40.3291L261.083 30.6445C261.971 25.8266 264.411 23.1897 266.479 23.1897C268.11 23.1897 268.643 24.264 268.643 25.8266C268.643 26.6241 268.563 27.4705 268.417 28.2355L266.107 40.3291H272.521L274.912 27.6658C275.089 26.5916 275.267 24.9965 275.267 24.0036C275.267 20.2111 273.231 18.03 269.693 18.03C266.818 18.03 264.152 19.3159 262.117 22.1318H262.036L262.44 18.5183H256.818C256.511 20.4878 256.204 22.8479 255.622 25.615L252.876 40.3291H259.273Z" fill="#2A79BD"/>
<path fill-rule="evenodd" clip-rule="evenodd" d="M289.741 29.4889C288.901 33.6883 286.64 35.6415 284.782 35.6415C282.972 35.6415 281.809 34.1766 281.809 31.5398C281.809 27.3404 284.507 22.8805 288.368 22.8805C289.386 22.8805 290.355 23.1898 290.888 23.6456L289.741 29.4889ZM293.667 8.6547L291.761 18.5184C290.824 18.1603 289.677 17.9813 288.788 17.9813C280.598 17.9813 275.153 24.9802 275.153 32.5652C275.153 37.8714 278.158 40.8175 281.842 40.8175C284.41 40.8175 287.06 39.6944 288.966 36.7971H289.047L288.74 40.3129H294.588C294.669 37.7249 295.073 34.5998 295.606 31.8327L299.984 8.63843H293.667V8.6547Z" fill="#2A79BD"/>
<path d="M23.8126 48.4837C36.9639 48.4837 47.6252 37.7422 47.6252 24.4919C47.6252 11.2415 36.9639 0.5 23.8126 0.5C10.6613 0.5 0 11.2415 0 24.4919C0 37.7422 10.6613 48.4837 23.8126 48.4837Z" fill="url(#paint0_radial)"/>
<path d="M31.4536 25.7778L28.1257 23.8409L31.8737 21.6598C35.0562 18.9416 35.4439 16.614 31.4536 13.5214L16.5425 4.84595L16.5586 9.48481L27.4795 15.8327C29.6927 16.9558 29.4343 18.5509 27.5118 19.5113L24.1192 21.5133L16.5263 17.1023L16.5425 21.7412L20.1774 23.8571L16.3648 26.1196L16.3486 30.7422L24.1515 26.1847L27.4633 28.1054C29.6766 29.2284 29.4181 30.8236 27.4956 31.7839L16.3648 38.376L16.3486 42.9985L31.8575 33.9324C35.0562 31.1979 35.4439 28.8541 31.4536 25.7778Z" fill="white"/>
<defs>
<radialGradient id="paint0_radial" cx="0" cy="0" r="1" gradientUnits="userSpaceOnUse" gradientTransform="translate(13.7725 10.8455) scale(36.7307 37.0072)">
<stop stop-color="#0090D6"/>
<stop offset="0.0331" stop-color="#028CD3"/>
<stop offset="0.4751" stop-color="#1A5BB0"/>
<stop offset="0.8112" stop-color="#283C9A"/>
<stop offset="1" stop-color="#2E3192"/>
</radialGradient>
</defs>
</svg>
