<?xml version="1.0" standalone="no"?>
<!DOCTYPE svg PUBLIC "-//W3C//DTD SVG 20010904//EN"
 "http://www.w3.org/TR/2001/REC-SVG-20010904/DTD/svg10.dtd">
<svg version="1.0" xmlns="http://www.w3.org/2000/svg"
 width="576.000000pt" height="576.000000pt" viewBox="0 0 576.000000 576.000000"
 preserveAspectRatio="xMidYMid meet">
<metadata>
Created by potrace 1.16, written by Peter Selinger 2001-2019
</metadata>
<g transform="translate(0.000000,576.000000) scale(0.100000,-0.100000)"
fill="#000000" stroke="none">
<path d="M2695 5596 c-27 -14 -56 -26 -64 -28 -18 -4 -61 -39 -127 -104 -69
-68 -121 -107 -133 -100 -5 3 -18 -12 -28 -34 -22 -47 -38 -52 -29 -9 4 22 2
29 -7 26 -6 -2 -15 -20 -18 -40 -3 -20 -10 -42 -16 -49 -6 -7 -13 -22 -16 -33
-4 -17 -5 -16 -6 5 -1 20 -3 22 -11 10 -5 -8 -10 -23 -10 -33 0 -19 -27 -53
-36 -45 -2 3 -13 22 -23 44 l-19 39 -7 -58 c-4 -31 -5 -63 -1 -72 9 -24 -4
-17 -15 8 -7 17 -8 14 -4 -16 4 -21 9 -46 12 -54 5 -13 2 -15 -11 -10 -15 6
-17 4 -11 -10 4 -10 12 -38 18 -62 10 -38 9 -45 -8 -57 -17 -13 -22 -11 -42
13 l-24 28 16 -40 c9 -22 20 -44 26 -49 13 -14 11 -22 -7 -41 -14 -13 -19 -14
-25 -3 -16 24 -10 -27 11 -91 18 -59 18 -91 -1 -91 -21 0 -6 -51 31 -103 26
-36 36 -57 28 -59 -7 -3 0 -13 17 -24 17 -10 36 -27 43 -36 7 -10 19 -18 25
-18 7 0 30 -16 52 -35 28 -24 34 -32 19 -29 -41 10 -22 -28 29 -60 l50 -31
-34 -5 -34 -5 55 -17 c30 -10 74 -21 98 -24 23 -4 42 -10 42 -14 0 -5 -21 -16
-47 -25 -104 -36 -162 -75 -216 -146 -22 -30 -142 -250 -244 -452 -38 -74
-101 -165 -126 -181 -12 -8 -62 -28 -110 -45 -48 -17 -96 -35 -106 -41 -10 -5
-34 -11 -52 -14 -77 -9 -355 -149 -417 -209 -47 -45 -123 -180 -133 -237 -4
-19 -14 -73 -22 -120 -9 -47 -25 -155 -37 -240 -11 -85 -27 -180 -35 -211 -8
-31 -19 -96 -26 -145 -6 -49 -16 -97 -21 -108 -6 -10 -12 -74 -14 -141 -2 -68
-8 -144 -14 -170 -6 -26 -13 -92 -16 -148 -6 -119 -11 -150 -24 -142 -5 3 -11
1 -15 -5 -9 -15 -25 -12 -25 5 0 9 -7 18 -15 21 -8 4 -12 11 -8 17 3 6 1 7 -5
3 -7 -4 -20 -9 -29 -11 -10 -2 -27 -6 -38 -10 -13 -4 -15 -4 -8 2 9 6 6 12
-10 22 -20 13 -21 13 -9 -1 10 -12 10 -17 1 -20 -8 -3 -7 -9 5 -20 25 -26 14
-91 -13 -74 -22 14 -10 -7 24 -40 20 -19 41 -31 49 -28 12 5 13 9 3 19 -7 7
-15 9 -18 4 -3 -5 -13 -1 -22 9 -16 18 -16 20 3 37 17 16 20 16 20 2 0 -8 -6
-18 -12 -21 -7 -3 -3 -3 8 -1 17 4 24 -1 34 -25 7 -16 19 -30 27 -30 13 0 13
3 2 18 -12 15 -12 15 7 -1 20 -17 22 -17 28 -1 4 10 -1 25 -11 37 -18 19 -17
20 5 6 20 -12 22 -21 21 -82 l-2 -68 -23 22 c-32 30 -31 15 1 -19 26 -28 32
-66 15 -92 -7 -12 -12 -12 -22 -2 -9 9 -8 15 6 25 16 12 16 14 -2 31 -13 11
-22 14 -27 7 -3 -6 2 -11 12 -11 17 -1 17 -2 -1 -15 -19 -15 -19 -16 9 -45 16
-16 25 -33 21 -37 -4 -4 -18 6 -31 22 -13 17 -24 26 -25 21 0 -5 -9 -1 -20 9
-15 14 -20 15 -20 4 -1 -10 -5 -8 -16 6 -34 46 -94 103 -99 95 -3 -4 7 -18 21
-29 26 -20 26 -22 10 -40 -13 -14 -14 -21 -6 -26 7 -4 15 -2 19 4 4 6 15 9 24
5 9 -3 15 -10 12 -14 -3 -5 -1 -11 5 -15 5 -3 10 -11 10 -16 0 -6 -4 -7 -10
-4 -5 3 -12 -5 -16 -19 -3 -13 -12 -27 -20 -30 -8 -3 -14 -11 -14 -17 0 -8 7
-6 18 4 16 15 20 15 35 2 15 -14 16 -13 2 2 -12 14 -12 20 7 47 12 17 23 33
26 36 2 3 10 -4 18 -14 8 -11 14 -14 14 -7 0 7 5 9 10 6 6 -4 8 -10 5 -14 -2
-5 4 -16 14 -25 16 -15 19 -34 20 -161 1 -94 -2 -145 -9 -145 -5 0 -10 7 -10
15 0 12 -3 12 -18 -2 -10 -10 -15 -19 -10 -21 4 -2 4 -10 1 -18 -4 -12 -19
-14 -67 -10 -33 3 -53 3 -44 0 22 -7 12 -33 -10 -27 -14 3 -16 13 -13 50 2 30
0 43 -7 39 -6 -4 -15 2 -21 11 -6 10 -11 13 -11 8 0 -6 6 -17 13 -24 10 -11 9
-14 -1 -18 -6 -3 -10 -9 -6 -14 3 -5 0 -9 -5 -9 -6 0 -11 5 -11 11 0 8 -4 8
-12 1 -7 -5 -21 -7 -30 -3 -15 5 -14 11 12 50 42 62 37 75 -5 15 -19 -27 -35
-52 -35 -56 0 -5 -8 -8 -17 -8 -15 0 -15 -2 -4 -9 8 -5 20 -7 28 -4 7 3 13 0
13 -6 0 -8 -14 -10 -40 -7 -23 3 -40 1 -40 -5 0 -6 4 -8 9 -4 19 11 19 -12 1
-43 -23 -37 -24 -83 -2 -74 11 4 11 7 1 12 -9 6 -5 20 15 54 15 25 31 46 37
46 6 0 8 -4 5 -9 -3 -5 1 -12 10 -15 8 -3 13 -2 9 3 -11 19 8 41 35 41 32 0
50 -18 30 -30 -11 -7 36 -20 93 -25 23 -2 37 -23 29 -44 -5 -12 -7 -10 -12 8
-3 14 -11 26 -19 29 -10 3 -10 0 1 -17 11 -18 11 -23 -2 -31 -12 -8 -12 -10 3
-16 9 -3 17 -10 17 -16 0 -5 -5 -6 -12 -2 -7 4 -8 3 -4 -4 12 -19 33 -14 39 9
3 12 10 18 15 15 14 -8 3 -43 -15 -50 -8 -3 -12 -10 -9 -14 7 -12 106 -12 106
-1 0 5 -10 9 -22 9 -19 0 -20 2 -8 10 12 8 11 10 -7 10 -13 0 -23 5 -23 11 0
5 4 8 9 5 5 -4 11 -2 13 4 1 5 13 7 25 4 13 -4 20 -11 16 -20 -3 -8 -1 -14 5
-14 5 0 10 -12 9 -27 -1 -16 0 -133 1 -260 l2 -233 2005 0 c1208 0 2005 4
2005 9 0 5 -4 11 -9 13 -6 2 -7 22 -4 46 4 29 10 42 22 42 14 1 14 2 -2 11
-23 14 -11 31 16 24 12 -4 17 -3 11 2 -12 9 -14 53 -1 53 4 0 5 5 2 10 -12 19
-24 10 -19 -16 3 -16 1 -25 -6 -22 -6 2 -11 7 -11 11 1 4 1 18 1 32 0 24 0 24
43 11 23 -7 49 -15 57 -17 8 -2 17 -6 20 -9 7 -7 52 -36 94 -59 l34 -20 -16
30 c-9 16 -23 27 -29 24 -11 -4 -39 32 -36 45 1 3 -21 6 -48 6 -37 1 -56 7
-74 24 -13 12 -29 19 -35 15 -8 -5 -10 7 -8 42 2 35 7 47 17 45 11 -2 12 0 4
10 -6 7 -13 48 -15 91 -5 76 -5 77 19 77 15 0 22 4 18 11 -4 6 -13 8 -21 5
-19 -7 -22 0 -25 84 -2 41 -6 82 -10 90 -18 36 -48 250 -54 387 -2 51 -6 96
-8 100 -3 4 -8 44 -11 88 -5 73 -4 81 14 93 17 10 20 10 20 -5 0 -13 3 -14 11
-6 6 6 19 9 28 6 9 -4 13 -3 9 1 -3 4 -14 9 -25 11 -10 1 -17 8 -16 14 4 14
-10 14 -24 0 -13 -13 -33 -4 -33 14 0 7 4 6 10 -3 8 -13 11 -13 19 -1 6 9 19
12 36 9 14 -3 46 2 70 11 51 20 74 36 26 20 -17 -6 -43 -9 -56 -7 -13 3 -22 1
-19 -3 6 -10 -21 -11 -52 -3 -15 4 -21 13 -20 29 1 22 2 23 23 10 40 -27 37
-16 -7 24 l-43 39 74 -4 c41 -2 89 -8 108 -13 53 -16 25 2 -32 20 -39 13 -48
19 -34 24 9 4 17 12 17 18 0 5 -9 2 -21 -9 -20 -18 -21 -18 -31 0 -8 15 -12
16 -19 5 -7 -12 -15 -10 -45 6 -46 27 -80 107 -95 225 -5 46 -15 90 -21 97 -6
7 -8 13 -5 13 3 0 -1 23 -8 51 -8 28 -16 80 -20 117 -4 37 -15 132 -25 212
-11 80 -21 177 -24 217 -2 40 -6 76 -9 80 -3 4 -10 51 -16 103 -7 52 -22 137
-33 188 -25 108 -61 160 -132 187 -31 12 -49 27 -65 56 -22 39 -41 51 -41 26
0 -7 9 -18 21 -25 46 -29 7 -21 -57 11 -38 19 -87 40 -109 46 -52 16 -104 40
-135 61 -14 9 -56 29 -93 43 -69 26 -156 83 -157 102 0 9 69 70 149 133 22 17
23 21 10 40 -8 11 -43 41 -77 67 -54 41 -189 188 -271 295 -27 34 -150 119
-246 168 l-60 31 57 -1 c38 -2 62 2 70 11 11 12 10 13 -4 8 -10 -4 -18 -2 -18
3 0 6 3 11 8 11 4 1 23 3 42 5 41 4 111 34 105 44 -2 4 6 12 20 18 16 7 22 17
18 30 -3 12 4 24 20 35 14 9 35 31 48 48 l22 32 -26 -5 c-14 -3 -24 -1 -21 3
3 5 -2 9 -10 9 -9 0 -16 4 -16 8 0 10 56 63 90 85 13 10 21 17 17 17 -3 0 6
21 22 46 28 43 29 47 14 73 -15 25 -15 30 1 62 30 58 37 81 24 73 -8 -5 -9 -2
-5 11 4 9 3 23 -3 30 -7 9 -7 21 0 41 9 23 9 27 -1 17 -15 -15 -33 -17 -24 -3
3 6 1 10 -4 10 -15 0 -13 30 4 63 8 15 12 33 10 40 -3 7 -6 40 -8 74 -2 37
-10 70 -19 80 -8 10 -23 41 -32 68 -20 57 -48 85 -81 85 -25 0 -115 80 -115
103 0 17 -106 125 -139 141 -14 7 -46 18 -71 26 -25 7 -76 24 -115 37 -53 19
-104 27 -215 33 -80 5 -152 10 -160 10 -8 0 -37 -11 -65 -24z m-395 -3042 l0
-215 -27 3 -28 3 -3 213 -2 212 30 0 30 0 0 -216z m610 34 c41 -101 80 -198
87 -216 l14 -33 -33 3 c-30 3 -34 8 -57 66 l-24 63 -91 -3 -91 -3 -21 -60
c-18 -51 -25 -60 -48 -63 -16 -2 -26 2 -26 9 0 7 35 104 77 216 78 203 78 203
108 203 31 0 32 -2 105 -182z m341 2 l56 -175 58 178 58 177 44 0 43 0 -2
-212 -3 -213 -25 0 -25 0 -3 170 -4 170 -57 -170 c-53 -157 -59 -170 -83 -173
-25 -3 -28 3 -86 175 l-60 178 -1 -177 -1 -178 -25 0 -25 0 0 216 0 215 42 -3
42 -3 57 -175z m-881 -750 l0 -280 -205 0 -205 0 0 280 0 280 205 0 205 0 0
-280z m470 0 l0 -280 -205 0 -205 0 0 280 0 280 205 0 205 0 0 -280z m470 0
l0 -280 -205 0 -205 0 0 280 0 280 205 0 205 0 0 -280z m464 263 c4 -9 6 -135
6 -280 l-1 -263 -205 0 -204 0 0 280 0 280 199 0 c176 0 200 -2 205 -17z
m-2164 -963 l0 -190 105 0 105 0 0 -25 0 -25 -130 0 -129 0 -3 211 c-2 116 -1
213 1 215 2 2 15 4 28 4 l23 0 0 -190z m608 171 c86 -44 126 -142 102 -257
-38 -183 -289 -223 -374 -60 -24 48 -32 136 -17 194 14 50 63 109 106 128 45
20 139 17 183 -5z m502 0 c36 -18 80 -73 80 -97 0 -9 -11 -14 -28 -14 -20 0
-30 7 -40 28 -7 16 -24 34 -38 40 -35 17 -100 15 -135 -4 -81 -42 -93 -218
-20 -288 59 -56 180 -38 197 29 5 19 12 25 35 25 35 0 38 -20 10 -66 -40 -66
-154 -93 -237 -55 -148 67 -153 329 -9 401 52 26 138 27 185 1z m270 -89 l5
-102 105 105 c93 93 109 105 140 105 l35 0 -89 -89 c-62 -63 -86 -93 -80 -102
4 -8 45 -65 91 -126 l83 -113 -38 0 c-37 0 -40 3 -112 105 l-74 105 -33 -32
c-31 -30 -33 -35 -33 -105 l0 -73 -30 0 -30 0 0 208 c0 115 2 211 5 214 3 3
16 5 28 4 21 -1 22 -6 27 -104z m695 78 l0 -25 -122 -3 -123 -3 0 -59 0 -60
115 0 115 0 0 -30 0 -30 -115 0 -115 0 0 -70 0 -70 130 0 130 0 0 -25 0 -25
-160 0 -160 0 0 208 c0 115 3 212 7 216 4 3 72 5 152 4 l146 -3 0 -25z m387 7
c44 -19 85 -67 99 -120 17 -65 6 -160 -25 -207 -40 -61 -73 -74 -203 -78
l-113 -4 0 217 0 218 104 -6 c57 -3 119 -12 138 -20z"/>
<path d="M2082 2031 c-73 -34 -92 -120 -37 -171 13 -12 62 -33 112 -47 99 -28
123 -44 123 -84 0 -46 -43 -72 -112 -67 -61 4 -93 24 -109 66 -11 28 -59 32
-59 3 0 -29 43 -85 80 -103 48 -25 140 -24 189 2 71 35 91 129 38 177 -31 29
-53 39 -127 58 -81 21 -110 39 -110 69 0 78 177 88 196 11 5 -20 13 -25 36
-25 26 0 29 3 23 23 -20 66 -62 97 -142 103 -44 4 -68 0 -101 -15z"/>
<path d="M2470 1825 l0 -215 25 0 c24 0 24 1 27 103 l3 102 107 3 107 3 3
-103 c3 -102 3 -103 28 -103 l25 0 3 213 2 212 -30 0 -30 0 0 -85 0 -85 -110
0 -110 0 0 85 c0 84 0 85 -25 85 l-25 0 0 -215z"/>
<path d="M2952 1828 l3 -213 155 0 155 0 0 25 0 25 -130 3 -130 2 3 70 4 70
114 0 114 0 0 25 0 25 -115 0 -115 0 0 65 0 65 125 0 125 0 0 25 0 25 -155 0
-155 0 2 -212z"/>
<path d="M3402 1828 c3 -209 3 -211 25 -214 21 -4 22 0 25 89 l3 92 60 3 c84
3 116 -18 144 -95 12 -32 25 -64 29 -72 8 -14 62 -28 62 -16 0 24 -65 168 -81
179 -19 13 -19 14 15 34 76 45 65 173 -16 201 -17 6 -84 11 -150 11 l-118 0 2
-212z m258 142 c20 -20 26 -65 12 -86 -16 -24 -55 -34 -136 -34 l-86 0 0 70 0
70 95 0 c82 0 98 -3 115 -20z"/>
<path d="M2047 1262 c-61 -38 -88 -166 -49 -242 37 -74 129 -102 199 -59 86
54 96 208 18 286 -29 29 -39 33 -86 33 -33 0 -65 -7 -82 -18z"/>
<path d="M3882 1114 l3 -159 55 -3 c116 -7 168 33 177 137 6 69 -8 119 -43
152 -22 21 -37 24 -110 28 l-85 3 3 -158z"/>
</g>
</svg>
