<?xml version="1.0" encoding="utf-8"?>
<!-- Generator: Adobe Illustrator 24.1.2, SVG Export Plug-In . SVG Version: 6.00 Build 0)  -->
<svg version="1.1" id="Layer_1" xmlns="http://www.w3.org/2000/svg" xmlns:xlink="http://www.w3.org/1999/xlink" x="0px" y="0px"
	 viewBox="0 0 182 87" style="enable-background:new 0 0 182 87;" xml:space="preserve">
<style type="text/css">
	.st1{fill:#4d4d4d;}
</style>
<g class="st0">
	<path class="st1" d="M21.59,34.06H11.27c-0.19,0-0.27,0.19-0.27,0.27v3.04c0,0.19,0.19,0.27,0.27,0.27h2.69
		c0.19,0,0.27,0.19,0.27,0.27v17.89c0,0.19,0.19,0.27,0.27,0.27h3.41c0.19,0,0.27-0.19,0.27-0.27V38.01c0-0.19,0.19-0.27,0.27-0.27
		h3.15c0.19,0,0.27-0.19,0.27-0.27v-3.15C21.85,34.14,21.67,34.06,21.59,34.06z"/>
	<path class="st1" d="M44.2,45.29c-0.08-0.27-0.08-0.72,0-0.99l3.41-9.79c0.08-0.27-0.08-0.45-0.35-0.45h-3.23
		c-0.27,0-0.53,0.19-0.64,0.45l-1.52,5.47c-0.08,0.27-0.19,0.27-0.27,0l-1.63-5.47c-0.08-0.27-0.35-0.45-0.64-0.45h-3.2
		c-0.27,0-0.45,0.19-0.35,0.45l3.41,9.79c0.08,0.27,0.08,0.72,0,0.99l-3.49,10.32c-0.08,0.27,0.08,0.45,0.35,0.45h2.85
		c0.27,0,0.64-0.19,0.72-0.45l1.89-5.73c0.08-0.27,0.27-0.27,0.35,0l1.79,5.73c0.08,0.27,0.35,0.45,0.64,0.45h3.15
		c0.27,0,0.45-0.19,0.35-0.45L44.2,45.29z"/>
	<path class="st1" d="M33.64,56.06L33.64,56.06c-0.01,0-0.02,0-0.03,0H33.64z"/>
	<path class="st1" d="M33.61,52.54h-5.47c-0.08,0-0.19-0.08-0.19-0.19V46.7c0-0.08,0.08-0.19,0.19-0.19h3.95
		c0.08,0,0.19-0.08,0.19-0.19V43.1c0-0.08-0.08-0.19-0.19-0.19h-3.95c-0.08,0-0.19-0.08-0.19-0.19v-4.85c0-0.08,0.08-0.19,0.19-0.19
		h5.39c0.08,0,0.19-0.08,0.19-0.19v-3.33c0-0.08-0.08-0.19-0.19-0.19H24.2c-0.08,0-0.19,0.08-0.19,0.19v21.55
		c0,0.08,0.08,0.19,0.19,0.19h9.44v0.15c0.08-0.01,0.16-0.09,0.16-0.18v-3.15C33.8,52.65,33.72,52.54,33.61,52.54z"/>
	<path class="st1" d="M56.97,34.06h-4.21c-0.08,0-0.19,0.08-0.27,0.19l-3.68,21.55c0,0.08,0.08,0.19,0.19,0.19h3.33
		c0.08,0,0.19-0.08,0.27-0.19l0.72-3.87c0-0.08,0.08-0.19,0.27-0.19h2.67c0.08,0,0.19,0.08,0.27,0.19l0.64,3.87
		c0,0.08,0.08,0.19,0.27,0.19h3.49c0.08,0,0.19-0.08,0.19-0.19l-3.87-21.55C57.24,34.17,57.16,34.06,56.97,34.06z M55.69,48.09h-1.6
		c-0.08,0-0.19-0.08-0.19-0.19l0.99-5.73c0-0.08,0.08-0.08,0.08,0l0.91,5.73C55.88,47.98,55.8,48.09,55.69,48.09z"/>
	<path class="st1" d="M70.89,44.73c-1.79-1.63-2.61-2.43-3.68-3.87c-0.99-1.36-0.61-3.6,0.91-3.6c1.44,0,1.52,1.52,1.52,1.52v2.35
		c0,0,0,0.19,0.08,0.27c0.11,0.08,0.19,0.08,0.19,0.08h3.23c0,0,0.19,0,0.27-0.08c0-0.08,0-0.35,0-0.35l-0.08-3.04
		c0,0-0.53-4.32-5.12-4.32c-4.21,0-5.47,2.88-5.47,5.65c0,2.43,1.44,4.48,3.15,6.11c3.23,3.15,3.49,4.05,3.49,4.05
		c0.27,0.72,0.99,3.33-1.36,3.33c-1.36,0-1.71-1.17-1.71-1.17v-3.04c0,0,0-0.19-0.08-0.27c-0.11-0.08-0.19-0.08-0.19-0.08h-3.15
		c0,0-0.19,0-0.27,0.08c0,0.08,0,0.19,0,0.21c0,0.53,0.08,1.79,0.08,3.15c0,1.89,1.89,4.59,5.65,4.59c3.41,0,5.31-2.96,5.31-5.12
		C73.67,49.47,73.67,47.42,70.89,44.73z"/>
	<path class="st1" d="M164.17,44.73c-1.79-1.63-2.61-2.43-3.68-3.87c-0.99-1.36-0.61-3.6,0.91-3.6c1.36,0,1.44,1.52,1.44,1.52v2.35
		c0,0,0,0.19,0.08,0.27c0.11,0.08,0.19,0.08,0.19,0.08h3.23c0,0,0.19,0,0.27-0.08c0-0.08,0-0.35,0-0.35l-0.08-3.04
		c0,0-0.53-4.32-5.12-4.32c-4.21,0-5.47,2.88-5.47,5.65c0,2.43,1.44,4.48,3.15,6.11c3.23,3.15,3.49,4.05,3.49,4.05
		c0.27,0.72,0.99,3.33-1.36,3.33c-1.36,0-1.71-1.17-1.71-1.17v-3.04c0,0,0-0.19-0.08-0.27c-0.11-0.08-0.19-0.08-0.19-0.08h-3.15
		c0,0-0.19,0-0.27,0.08c-0.08,0.08-0.08,0.19,0.08,0.21c0,0.53,0.08,1.79,0.08,3.15c0,1.89,1.89,4.59,5.65,4.59
		c3.41,0,5.31-2.96,5.31-5.12C166.95,49.47,166.95,47.42,164.17,44.73z"/>
	<path class="st1" d="M138.41,45.29c-0.08-0.27-0.08-0.72,0-0.99l3.41-9.79c0.08-0.27-0.08-0.45-0.35-0.45h-3.15
		c-0.27,0-0.53,0.19-0.64,0.45l-1.52,5.47c-0.08,0.27-0.19,0.27-0.27,0l-1.63-5.47c-0.08-0.27-0.35-0.45-0.64-0.45
		c0,0-3.31,0-3.31,0c-0.27,0-0.45,0.19-0.35,0.45l3.41,9.79c0.08,0.27,0.08,0.72,0,0.99l-3.49,10.32c-0.08,0.27,0.08,0.45,0.35,0.45
		h2.88c0.27,0,0.64-0.19,0.72-0.45l1.89-5.73c0.08-0.27,0.27-0.27,0.35,0l1.79,5.73c0.08,0.27,0.35,0.45,0.64,0.45h3.15
		c0.27,0,0.45-0.19,0.35-0.45L138.41,45.29z"/>
	<path class="st1" d="M127.53,52.54h-5.47c-0.08,0-0.19-0.08-0.19-0.19V46.7c0-0.08,0.08-0.19,0.19-0.19h3.95
		c0.08,0,0.19-0.08,0.19-0.19V43.1c0-0.08-0.08-0.19-0.19-0.19h-3.95c-0.08,0-0.19-0.08-0.19-0.19v-4.85c0-0.08,0.08-0.19,0.19-0.19
		h5.39c0.08,0,0.19-0.08,0.19-0.19v-3.23c0-0.08-0.08-0.19-0.19-0.19h-9.33c-0.08,0-0.19,0.08-0.19,0.19v21.55
		c0,0.08,0.08,0.19,0.19,0.19h9.41v0.05c0.08,0,0.19-0.08,0.19-0.19v-3.15C127.72,52.65,127.64,52.54,127.53,52.54z"/>
	<path class="st1" d="M153.77,52.54h-5.47c-0.08,0-0.19-0.08-0.19-0.19V46.7c0-0.08,0.08-0.19,0.19-0.19h3.95
		c0.08,0,0.19-0.08,0.19-0.19V43.1c0-0.08-0.08-0.19-0.19-0.19h-3.95c-0.08,0-0.19-0.08-0.19-0.19v-4.85c0-0.08,0.08-0.19,0.19-0.19
		h5.39c0.08,0,0.19-0.08,0.19-0.19v-3.23c0-0.08-0.08-0.19-0.19-0.19h-9.33c-0.08,0-0.19,0.08-0.19,0.19v21.55
		c0,0.08,0.08,0.19,0.19,0.19h9.41v0.05c0.08,0,0.19-0.08,0.19-0.19v-3.15C153.96,52.65,153.88,52.54,153.77,52.54z"/>
	<path class="st1" d="M95.75,28.33c-8.43,0-15.17,6.83-15.17,15.17c0,8.43,6.83,15.17,15.17,15.17s15.17-6.83,15.17-15.17
		C111.03,35.15,104.2,28.33,95.75,28.33z M103.21,40.62l-1.25,3.33c0,0.08,0,0.27,0,0.35l1.25,3.23c0,0.08,0.08,0.19,0.19,0.27
		l0.08,0.08c0.08,0.08,0.08,0.08,0,0.08h-1.44c-0.08,0-0.19-0.08-0.27-0.19l-0.72-1.97c0-0.08-0.08-0.08-0.08,0l-0.72,1.97
		c0,0.08-0.19,0.19-0.27,0.19h-1.07c-0.08,0-0.19-0.08-0.08-0.19l1.25-3.49c0-0.08,0-0.27,0-0.35l-1.25-3.33
		c0-0.08,0-0.19,0.08-0.19h1.17c0.08,0,0.19,0.08,0.27,0.19l0.64,1.89c0,0.08,0.08,0.08,0.08,0l0.64-1.89
		c0-0.08,0.08-0.19,0.27-0.19h1.17C103.21,40.46,103.29,40.54,103.21,40.62z M89.93,33.26h11.84c0.19,0,0.35,0.19,0.35,0.35
		l-0.19,2.05c0,0.19-0.19,0.35-0.45,0.35h-3.95c-0.19,0-0.35,0.19-0.35,0.35v13.28c0,0.19,0.08,0.53,0.19,0.72l0.27,0.53
		c0.08,0.19,0,0.35-0.27,0.35h-3.41c-0.19,0-0.35-0.19-0.27-0.35l0.27-0.53c0.08-0.19,0.19-0.53,0.19-0.72V36.51
		c0-0.19-0.19-0.35-0.35-0.35h-3.68c-0.19,0-0.35-0.19-0.35-0.35l-0.08-2.05C89.56,33.45,89.75,33.26,89.93,33.26z M88.49,40.46
		h3.49c0,0,0.08,0,0.08,0.08v1.17c0,0,0,0.08-0.08,0.08H90.2c0,0-0.08,0-0.08,0.08v1.52c0,0,0,0.08,0.08,0.08h1.36
		c0,0,0.08,0,0.08,0.08v1.25c0,0,0,0.08-0.08,0.08H90.2c0,0-0.08,0-0.08,0.08v1.63c0,0,0,0.08,0.08,0.08h1.89c0,0,0.08,0,0.08,0.08
		v1.25c0,0,0,0.08-0.08,0.08h-3.41c0,0-0.08,0-0.08-0.08v-7.01v-0.08L88.49,40.46C88.39,40.54,88.39,40.46,88.49,40.46z
		 M107.93,42.25c0.35,2.24-0.08,4.67-1.07,6.83c-0.96,2.16-2.59,3.95-4.56,5.2c-1.97,1.25-4.21,1.89-6.56,1.89h-0.08
		c-2.35,0-4.67-0.64-6.56-1.89c-1.97-1.25-3.6-3.04-4.67-5.2c-1.07-2.16-1.44-4.59-1.07-6.83c0.19-1.17,0.45-2.24,0.99-3.33
		c0.27-0.53,0.53-1.07,0.8-1.52c0.19-0.19,0.08-0.53,0.08-0.91c-0.08-0.45-0.08-0.91,0.35-1.17s1.25,0,1.89,0.64
		c0.35,0.45,0.64,0.91,0.64,1.36c0,0.27-0.19,0.53-0.27,0.72c-0.91,1.25-1.52,2.88-1.71,4.48c-0.08,0.91-0.08,1.79,0.08,2.69
		c0.19,0.91,0.45,1.79,0.8,2.61c0.8,1.63,2.05,3.04,3.6,3.95c1.52,0.99,3.23,1.44,5.04,1.44h0.08c1.79,0,3.6-0.53,5.04-1.44
		c1.52-0.91,2.77-2.35,3.6-3.95c0.35-0.8,0.64-1.71,0.8-2.61c0.16-0.91,0.19-1.79,0.08-2.69c-0.19-1.71-0.8-3.23-1.71-4.48
		c-0.08-0.19-0.27-0.45-0.27-0.72c0-0.45,0.27-0.99,0.64-1.36c0.53-0.53,1.25-0.8,1.79-0.64c0.45,0.19,0.35,0.72,0.35,1.17
		c0,0.35-0.08,0.64,0.08,0.91c0.35,0.45,0.64,0.99,0.8,1.52C107.48,39.98,107.75,41.07,107.93,42.25z"/>
	<path class="st1" d="M95.75,26.27c-9.52,0-17.23,7.73-17.23,17.23c0,9.49,7.73,17.23,17.23,17.23c9.52,0,17.23-7.73,17.23-17.23
		C113.08,33.98,105.27,26.27,95.75,26.27z M95.75,59.58c-8.8,0-16.08-7.17-16.08-16.08c0-8.8,7.17-16.08,16.08-16.08
		c8.8,0,15.97,7.17,15.97,16.08C111.83,52.38,104.65,59.58,95.75,59.58z"/>
	<path class="st1" d="M170.04,35.77v-0.19c0-0.16-0.08-0.35-0.27-0.35c0.19-0.08,0.27-0.16,0.27-0.35c0-0.27-0.19-0.45-0.53-0.45
		h-0.72v1.52h0.27v-0.72h0.35c0.19,0,0.27,0.19,0.27,0.27v0.19c0,0.19,0.08,0.27,0.27,0.27v-0.03h0.19v-0.08
		C170.04,35.85,170.04,35.85,170.04,35.77z M169.37,35.05h-0.27v-0.45h0.35c0.11,0,0.19,0.11,0.19,0.19
		C169.64,34.97,169.56,35.07,169.37,35.05z"/>
	<path class="st1" d="M169.37,33.5c-0.91,0-1.63,0.72-1.63,1.63c0,0.91,0.72,1.63,1.63,1.63c0.91,0,1.63-0.72,1.63-1.63
		C171,34.22,170.28,33.5,169.37,33.5z M169.37,36.51c-0.83,0-1.36-0.64-1.36-1.36c0-0.72,0.56-1.36,1.36-1.36
		c0.83,0,1.36,0.64,1.36,1.36C170.73,35.87,170.2,36.51,169.37,36.51z"/>
</g>
</svg>
