<svg width="120" height="121" viewBox="0 0 120 121" fill="none" xmlns="http://www.w3.org/2000/svg">
<g clip-path="url(#clip0)">
<path d="M47.1502 84.6033C46.7558 84.6033 46.3614 84.4514 46.0883 84.1474L25.8506 63.8738C25.2438 63.2659 25.2438 62.3237 25.8506 61.7158C26.4575 61.1079 27.398 61.1079 28.0049 61.7158L47.1806 80.9255L92.0251 36.5486C92.6319 35.9711 93.5725 35.9711 94.1793 36.5486C94.7558 37.1565 94.7558 38.0988 94.1793 38.7067L48.2425 84.1778C47.9391 84.4817 47.5447 84.6033 47.1502 84.6033Z" fill="#2FB390"/>
<path d="M60.0152 120.499C58.1947 120.499 56.3439 120.408 54.5234 120.256C53.6738 120.165 53.067 119.435 53.158 118.615C53.2491 117.764 53.9772 117.156 54.7965 117.247C58.2554 117.551 61.8356 117.551 65.2946 117.247C66.1138 117.186 66.8723 117.794 66.933 118.615C67.024 119.435 66.3868 120.195 65.5676 120.256C63.7472 120.408 61.866 120.499 60.0152 120.499ZM44.0253 118.28C43.8736 118.28 43.7522 118.25 43.6005 118.22C40.0506 117.217 36.5917 115.879 33.2844 114.207C32.5259 113.843 32.2225 112.931 32.6169 112.171C32.981 111.411 33.8913 111.107 34.6498 111.502C37.775 113.052 41.0822 114.359 44.4501 115.302C45.2693 115.545 45.7244 116.366 45.4817 117.186C45.2996 117.825 44.6928 118.28 44.0253 118.28ZM76.0354 118.25C75.3679 118.25 74.7611 117.825 74.579 117.156C74.3363 116.335 74.8217 115.514 75.6106 115.271C78.9785 114.299 82.2857 113.022 85.4109 111.472C86.1694 111.107 87.0796 111.411 87.4437 112.141C87.8078 112.9 87.5044 113.812 86.7762 114.177C83.469 115.818 80.0101 117.186 76.4602 118.189C76.3085 118.25 76.1871 118.25 76.0354 118.25ZM24.7889 108.676C24.4855 108.676 24.1517 108.584 23.8786 108.372C20.9355 106.153 18.1745 103.63 15.6865 100.894C15.11 100.287 15.1707 99.3139 15.7775 98.7364C16.3843 98.1589 17.3552 98.2197 17.9317 98.8276C20.2984 101.411 22.9077 103.812 25.6991 105.91C26.3666 106.426 26.488 107.369 26.0025 108.037C25.6991 108.463 25.244 108.676 24.7889 108.676ZM95.2718 108.645C94.8167 108.645 94.3616 108.432 94.0582 108.037C93.5424 107.369 93.6941 106.426 94.3616 105.91C97.153 103.782 99.7623 101.411 102.129 98.7971C102.705 98.1892 103.646 98.1285 104.283 98.706C104.89 99.2835 104.951 100.226 104.374 100.864C101.886 103.6 99.1252 106.122 96.2124 108.341C95.909 108.554 95.5752 108.645 95.2718 108.645ZM10.2857 92.7789C9.76991 92.7789 9.28445 92.5358 8.98104 92.0494C7.03919 88.9187 5.37042 85.5753 4.0354 82.1406C3.73198 81.3503 4.12642 80.4689 4.88496 80.1649C5.67383 79.861 6.55373 80.2561 6.85714 81.016C8.13148 84.2683 9.70923 87.4598 11.5601 90.4385C12.0152 91.1376 11.7724 92.0798 11.0746 92.5358C10.8622 92.7181 10.5588 92.7789 10.2857 92.7789ZM109.745 92.7181C109.472 92.7181 109.198 92.6573 108.956 92.475C108.258 92.019 108.015 91.1072 108.47 90.3777C110.321 87.399 111.899 84.2075 113.173 80.9552C113.477 80.1649 114.357 79.7698 115.145 80.0737C115.934 80.3777 116.329 81.2592 116.025 82.0494C114.69 85.4841 113.021 88.8276 111.08 91.9886C110.746 92.475 110.26 92.7181 109.745 92.7181ZM2.51833 72.7181C1.79014 72.7181 1.15297 72.2014 1.03161 71.4719C0.333755 67.8549 0 64.1467 0 60.4385C0 59.5874 0.667509 58.9187 1.51707 58.9187C2.36662 58.9187 3.03413 59.5874 3.03413 60.4385C3.03413 63.9643 3.36789 67.4902 4.00506 70.9248C4.15676 71.7455 3.61062 72.5358 2.7914 72.6877C2.70038 72.7181 2.60936 72.7181 2.51833 72.7181ZM117.512 72.6573C117.421 72.6573 117.33 72.6573 117.239 72.6269C116.42 72.475 115.874 71.6847 116.025 70.864C116.662 67.4294 116.996 63.9035 116.996 60.3777V60.2561C116.996 59.4051 117.664 58.7364 118.513 58.7364C119.363 58.7364 120.03 59.4051 120.03 60.2561V60.4081C120.03 64.1163 119.697 67.8245 119.029 71.4415C118.877 72.1406 118.24 72.6573 117.512 72.6573ZM2.48799 51.1984C2.39697 51.1984 2.30594 51.1984 2.21492 51.168C1.3957 51.016 0.849557 50.2257 1.00126 49.4051C1.66877 45.7576 2.67004 42.171 4.00506 38.7364C4.30847 37.9461 5.18837 37.551 5.97724 37.8549C6.76612 38.1589 7.16056 39.0403 6.85714 39.8306C5.58281 43.1133 4.64222 46.5175 4.00506 49.9522C3.85335 50.6817 3.21618 51.1984 2.48799 51.1984ZM117.482 50.9856C116.753 50.9856 116.116 50.4689 115.995 49.7394C115.358 46.3048 114.387 42.9005 113.113 39.6178C112.809 38.8276 113.204 37.9461 113.962 37.6421C114.751 37.3382 115.631 37.7333 115.934 38.4932C117.269 41.9279 118.301 45.5145 118.968 49.1619C119.12 49.9826 118.574 50.7728 117.755 50.9248C117.664 50.9856 117.573 50.9856 117.482 50.9856ZM10.225 31.1072C9.95196 31.1072 9.67889 31.0464 9.43616 30.8944C8.73831 30.4385 8.49557 29.5266 8.9507 28.7972C10.8622 25.6665 13.1075 22.6877 15.5954 19.9522C16.1719 19.3443 17.1125 19.2835 17.7497 19.861C18.3565 20.4385 18.4172 21.3807 17.8407 22.019C15.5044 24.5722 13.3502 27.399 11.5297 30.3777C11.2263 30.864 10.7408 31.1072 10.225 31.1072ZM109.684 30.9552C109.168 30.9552 108.683 30.7121 108.41 30.2257C106.559 27.247 104.405 24.4203 102.038 21.8367C101.461 21.2288 101.522 20.2561 102.129 19.6786C102.736 19.1011 103.707 19.1619 104.283 19.7698C106.771 22.5054 109.016 25.4537 110.989 28.6148C111.444 29.3139 111.201 30.2561 110.503 30.712C110.23 30.864 109.957 30.9552 109.684 30.9552ZM24.6979 15.1801C24.2427 15.1801 23.7876 14.9674 23.4842 14.5722C22.9684 13.9035 23.1201 12.9613 23.7876 12.4446C26.7004 10.2257 29.8862 8.25004 33.1631 6.57831C33.9216 6.21357 34.8319 6.51752 35.196 7.24701C35.5601 8.00688 35.2566 8.91874 34.5284 9.28348C31.4033 10.864 28.3995 12.7181 25.6081 14.8458C25.335 15.089 25.0013 15.1801 24.6979 15.1801ZM95.1504 15.0586C94.847 15.0586 94.5133 14.9674 94.2402 14.7546C91.4488 12.6269 88.4147 10.7728 85.2895 9.22269C84.531 8.85795 84.2276 7.94609 84.5917 7.18621C84.9557 6.42634 85.866 6.12239 86.6245 6.48713C89.9317 8.12846 93.0872 10.1041 96.0303 12.323C96.6978 12.8397 96.8192 13.782 96.3338 14.4507C96.091 14.8458 95.6359 15.0586 95.1504 15.0586ZM43.9039 5.54488C43.2364 5.54488 42.6296 5.11935 42.4475 4.45065C42.2048 3.62998 42.6903 2.80932 43.4791 2.56615C47.0291 1.56312 50.67 0.864027 54.3717 0.529681C55.1909 0.438495 55.9494 1.07679 56.0101 1.89746C56.1011 2.71813 55.464 3.47801 54.6448 3.5388C51.1555 3.87315 47.6662 4.51144 44.3287 5.48409C44.177 5.54488 44.0556 5.54488 43.9039 5.54488ZM75.914 5.48409C75.7927 5.48409 75.641 5.45369 75.4893 5.4233C72.1214 4.48105 68.6625 3.84275 65.1429 3.5084C64.2933 3.44761 63.6865 2.68774 63.7775 1.86707C63.8382 1.016 64.5967 0.4081 65.4159 0.499285C69.0872 0.833632 72.7585 1.50232 76.3085 2.50536C77.1277 2.71813 77.5828 3.56919 77.3704 4.38986C77.1884 5.05856 76.5815 5.48409 75.914 5.48409Z" fill="#2FB390"/>
</g>
<defs>
<clipPath id="clip0">
<rect width="120" height="120" fill="white" transform="translate(0 0.5)"/>
</clipPath>
</defs>
</svg>
