<svg width="823" height="560" viewBox="0 0 823 560" fill="none" xmlns="http://www.w3.org/2000/svg">
<path d="M799.831 441.591H604.191C591.396 441.591 581.025 431.188 581.025 418.355V179.943C581.025 167.11 591.396 156.707 604.191 156.707H799.831C812.626 156.707 822.997 167.11 822.997 179.943V418.355C823 431.185 812.626 441.591 799.831 441.591Z" fill="#FFF9D9"/>
<path d="M709.93 324.769H690.74V328.333H709.93V324.769Z" fill="#BAB085"/>
<path d="M729.553 357.439H617.877V364.342H729.553V357.439Z" fill="#D3CCAB"/>
<path d="M708.184 390.577H617.877V397.479H708.184V390.577Z" fill="#D3CCAB"/>
<path d="M670.819 374.008H617.877V380.911H670.819V374.008Z" fill="#D3CCAB"/>
<path d="M758.766 185.115V188.601H779.23V207.866H782.706V185.115H758.766ZM619.798 207.866H623.274V188.601H643.738V185.115H619.798V207.866ZM779.23 307.269V326.541H758.766V330.027H782.706V307.269H779.23ZM623.274 307.269H619.798V330.027H643.738V326.541H623.274V307.269Z" fill="#BAB085"/>
<path d="M771.872 397.987C760.586 397.987 751.405 388.778 751.405 377.458C751.405 366.137 760.586 356.928 771.872 356.928C783.158 356.928 792.339 366.137 792.339 377.458C792.339 388.778 783.158 397.987 771.872 397.987ZM771.872 360.906C762.771 360.906 755.367 368.333 755.367 377.461C755.367 386.589 762.771 394.016 771.872 394.016C780.973 394.016 788.377 386.589 788.377 377.461C788.377 368.333 780.973 360.906 771.872 360.906Z" fill="#2FB390"/>
<path d="M770.568 385.537L761.27 376.214L764.068 373.403L770.568 379.919L779.672 370.784L782.474 373.594L770.568 385.537Z" fill="#2FB390"/>
<path d="M698.416 137.298C698.416 137.298 717.365 135.307 724.19 153.658C731.018 172.012 737.443 178.02 738.251 187.663C741.506 226.661 759.664 217.838 754.556 240.318C749.45 262.797 745.914 266.197 745.914 266.197L702.505 257.66L658.534 257.801C658.534 257.801 675.736 249.184 671.908 230.83C668.077 212.476 658.534 182.394 663.924 161.905C669.314 141.423 687.093 138.861 698.416 137.298Z" fill="#1E1E1E"/>
<path d="M751.002 296.887H650.01C638.174 296.887 630.146 284.796 634.721 273.846C638.033 265.914 640.641 260.236 641.744 259.082C646.014 254.614 667.035 240.627 684.676 235.039C702.308 229.458 712.337 234.854 712.337 234.854C712.337 234.854 745.073 244.063 758.997 259.15C761.045 261.369 763.67 267 766.482 274.323C770.659 285.196 762.621 296.887 751.002 296.887Z" fill="#EB4747"/>
<path d="M711.505 213.538C711.505 213.538 709.98 232.511 713.624 238.193C717.268 243.878 710.507 251.591 696.582 248.952C682.658 246.313 683.466 238.395 683.466 238.395C683.466 238.395 687.364 226.688 686.224 217.317C685.088 207.944 711.505 213.538 711.505 213.538Z" fill="#EEA886"/>
<path d="M720.559 237.521C720.559 237.521 707.999 266.018 691.729 272.168C691.729 272.168 674.389 258.349 678.706 237.184C678.706 237.184 700.712 227.007 720.559 237.521Z" fill="#EEA886"/>
<path d="M700.913 148.03C700.913 148.03 726.006 151.661 722.332 188.819C718.659 225.975 696.512 223.026 695.03 222.996C693.552 222.966 672.813 223.769 671.016 178.43C671.023 178.43 670.185 144.899 700.913 148.03Z" fill="#EEA886"/>
<path d="M698.044 161.495C698.044 161.495 709.769 173.858 715.216 180.118C720.663 186.379 721.29 198.472 721.29 198.472C721.29 198.472 730.465 187.233 726.627 174.144C722.792 161.055 713.711 135.586 690.733 143.413C667.755 151.237 666.904 185.669 669.599 202.742C669.595 202.742 679.913 165.052 698.044 161.495Z" fill="#1E1E1E"/>
<path d="M688.397 221.429C688.397 221.429 699.127 226.819 710.004 218.309C710.004 218.309 705.831 225.272 698.544 225.652C691.256 226.032 688.397 221.429 688.397 221.429Z" fill="#A77860"/>
<path d="M450.149 272.538H312.676C301.815 272.538 293.01 263.705 293.01 252.812V114.926C293.01 104.032 301.815 95.1998 312.676 95.1998H450.149C461.009 95.1998 469.815 104.032 469.815 114.926V252.815C469.812 263.709 461.009 272.538 450.149 272.538Z" fill="#F9D5CD"/>
<path d="M422.337 232.165H340.481V236.219H422.337V232.165Z" fill="#EFA89C"/>
<path d="M410.745 244.944H352.075V248.999H410.745V244.944Z" fill="#EFA89C"/>
<path opacity="0.95" d="M0 560C0 551.389 148.682 544.41 332.087 544.41C515.493 544.41 664.175 551.389 664.175 560H0Z" fill="#F8F4F4"/>
<path d="M600.909 146.87H503.345C494.415 146.87 487.178 139.611 487.178 130.654V45.7424C487.178 36.7855 494.415 29.5266 503.345 29.5266H600.909C609.838 29.5266 617.075 36.7855 617.075 45.7424V130.654C617.079 139.611 609.838 146.87 600.909 146.87Z" fill="#D3D5F4"/>
<path d="M556.789 124.676H546.485V126.589H556.789V124.676Z" fill="#2E3192"/>
<path d="M583.002 50.7621V52.6348H593.987V62.9769H595.854V50.7655H583.002V50.7621ZM508.403 62.9769H510.27V52.6348H521.255V50.7621H508.403V62.9769ZM593.99 116.338V126.683H583.006V128.556H595.857V116.338H593.99ZM510.267 116.338H508.4V128.556H521.252V126.683H510.267V116.338Z" fill="#2E3192"/>
<path d="M388.291 212.348H374.531V214.903H388.291V212.348Z" fill="#C68077"/>
<path d="M422.652 113.621V116.119H437.327V129.931H439.818V113.618H422.652V113.621ZM323.007 129.935H325.497V116.123H340.173V113.625H323.007V129.935ZM437.324 201.209V215.028H422.649V217.526H439.815V201.209H437.324ZM325.497 201.209H323.007V217.526H340.173V215.028H325.497V201.209Z" fill="#C68077"/>
<path d="M384.396 64.7925C384.396 64.7925 375.727 59.2146 367.91 69.1297C360.094 79.0447 362.906 88.5765 364.538 97.4795C366.157 106.309 374.038 126.508 370.689 135.408C367.341 144.308 371.621 148.941 371.621 148.941C371.621 148.941 398.501 155.843 395.367 115.292C392.236 74.7411 384.396 64.7925 384.396 64.7925Z" fill="#1E1E1E"/>
<path d="M400.764 154.673C400.764 154.673 408.634 175.593 416.069 195.09H423.755C429.909 195.09 434.301 189.112 432.484 183.215C430.992 178.37 429.879 174.574 429.681 173.501C429.024 169.87 428.723 159.108 424.593 151.56C420.457 144.012 410.612 141.026 410.612 141.026C394.368 141.763 400.764 154.673 400.764 154.673Z" fill="#70311E"/>
<path d="M350.199 175.099C350.199 175.099 353.34 185.357 356.376 195.09H422.187C422.465 194.236 422.807 193.335 423.219 192.38C428.036 181.191 430.379 171.662 428.036 165.308C425.693 158.953 412.342 141.551 408.892 140.862C405.45 140.172 395.538 135.475 395.538 135.475C389.059 134.507 379.851 134.988 376.68 136.097C373.515 137.2 355.874 138.996 349.404 144.035C341.956 149.842 350.199 175.099 350.199 175.099Z" fill="#EDDAD3"/>
<path d="M398.705 157.642L404.732 150.565L399.5 131.935C399.5 131.935 397.743 142.311 398.705 157.642Z" fill="#D6C5BE"/>
<path d="M400.271 123.997C400.271 123.997 398.293 142.244 398.705 148.181C398.705 148.181 388.401 158.537 376.683 136.091C376.683 136.091 381.613 126.838 377.903 114.233C374.192 101.628 400.271 123.997 400.271 123.997Z" fill="#EEA886"/>
<path d="M398.706 148.181V157.642L386.85 148.756L398.706 148.181Z" fill="#EEA886"/>
<path d="M398.706 157.642L393.785 151.53L377.199 134.951L371.836 140.135L398.706 157.642Z" fill="#D6C5BE"/>
<path d="M343.287 158.358C343.287 158.358 346.129 168.932 353.819 195.09H388.066C389.129 181.329 389.719 170.365 389.481 167.05C388.814 157.723 374.893 136.538 374.893 136.538C374.893 136.538 366.221 137.59 356.909 139.614C346.287 141.927 343.287 158.358 343.287 158.358Z" fill="#70311E"/>
<path d="M402.896 138.743C411.379 148.927 414.393 171.303 414.872 195.09H422.488C431.324 176.548 428.957 168.136 428.957 168.136C424.342 152.286 410.615 141.023 410.615 141.023L402.896 138.743Z" fill="#70311E"/>
<path d="M404.733 150.568L412.325 152.67L399.5 131.935L404.733 150.568Z" fill="#FAE6DE"/>
<path d="M393.785 151.53L386.85 160.648L372.681 136.834L377.199 134.951L393.785 151.53Z" fill="#FAE6DE"/>
<path d="M399.865 128.011L399.5 131.606C399.5 131.606 391.335 133.209 380.618 120.097C380.618 120.097 388.214 129.39 399.865 128.011Z" fill="#A77860"/>
<path d="M397.787 128.277C401.012 128.159 410.019 127.1 414.46 106.292C419.887 80.8703 407.894 67.6839 397.626 65.2396C387.356 62.7953 377.886 66.376 372.627 79.6633C372.627 79.6633 368.782 90.0222 375.02 108.48C381.258 126.935 394.331 128.405 397.787 128.277Z" fill="#EEA987"/>
<path d="M389.544 81.7311C389.544 81.7311 403.335 82.5918 416.156 101.907C416.156 101.907 422.156 78.6648 406.472 68.0571C390.788 57.4494 379.803 66.571 375.979 71.194C375.979 71.194 370.488 72.4582 370.317 82.9045C370.143 93.3474 363.144 109.109 378.506 116.583C378.506 116.583 377.041 104.661 378.396 101.934C379.75 99.2077 384.446 101.05 389.544 81.7311Z" fill="#1E1E1E"/>
<path d="M379.153 97.3047C378.459 95.4958 376.562 94.7696 375.52 96.7062C374.477 98.6462 375.717 106.161 378.503 106.984C381.282 107.805 380.561 100.966 379.153 97.3047Z" fill="#EEA987"/>
<path d="M341.684 195.09H352.421C354.777 189.297 356.97 184.163 358.435 180.471C363.288 168.216 382.613 145.175 370.301 137.489C370.301 137.489 354.164 136.497 346.076 145.938C337.98 155.386 338.423 166.596 336.365 171.467C335.497 173.518 334.163 178.414 332.828 183.652C331.357 189.452 335.721 195.09 341.684 195.09Z" fill="#70311E"/>
<path d="M441.214 367.949L372.746 368.469L372.793 374.76L441.261 374.239L441.214 367.949Z" fill="#323657"/>
<path d="M453.929 309.956L434.913 372.315L440.606 374.062L459.622 311.702L453.929 309.956Z" fill="#323657"/>
<path d="M571.133 382.434H565.79V538.233H571.133V382.434Z" fill="#706865"/>
<path d="M366.366 382.431L601.175 382.431V373.043H366.366V382.431Z" fill="#B59074"/>
<path d="M393.515 538.23H398.858V382.43H393.515V538.23Z" fill="#706865"/>
<path d="M370.747 361.581C370.747 361.581 374.286 362.298 375.983 362.351C377.675 362.405 385.509 358.841 388.016 359.181C390.524 359.52 406.871 366.487 407.612 366.995C408.353 367.502 407.264 368.622 407.264 368.622L369.734 369.069L370.747 361.581Z" fill="#EEA886"/>
<path d="M306.535 520.081L304.128 525.306C304.128 525.306 293.988 521.513 293.938 521.386C293.888 521.258 296.73 514.13 296.73 514.13L306.535 520.081Z" fill="#515269"/>
<path d="M393.383 519.97L396.188 528.194C396.188 528.194 385.06 530.652 383.444 530.524C383.3 530.514 381.339 521.211 381.339 521.211L393.383 519.97Z" fill="#6A6B8A"/>
<path d="M382.197 528.123C382.197 528.123 389.974 526.005 390.205 525.666C390.436 525.329 393.289 523.396 394.76 523.641C396.232 523.89 396.363 525.652 397.834 526.012C399.302 526.372 410.669 530.016 412.241 530.948C413.817 531.879 421.335 529.135 422.78 531.089C424.228 533.042 425.632 538.176 413.82 539.951C402.007 541.727 389.36 547.015 386.535 546.296C383.705 545.58 381.765 531.284 382.197 528.123Z" fill="#1E1E1E"/>
<path d="M293.137 519.994C293.137 519.994 300.344 523.08 300.723 522.962C301.102 522.845 304.44 523.097 305.413 524.173C306.385 525.252 305.426 526.678 306.331 527.841C307.236 529.004 312.375 535.826 313.876 537.399C315.107 538.687 321.851 539.891 324.016 542.157C325.649 543.865 323.731 550.7 312.254 547.436C301.078 544.255 287.241 538.741 285.518 536.482C283.795 534.222 290.908 522.142 293.137 519.994Z" fill="#1E1E1E"/>
<path d="M300.528 417.484C300.528 417.484 332.228 431.622 338.946 436.457C345.663 441.292 360.372 450.195 360.861 452.374C361.351 454.552 364.263 452.427 359.048 463.314C353.832 474.201 329.168 500.396 326.858 503.243C324.448 506.212 307.34 524.005 307.34 524.005L294.474 514.285C294.474 514.285 319.212 477.798 322.792 472.432C326.372 467.066 327.985 466.273 325.866 463.903C323.748 461.532 315.291 461.569 271.755 443.481C267.404 441.672 255.266 437.486 253.667 431.626C250.774 421.038 253.255 407.616 264.957 401.716C276.655 395.812 300.528 417.484 300.528 417.484Z" fill="#2E3192"/>
<path d="M315.602 315.126C315.324 315.372 315.022 315.913 314.707 316.653C314.251 317.715 313.769 319.198 313.303 320.832C311.865 325.875 310.561 332.347 310.561 332.347C310.561 332.347 292.416 317.184 294.981 316.232C297.545 315.281 299.442 310.85 299.442 310.85C299.442 310.85 317.516 313.425 315.602 315.126Z" fill="#EEA886"/>
<path d="M314.473 367.506C314.473 367.506 299.747 395.748 299.11 406.335C298.474 416.923 268.369 403.003 268.369 403.003L314.473 367.506Z" fill="#EDDCC5"/>
<path d="M299.168 405.656L299.506 408.289L300.032 411.762C300.032 411.762 300.032 411.762 300.026 411.762C299.573 411.732 270.628 409.909 268.533 410.444C266.422 410.985 272.519 403.599 272.519 403.599L299.168 405.656Z" fill="#323657"/>
<path d="M300.029 411.762C300.029 411.762 332.781 419.492 340.876 422.087C348.975 424.683 362.909 429.252 366.653 431.394C368.641 432.533 371.678 434.235 375.315 446.107C379.438 459.565 388.851 497.41 390.986 503.304C392.327 507.006 396.185 521.571 396.185 521.571L379.448 524.482C379.448 524.482 359.517 484.234 357.901 473.505C355.18 455.447 348.201 455.349 345.382 453.705C342.563 452.061 328.984 455.147 280.681 451.284C275.854 450.898 262.657 450.659 259.242 445.434C253.071 435.993 246.842 425.271 256.426 415.78C266.013 406.288 300.029 411.762 300.029 411.762Z" fill="#424AA8"/>
<path d="M321.998 277.11C321.998 277.11 327.666 286.928 326.376 289.601C325.085 292.274 332.295 298.749 331.112 300.121C329.929 301.493 327.488 303.154 327.529 303.554C327.569 303.954 325.434 316.75 322.652 317.036C319.869 317.322 300.853 316.333 299.278 310.366C297.699 304.401 293.063 291.332 291.971 288.905C290.878 286.477 301.839 267.733 321.998 277.11Z" fill="#EEA886"/>
<path d="M298.554 275.214C296.972 276.391 295.691 277.641 294.669 278.916C293.422 279.504 286.068 283.169 287.596 287.126C289.654 292.455 297.967 306.728 298.668 308.22C298.762 308.419 298.762 308.042 298.695 307.242C299.208 302.202 305.392 296.554 305.392 296.554L308.691 295.058C306.968 291.847 307.648 288.844 307.648 288.844C311.382 284.83 323.795 280.503 323.795 280.503C322.032 262.747 306.874 269.024 298.554 275.214Z" fill="#1E1E1E"/>
<path d="M304.172 292.378C303.294 291.033 298.665 291.255 299.339 295.216C300.012 299.176 305.694 302.357 306.931 300.588C308.171 298.823 305.107 293.81 304.172 292.378Z" fill="#EEA886"/>
<path d="M294.981 316.233C294.981 316.233 271.999 329.664 266.814 353.119C261.628 376.573 252.249 417.763 252.085 422.639C252.085 422.639 283.185 407.626 300.029 411.759C300.029 411.759 310.635 373.537 316.216 364.51C321.793 355.483 313.504 334.261 313.504 334.261C313.504 334.261 305.573 321.528 294.981 316.233Z" fill="#1C94D2"/>
<path d="M314.707 316.656C314.252 317.719 313.769 319.201 313.303 320.835C310.588 319.702 305.406 314.908 305.248 314.76C307.41 315.597 314.707 316.656 314.707 316.656Z" fill="#A77860"/>
<path d="M303.927 328.451C303.927 328.451 306.354 331.241 309.736 337.132C313.571 343.809 316.682 350.409 317.513 351.892C319.206 354.908 325.176 358.011 327.841 359.161C330.291 360.216 372.57 361.114 373.086 361.067C373.606 361.02 372.473 373.947 372.473 373.947C372.473 373.947 314.111 375.622 311.563 373.285C309.016 370.952 301.651 362.133 298.554 357.755C295.608 353.586 291.089 346.744 288.692 343.796C286.014 340.501 280.39 329.221 287.539 323.596C296.68 316.407 301.728 325.149 303.927 328.451Z" fill="#1C94D2"/>
<path d="M291.585 347.679C291.585 347.679 296.087 361.424 300.029 367.502C303.971 373.581 309.948 379.616 309.948 379.616L312.133 373.205C312.137 373.208 295.507 353.166 291.585 347.679Z" fill="#107EA0"/>
<path d="M218.079 543.344L219.474 547.284L278.452 528.954L275.627 520.979L218.079 543.344Z" fill="#918783"/>
<path d="M280.477 461.828H273.772V526.146H280.477V461.828Z" fill="#918783"/>
<path d="M296.895 458.412H257.354V462.201H296.895V458.412Z" fill="#5E5854"/>
<path d="M336.69 543.344L335.295 547.284L276.313 528.954L278.905 520.478L336.69 543.344Z" fill="#918783"/>
<path d="M295.135 546.861V551.443L276.313 528.954L278.905 520.478L295.135 546.861Z" fill="#918783"/>
<path d="M342.201 548.824C342.201 551.877 339.734 554.352 336.69 554.352C333.646 554.352 331.179 551.877 331.179 548.824C331.179 545.771 333.646 543.297 336.69 543.297C339.734 543.294 342.201 545.768 342.201 548.824Z" fill="#BFB2AC"/>
<path d="M295.604 548.824C295.604 551.877 293.137 554.352 290.094 554.352C287.05 554.352 284.583 551.877 284.583 548.824C284.583 545.771 287.05 543.297 290.094 543.297C293.134 543.294 295.604 545.768 295.604 548.824Z" fill="#BFB2AC"/>
<path d="M223.59 548.824C223.59 551.877 221.123 554.352 218.079 554.352C215.035 554.352 212.568 551.877 212.568 548.824C212.568 545.771 215.035 543.297 218.079 543.297C221.123 543.294 223.59 545.768 223.59 548.824Z" fill="#BFB2AC"/>
<path d="M317.154 458.412H237.614C233.713 458.412 230.548 455.238 230.548 451.325V451.143C230.548 447.229 233.713 444.056 237.614 444.056H317.154C321.056 444.056 324.22 447.229 324.22 451.143V451.325C324.22 455.238 321.056 458.412 317.154 458.412Z" fill="#E2D2CA"/>
<path d="M248.981 434.003H220.901C214.144 434.003 208.667 428.509 208.667 421.731V356.538C208.667 349.76 214.144 344.266 220.901 344.266H248.981C255.739 344.266 261.216 349.76 261.216 356.538V421.731C261.219 428.505 255.739 434.003 248.981 434.003Z" fill="#E2D2CA"/>
<path d="M261.816 454.838C252.293 454.838 244.57 451.63 238.855 445.303C225.943 431.004 228.262 405.865 228.366 404.802C228.564 402.822 230.324 401.373 232.298 401.571C234.272 401.766 235.714 403.531 235.519 405.512C235.493 405.797 233.434 428.583 244.194 440.478C248.549 445.289 254.311 447.63 261.813 447.63C263.797 447.63 265.406 449.243 265.406 451.234C265.409 453.224 263.8 454.838 261.816 454.838Z" fill="#E2D2CA"/>
<path d="M447.842 227.878C447.842 227.878 458.907 233.308 456.172 248.078C453.437 262.848 452.227 264.838 455.287 270.608C458.348 276.377 461.958 300.998 459.206 305.665C456.45 310.332 425.112 285.159 420.768 264.041C416.424 242.92 423.523 233.53 426.031 230.03C428.538 226.526 438.071 222.905 447.842 227.878Z" fill="#1E1E1E"/>
<path d="M450.906 281.195C450.906 281.195 456.538 282.345 459.702 287.015C461.901 290.263 462.082 297.482 462.397 298.84C462.715 300.198 466.915 315.58 466.915 315.58L455.18 323.468L450.906 281.195Z" fill="#1EA3D8"/>
<path d="M494.254 544.211C494.254 544.211 501.91 554.55 500.861 556.191C499.812 557.828 491.76 558.063 486.856 556.191C481.956 554.318 481.838 542.201 479.623 536.996C478.694 534.817 480.682 528.382 483.474 527.915C486.266 527.448 489.303 528.819 489.303 528.819C489.303 528.819 486.407 536.152 494.254 544.211Z" fill="#1E1E1E"/>
<path d="M489.357 528.735C489.357 528.735 490.969 533.136 491.556 537.342C492.045 540.829 497.009 548.232 496.778 549.167C496.543 550.105 490.242 550.952 487.677 548.538C485.11 546.124 483.457 539.104 482.894 534.905C482.368 530.995 481.704 529.061 481.704 529.061C481.704 529.061 486.906 526.16 489.357 528.735Z" fill="#EEA886"/>
<path d="M427.61 544.383C427.61 544.383 434.991 554.55 433.938 556.187C432.889 557.825 424.838 558.06 419.934 556.187C415.033 554.315 414.916 542.197 412.7 536.993C411.771 534.814 413.759 528.379 416.551 527.911C419.344 527.444 422.618 528.913 422.618 528.913C422.618 528.913 419.763 536.324 427.61 544.383Z" fill="#1E1E1E"/>
<path d="M422.622 528.917C422.622 528.917 423.205 533.715 424.14 537.11C425.072 540.506 430.09 548.229 429.859 549.167C429.624 550.105 423.323 550.952 420.758 548.538C418.191 546.124 416.206 539.134 415.975 534.905C415.74 530.675 416.558 527.915 416.558 527.915C416.558 527.915 420.172 526.341 422.622 528.917Z" fill="#EEA886"/>
<path d="M459.504 360.596C459.504 360.596 466.074 391.253 467.582 398.972C469.091 406.692 473.318 444.076 473.77 450.43C474.223 456.785 480.625 480.737 480.323 483.01C480.022 485.279 489.816 530.884 489.816 530.884C489.816 530.884 486.471 533.583 482.945 531.129C481.131 529.865 461.455 488.433 461.455 477.082C461.455 461.391 449.887 440.909 448.395 437.398C434.528 404.789 437.26 394.817 435.45 392.698C433.64 390.58 433.482 394.006 432.426 398.7C431.37 403.39 429.108 443.955 427.75 449.099C426.393 454.243 427.445 471.649 426.691 480.428C425.937 489.206 422.625 528.913 422.625 528.913C422.625 528.913 420.061 532.945 416.461 529.018C415.686 528.174 410.246 484.785 410.095 474.342C409.944 463.899 409.783 449.496 409.492 444.98C406.696 401.706 399.825 395.523 410.648 364.897C430.904 307.555 459.504 360.596 459.504 360.596Z" fill="#EEA886"/>
<path d="M415.382 352.03C415.382 352.03 396.664 378.305 404.722 434.201C404.722 434.201 449.12 440.256 472.905 427.194C472.905 427.194 463.071 369.563 459.507 360.596C455.941 351.629 415.382 352.03 415.382 352.03Z" fill="#141954"/>
<path d="M479.418 536.085V546.908H480.82V538.543L479.418 536.085Z" fill="#424AA8"/>
<path d="M412.499 536.085V546.908H413.9V538.543L412.499 536.085Z" fill="#424AA8"/>
<path d="M440.501 277.362C440.501 277.362 447.396 280.627 449.793 281.108C452.186 281.589 461.478 293.692 463.107 298.11C464.736 302.528 463.107 309.158 459.755 316.938C456.403 324.719 459.564 327.314 458.032 335.094C456.5 342.874 455.16 359.352 455.448 363.673C455.736 367.996 416.709 368.813 407.802 360.932C407.802 360.932 416.756 347.484 417.905 345.564C419.055 343.644 418.096 333.171 417.044 330.481C415.991 327.792 408.979 304.915 408.979 304.915C408.979 304.915 403.244 287.348 408.426 283.31C412.928 279.803 425.196 278.553 427.398 277.786C429.59 277.026 436 276.69 440.501 277.362Z" fill="#EDDAD3"/>
<path d="M442.704 292.781L446.894 287.859L443.253 274.901C443.257 274.901 442.033 282.12 442.704 292.781Z" fill="#D6C5BE"/>
<path d="M443.793 269.381C443.793 269.381 443.605 271.115 443.381 273.513C443.283 274.575 443.18 275.769 443.079 276.999C442.797 280.493 442.569 284.275 442.704 286.198C442.704 286.198 435.537 293.403 427.388 277.793C427.388 277.793 430.817 271.358 428.236 262.589C425.655 253.827 443.793 269.381 443.793 269.381Z" fill="#EEA886"/>
<path d="M442.703 286.201V292.781L434.458 286.602L442.703 286.201Z" fill="#EEA886"/>
<path d="M442.704 292.781L439.281 288.532L427.747 277.003L424.016 280.604L442.704 292.781Z" fill="#D6C5BE"/>
<path d="M426.145 278.105C426.145 278.105 435.822 292.839 436.284 299.324C436.747 305.81 432.688 354.316 429.436 369.906C426.185 385.497 402.697 368.148 402.697 368.148C402.697 368.148 418.482 342.521 412.421 322.002C406.361 301.483 404.162 293.279 404.162 293.279C404.162 293.279 406.247 281.851 413.635 280.244C420.114 278.835 426.145 278.105 426.145 278.105Z" fill="#1EA3D8"/>
<path d="M463.741 300.081C463.741 300.081 465.488 306.277 458.686 319.971C458.686 319.971 458.794 337.498 458.985 342.975C459.176 348.452 463.037 368.141 463.037 368.141L453.745 373.104C452.391 373.9 450.712 372.798 450.903 371.231C452.807 355.472 459.005 295.7 445.62 279.635L450.99 281.222C450.99 281.226 460.533 289.059 463.741 300.081Z" fill="#1EA3D8"/>
<path d="M446.894 287.859L452.173 289.325L443.257 274.901L446.894 287.859Z" fill="#FAE6DE"/>
<path d="M439.281 288.532L434.458 294.873L424.556 278.317L427.988 276.371L439.281 288.532Z" fill="#FAE6DE"/>
<path d="M447.622 313.11L446.253 314.197L459.067 330.437L460.437 329.35L447.622 313.11Z" fill="#EB4747"/>
<path d="M445.469 328.575C445.469 328.575 446.693 328.599 447.497 327.99C448.888 326.938 449.388 324.352 451.841 324.54C454.295 324.729 455.431 332.445 454.818 333.904C454.204 335.363 450.799 336.096 445.764 335.087C440.729 334.082 445.469 328.575 445.469 328.575Z" fill="#EEA886"/>
<path d="M451 324.591C451 324.591 454.526 323.384 458.596 322.503C462.166 321.73 466.433 321.474 466.848 322.096C467.311 322.789 463.369 323.384 459.873 324.382C456.652 325.3 457.419 325.636 457.419 325.636C457.419 325.636 457.208 325.529 460.885 325.183C464.837 324.813 468.91 324.819 469.312 325.613C469.507 326 469.372 326.258 467.948 326.622C468.803 326.581 468.923 326.803 468.957 327.149C469.124 328.935 463.359 330.357 461.069 330.922C462.829 330.498 464.16 330.37 463.527 331.567C462.802 332.936 454.573 334.593 451.67 335.457C448.499 336.402 451 324.591 451 324.591Z" fill="#EEA886"/>
<path d="M415.003 280.509C412.576 279.723 405.459 282.254 404.256 289.574C403.053 296.897 402.57 305.023 401.447 308.963C400.324 312.907 397.462 330.374 399.868 331.823C402.275 333.272 406.83 334.593 413.223 334.593C419.823 334.593 445.419 335.746 445.419 335.746L447.024 326.625C447.024 326.625 437.304 326.121 432.265 325.357C427.784 324.675 421.569 322.762 414.252 321.958C414.252 321.958 415.804 311.139 416.927 308.079C418.053 305.023 425.91 284.05 415.003 280.509Z" fill="#1C94D2"/>
<path d="M447.715 342.625L473.495 337.495L492.618 296.459L465.098 299.358L447.715 342.625Z" fill="white"/>
<path d="M476.71 330.532C476.71 330.532 478.124 329.217 479.381 327.375C480.642 325.532 484.758 318.495 484.382 318.055C484.007 317.614 477.89 317.463 476.78 318.465C475.671 319.467 477.873 319.857 477.873 319.857C477.873 319.857 474.528 320.203 474.769 321.148C475.007 322.096 477.021 321.834 477.021 321.834C477.021 321.834 474.33 322.352 474.739 323.182C475.148 324.013 476.442 324.006 476.442 324.006C476.442 324.006 474.055 324.305 474.35 325.213C474.645 326.121 478.419 326.978 477.913 327.731C477.41 328.488 476.71 330.532 476.71 330.532Z" fill="#EEA886"/>
<path d="M446.237 229.515C446.237 229.515 462.303 234.579 453.581 262.391C444.859 290.203 422.917 259.166 425.209 242.224C427.509 225.279 446.237 229.515 446.237 229.515Z" fill="#EEA987"/>
<path d="M455.224 245.741C455.224 245.741 447.239 253.598 433.878 254.58C433.878 254.58 428.743 260.619 428.347 262.989C428.347 262.989 416.427 242.608 431.079 230.389C445.738 218.178 460.61 240.708 455.224 245.741Z" fill="#1E1E1E"/>
<path d="M434.042 255.135C433.938 253.111 432.694 248.505 429.698 249.793C426.698 251.084 429.882 260.461 431.87 259.886C431.866 259.889 434.287 259.926 434.042 255.135Z" fill="#EEA987"/>
<path d="M443.381 273.513C443.283 274.575 443.179 275.769 443.079 276.999H443.076C433.787 272.4 432.362 265.766 432.322 265.558C438.942 274.138 443.381 273.513 443.381 273.513Z" fill="#A77860"/>
<path d="M584.199 108.77H578.397C578.189 107.482 578.005 106.181 577.844 104.896C577.844 104.89 577.844 104.886 577.844 104.886C576.855 97.0625 576.607 89.9213 576.607 89.9213C576.607 89.9213 572.239 69.8693 584.856 68.6354C584.856 68.6354 588.235 69.6978 588.436 71.0898C589.197 76.4491 590.937 88.0351 591.014 90.7786C591.037 91.6192 591.517 95.3444 592.107 99.6985C592.754 104.493 589.03 108.77 584.199 108.77Z" fill="#323657"/>
<path d="M585.228 69.0557C585.044 74.5494 584.719 80.4366 584.256 86.7373C584.256 86.7373 583.626 97.0121 583.411 108.77H530.238C529.002 102.98 527.62 97.8526 527.446 97.2105C527.446 97.2037 527.439 97.1937 527.439 97.1903C527.439 97.1836 527.439 97.1735 527.433 97.1735C527.433 97.1533 527.433 97.1466 527.433 97.1466C527.433 97.1466 526.239 102.923 525.284 108.773H512.402C513.998 95.9295 517.896 67.4519 519.958 65.9692C521.714 64.7084 532.729 60.2804 538.447 58.1017C541.089 57.0897 543.1 56.387 543.512 56.3601C544.82 56.2794 560.939 57.8294 560.939 57.8294C560.939 57.8294 563.249 58.6228 565.609 59.7122C569.645 61.5681 575.923 64.4663 580.431 66.6214C581.893 67.3174 583.716 68.2588 585.228 69.0557Z" fill="#D8D5E0"/>
<path d="M543.6 56.3264C544.783 67.2199 556.843 67.2199 556.843 67.2199C556.843 67.2199 561.834 62.839 561.677 59.5978C561.673 59.5272 561.67 59.4533 561.66 59.386C561.586 58.7876 560.913 58.0479 560.842 56.8509C560.832 56.6896 560.829 56.5214 560.825 56.3567C560.822 56.1953 560.822 56.0339 560.822 55.8725C560.825 55.0455 560.872 54.2284 560.923 53.6602C560.939 53.4619 560.956 53.2904 560.97 53.1559C560.99 52.9542 561.003 52.8399 561.003 52.8399C561.003 52.8399 559.059 50.7856 556.589 48.3379C552.271 44.0579 546.335 38.5708 546.325 40.7529C546.325 40.8672 546.342 41.0084 546.375 41.1664C547.418 46.0752 543.6 56.3264 543.6 56.3264Z" fill="#EEA886"/>
<path d="M551.825 62.7382L556.847 67.2199C556.847 67.2199 551.051 66.8333 549.968 65.865L551.825 62.7382Z" fill="#B4B1BA"/>
<path d="M580.435 66.6215C577.388 65.169 573.52 63.3669 570.09 61.7799C568.458 61.0167 566.916 60.3107 565.609 59.7122L563.541 58.8246C563.654 59.1036 567.412 68.1714 570.251 88.0587C570.979 93.149 572.112 100.532 573.225 108.77H583.81C584.39 97.0727 584.678 86.9458 584.678 86.9458C585.151 80.5375 585.423 74.5427 585.6 68.9615C584.058 68.2992 582.057 67.3914 580.435 66.6215Z" fill="#323657"/>
<path d="M552.439 108.77H529.387C528.904 104.711 528.385 101.148 527.906 99.49C527.906 99.49 526.903 103.609 525.985 108.77H519.861C515.077 108.77 511.37 104.577 511.943 99.8162C513.666 85.4899 516.133 67.4586 517.726 66.3155C519.21 65.2497 530.222 61.3327 535.619 59.2011C536.607 58.8111 537.566 58.4413 538.451 58.1017C539.594 59.3793 551.745 81.9227 552.694 100.247C552.801 102.351 552.684 105.344 552.439 108.77Z" fill="#323657"/>
<path d="M562.33 63.5316C562.33 63.5316 562.76 69.718 557.544 69.8626C552.328 70.0072 548.185 64.9807 548.185 64.9807L556.843 67.2199L562.113 62.7382L562.33 63.5316Z" fill="#D8D5E0"/>
<path d="M544.297 54.289C544.297 54.289 549.241 60.6536 551.822 62.7381L547.592 69.8592L540.294 57.4057L544.297 54.289Z" fill="#EAE6F2"/>
<path d="M561.308 63.9081L556.843 67.2199C556.843 67.2199 560.765 60.045 560.842 56.8543L561.308 63.9081Z" fill="#B4B1BA"/>
<path d="M560.842 56.8543L563.708 58.8851L566.903 68.4404L561.308 63.9082L560.842 56.8543Z" fill="#EAE6F2"/>
<path d="M575.045 24.9642C575.045 24.9642 578.192 32.6501 576.138 33.5747C574.438 34.3413 577.167 41.8423 577.502 43.0594C577.834 44.2731 574.391 44.7674 573.597 45.4432C572.806 46.1189 569.725 55.1296 566.933 55.1161C564.141 55.1027 552.141 49.4441 549.12 45.5507C546.1 41.6573 544.991 25.3878 547.961 18.8887C550.927 12.3896 569.474 11.5323 575.045 24.9642Z" fill="#EEA886"/>
<path d="M575.658 26.6217C575.658 26.6217 580.475 19.1879 573.835 12.598C567.194 6.00819 552.75 14.8238 551.205 15.0524C549.657 15.2844 540.586 17.2278 543.603 31.0732C546.288 43.4023 546.546 43.725 546.546 43.725C546.546 43.725 550.149 37.2058 551.835 36.2307C554.47 34.7043 559.793 35.6995 559.793 35.6995C559.793 35.6995 557.949 28.6188 562.049 28.0741C566.145 27.5328 571.773 24.6918 575.658 26.6217Z" fill="#1E1E1E"/>
<path d="M555.942 31.3523C555.687 30.3806 554.97 26.2451 551.286 28.2423C547.602 30.2394 552.385 38.396 552.975 38.554C553.565 38.7121 558.087 39.5257 555.942 31.3523Z" fill="#EEA886"/>
<path d="M549.593 46.1055C549.677 46.3139 552.415 52.9912 560.825 56.3601C560.822 56.1987 560.822 56.0373 560.822 55.8759C560.825 55.0488 560.872 54.2318 560.923 53.6636C560.939 53.4653 560.956 53.2938 560.97 53.1593C560.966 53.1559 551.932 48.8994 549.593 46.1055Z" fill="#A77860"/>
<path d="M187.89 520.091L187.425 520.068C187.435 519.896 188.323 502.729 188.075 482.542C187.847 463.923 186.576 438.861 181.827 425.187L182.266 425.032C187.039 438.767 188.313 463.886 188.541 482.539C188.789 502.742 187.901 519.92 187.89 520.091Z" fill="url(#paint0_linear)"/>
<path d="M194.638 520.091C194.581 518.988 188.947 409.486 181.82 376.523L182.276 376.425C189.413 409.425 195.051 518.968 195.104 520.071L194.638 520.091Z" fill="url(#paint1_linear)"/>
<path d="M192.02 523.746C191.97 522.774 187.16 426.219 190.931 406.719L191.39 406.806C187.633 426.249 192.439 522.747 192.49 523.719L192.02 523.746Z" fill="url(#paint2_linear)"/>
<path d="M191.705 521.617H191.239C191.239 521.076 191.29 467.046 195.651 442.391L196.11 442.472C191.755 467.086 191.705 521.073 191.705 521.617Z" fill="url(#paint3_linear)"/>
<path d="M229.53 421.24C229.53 421.24 224.719 388.375 212.696 403.955C204.396 414.714 198.976 429.897 196.415 438.266C195.292 441.934 194.618 445.723 194.394 449.553L193.857 458.765C219.943 390.473 229.53 421.24 229.53 421.24Z" fill="url(#paint4_linear)"/>
<path d="M235.607 381.842C235.607 381.842 240.42 350.412 213.105 364.422C186.932 377.851 189.862 418.227 189.862 418.227C191.43 411.493 194.263 393.499 203.612 381.842C228.386 350.957 235.607 381.842 235.607 381.842Z" fill="url(#paint5_linear)"/>
<path d="M208.398 482.492C192.821 479.409 191.977 492.804 191.977 492.804V497.712C193.294 489.253 208.398 482.492 208.398 482.492Z" fill="url(#paint6_linear)"/>
<path d="M169.991 347.333C154.763 335.878 146.547 347.333 146.547 347.333C146.547 347.333 175.82 348.758 186.932 413.463C186.932 413.463 185.219 358.788 169.991 347.333Z" fill="url(#paint7_linear)"/>
<path d="M157.377 393.556C157.377 393.556 181.793 425.301 186.708 451.23L186.168 445.168C186.168 445.165 185.199 399.117 157.377 393.556Z" fill="url(#paint8_linear)"/>
<path d="M186.708 451.23L187.549 460.688C187.639 457.679 187.328 454.502 186.708 451.23Z" fill="#DAE5E8"/>
<path d="M167.799 462.692C167.799 462.692 187.056 482.788 188.347 487.011C188.347 487.011 180.62 463.899 167.799 462.692Z" fill="url(#paint9_linear)"/>
<path d="M207.202 559.751L214.167 517.546H168.312L175.274 559.751H207.202Z" fill="url(#paint10_linear)"/>
<path d="M218.475 506.229H164.001V517.543H218.475V506.229Z" fill="url(#paint11_linear)"/>
<path d="M214.167 517.546H168.312L175.274 559.751H183.114C183.114 559.751 175.445 526.99 212.662 526.654L214.167 517.546Z" fill="url(#paint12_linear)"/>
<g opacity="0.95">
<path opacity="0.95" d="M674.831 115.477H684.934L681.844 109.045H671.741L674.831 115.477Z" fill="url(#paint13_linear)"/>
<path opacity="0.95" d="M670.105 115.477H672.511L669.418 109.045H667.011L670.105 115.477Z" fill="url(#paint14_linear)"/>
<path opacity="0.95" d="M635.197 107.818H676.108L674.751 104.601H633.839L635.197 107.818Z" fill="url(#paint15_linear)"/>
</g>
<path d="M415.482 5.24163H400.033C399.51 5.24163 399.087 4.81799 399.087 4.29349V0.948132C399.087 0.423634 399.51 0 400.033 0H415.482C416.005 0 416.427 0.423634 416.427 0.948132V4.29349C416.427 4.81799 416.005 5.24163 415.482 5.24163Z" fill="url(#paint16_linear)"/>
<path d="M415.482 17.8061H400.033C399.51 17.8061 399.087 17.3824 399.087 16.8579V13.5126C399.087 12.9881 399.51 12.5645 400.033 12.5645H415.482C416.005 12.5645 416.427 12.9881 416.427 13.5126V16.8579C416.427 17.3824 416.005 17.8061 415.482 17.8061Z" fill="url(#paint17_linear)"/>
<path d="M415.482 30.3739H400.033C399.51 30.3739 399.087 29.9503 399.087 29.4258V26.0804C399.087 25.5559 399.51 25.1323 400.033 25.1323H415.482C416.005 25.1323 416.427 25.5559 416.427 26.0804V29.4258C416.427 29.9503 416.005 30.3739 415.482 30.3739Z" fill="url(#paint18_linear)"/>
<path d="M427.573 5.24163H424.529C424.006 5.24163 423.584 4.81799 423.584 4.29349V0.948132C423.584 0.423634 424.006 0 424.529 0H427.573C428.096 0 428.518 0.423634 428.518 0.948132V4.29349C428.518 4.81799 428.096 5.24163 427.573 5.24163Z" fill="url(#paint19_linear)"/>
<path d="M427.573 17.8061H424.529C424.006 17.8061 423.584 17.3824 423.584 16.8579V13.5126C423.584 12.9881 424.006 12.5645 424.529 12.5645H427.573C428.096 12.5645 428.518 12.9881 428.518 13.5126V16.8579C428.518 17.3824 428.096 17.8061 427.573 17.8061Z" fill="url(#paint20_linear)"/>
<path d="M427.573 30.3739H424.529C424.006 30.3739 423.584 29.9503 423.584 29.4258V26.0804C423.584 25.5559 424.006 25.1323 424.529 25.1323H427.573C428.096 25.1323 428.518 25.5559 428.518 26.0804V29.4258C428.518 29.9503 428.096 30.3739 427.573 30.3739Z" fill="url(#paint21_linear)"/>
<path d="M216.426 200.863H234.564L229.013 189.317H210.875L216.426 200.863Z" fill="url(#paint22_linear)"/>
<path d="M207.939 200.863H212.263L206.712 189.317H202.388L207.939 200.863Z" fill="url(#paint23_linear)"/>
<defs>
<linearGradient id="paint0_linear" x1="181.827" y1="472.563" x2="188.586" y2="472.563" gradientUnits="userSpaceOnUse">
<stop stop-color="#6B9E34"/>
<stop offset="0.1351" stop-color="#61933C"/>
<stop offset="1" stop-color="#1F4A6E"/>
</linearGradient>
<linearGradient id="paint1_linear" x1="181.82" y1="448.258" x2="195.104" y2="448.258" gradientUnits="userSpaceOnUse">
<stop stop-color="#6B9E34"/>
<stop offset="0.1351" stop-color="#61933C"/>
<stop offset="1" stop-color="#1F4A6E"/>
</linearGradient>
<linearGradient id="paint2_linear" x1="189.489" y1="465.232" x2="192.486" y2="465.232" gradientUnits="userSpaceOnUse">
<stop stop-color="#6B9E34"/>
<stop offset="0.1351" stop-color="#61933C"/>
<stop offset="1" stop-color="#1F4A6E"/>
</linearGradient>
<linearGradient id="paint3_linear" x1="191.239" y1="482.003" x2="196.11" y2="482.003" gradientUnits="userSpaceOnUse">
<stop stop-color="#6B9E34"/>
<stop offset="0.1351" stop-color="#61933C"/>
<stop offset="1" stop-color="#1F4A6E"/>
</linearGradient>
<linearGradient id="paint4_linear" x1="193.857" y1="429.264" x2="229.529" y2="429.264" gradientUnits="userSpaceOnUse">
<stop stop-color="#6B9E34"/>
<stop offset="0.1351" stop-color="#61933C"/>
<stop offset="1" stop-color="#1F4A6E"/>
</linearGradient>
<linearGradient id="paint5_linear" x1="189.763" y1="389.527" x2="235.932" y2="389.527" gradientUnits="userSpaceOnUse">
<stop stop-color="#6B9E34"/>
<stop offset="0.1351" stop-color="#61933C"/>
<stop offset="1" stop-color="#1F4A6E"/>
</linearGradient>
<linearGradient id="paint6_linear" x1="191.976" y1="489.872" x2="208.398" y2="489.872" gradientUnits="userSpaceOnUse">
<stop stop-color="#6B9E34"/>
<stop offset="0.1351" stop-color="#61933C"/>
<stop offset="1" stop-color="#1F4A6E"/>
</linearGradient>
<linearGradient id="paint7_linear" x1="146.546" y1="377.852" x2="186.931" y2="377.852" gradientUnits="userSpaceOnUse">
<stop stop-color="#6B9E34"/>
<stop offset="0.1351" stop-color="#61933C"/>
<stop offset="1" stop-color="#1F4A6E"/>
</linearGradient>
<linearGradient id="paint8_linear" x1="157.378" y1="422.393" x2="186.708" y2="422.393" gradientUnits="userSpaceOnUse">
<stop stop-color="#6B9E34"/>
<stop offset="0.1351" stop-color="#61933C"/>
<stop offset="1" stop-color="#1F4A6E"/>
</linearGradient>
<linearGradient id="paint9_linear" x1="167.798" y1="474.853" x2="188.347" y2="474.853" gradientUnits="userSpaceOnUse">
<stop stop-color="#6B9E34"/>
<stop offset="0.1351" stop-color="#61933C"/>
<stop offset="1" stop-color="#1F4A6E"/>
</linearGradient>
<linearGradient id="paint10_linear" x1="168.312" y1="538.648" x2="214.166" y2="538.648" gradientUnits="userSpaceOnUse">
<stop stop-color="#D1D7E0"/>
<stop offset="1" stop-color="#EBEBFF"/>
</linearGradient>
<linearGradient id="paint11_linear" x1="191.239" y1="493.922" x2="191.239" y2="585.755" gradientUnits="userSpaceOnUse">
<stop stop-color="#D1D7E0"/>
<stop offset="1" stop-color="#EBEBFF"/>
</linearGradient>
<linearGradient id="paint12_linear" x1="189.484" y1="507.361" x2="203.175" y2="588.678" gradientUnits="userSpaceOnUse">
<stop stop-color="#D1D7E0"/>
<stop offset="1" stop-color="#EBEBFF"/>
</linearGradient>
<linearGradient id="paint13_linear" x1="671.739" y1="112.262" x2="684.935" y2="112.262" gradientUnits="userSpaceOnUse">
<stop stop-color="#D1D7E0"/>
<stop offset="1" stop-color="#EBEBFF"/>
</linearGradient>
<linearGradient id="paint14_linear" x1="667.011" y1="112.262" x2="672.511" y2="112.262" gradientUnits="userSpaceOnUse">
<stop stop-color="#D1D7E0"/>
<stop offset="1" stop-color="#EBEBFF"/>
</linearGradient>
<linearGradient id="paint15_linear" x1="633.839" y1="106.208" x2="676.108" y2="106.208" gradientUnits="userSpaceOnUse">
<stop stop-color="#D1D7E0"/>
<stop offset="1" stop-color="#EBEBFF"/>
</linearGradient>
<linearGradient id="paint16_linear" x1="399.09" y1="2.62048" x2="416.427" y2="2.62048" gradientUnits="userSpaceOnUse">
<stop stop-color="#D1D7E0"/>
<stop offset="1" stop-color="#EBEBFF"/>
</linearGradient>
<linearGradient id="paint17_linear" x1="399.09" y1="15.1867" x2="416.427" y2="15.1867" gradientUnits="userSpaceOnUse">
<stop stop-color="#D1D7E0"/>
<stop offset="1" stop-color="#EBEBFF"/>
</linearGradient>
<linearGradient id="paint18_linear" x1="399.09" y1="27.7531" x2="416.427" y2="27.7531" gradientUnits="userSpaceOnUse">
<stop stop-color="#D1D7E0"/>
<stop offset="1" stop-color="#EBEBFF"/>
</linearGradient>
<linearGradient id="paint19_linear" x1="423.585" y1="2.62048" x2="428.518" y2="2.62048" gradientUnits="userSpaceOnUse">
<stop stop-color="#D1D7E0"/>
<stop offset="1" stop-color="#EBEBFF"/>
</linearGradient>
<linearGradient id="paint20_linear" x1="423.585" y1="15.1867" x2="428.518" y2="15.1867" gradientUnits="userSpaceOnUse">
<stop stop-color="#D1D7E0"/>
<stop offset="1" stop-color="#EBEBFF"/>
</linearGradient>
<linearGradient id="paint21_linear" x1="423.585" y1="27.7531" x2="428.518" y2="27.7531" gradientUnits="userSpaceOnUse">
<stop stop-color="#D1D7E0"/>
<stop offset="1" stop-color="#EBEBFF"/>
</linearGradient>
<linearGradient id="paint22_linear" x1="210.875" y1="195.09" x2="234.562" y2="195.09" gradientUnits="userSpaceOnUse">
<stop stop-color="#D1D7E0"/>
<stop offset="1" stop-color="#EBEBFF"/>
</linearGradient>
<linearGradient id="paint23_linear" x1="202.389" y1="195.09" x2="212.262" y2="195.09" gradientUnits="userSpaceOnUse">
<stop stop-color="#D1D7E0"/>
<stop offset="1" stop-color="#EBEBFF"/>
</linearGradient>
</defs>
</svg>
