<svg width="80" height="80" viewBox="0 0 80 80" fill="none" xmlns="http://www.w3.org/2000/svg">
<g clip-path="url(#clip0)">
<g opacity="0.5">
<g opacity="0.5">
<path opacity="0.5" d="M69.8662 43.5752C69.5814 43.5752 69.3515 43.3436 69.3515 43.0606C69.3515 42.7775 69.5814 42.5459 69.8662 42.5459H74.3815C74.6629 42.5459 74.8945 42.7758 74.8962 43.0589C74.8962 43.3419 74.6663 43.5735 74.3832 43.5752H69.8662ZM65.3697 43.5752H60.8749C60.5901 43.5752 60.3602 43.3436 60.3602 43.0606C60.3602 42.7775 60.5901 42.5459 60.8749 42.5459H65.3697C65.6545 42.5459 65.8843 42.7775 65.8843 43.0606C65.8843 43.3436 65.6545 43.5752 65.3697 43.5752ZM56.3784 43.5752H51.8837C51.5989 43.5752 51.369 43.3436 51.369 43.0606C51.369 42.7775 51.5989 42.5459 51.8837 42.5459H56.3784C56.6632 42.5459 56.8931 42.7775 56.8931 43.0606C56.8931 43.3436 56.6632 43.5752 56.3784 43.5752ZM47.3872 43.5752H42.8924C42.6076 43.5752 42.3777 43.3436 42.3777 43.0606C42.3777 42.7775 42.6076 42.5459 42.8924 42.5459H47.3872C47.672 42.5459 47.9018 42.7775 47.9018 43.0606C47.9018 43.3436 47.672 43.5752 47.3872 43.5752ZM38.6086 42.6025C38.4971 42.6025 38.3891 42.5665 38.2998 42.4996C37.6531 42.0124 37.1144 41.3742 36.7455 40.6554C36.3578 39.9005 36.1588 39.0856 36.1554 38.233C36.1554 38.2261 36.1554 38.2193 36.1554 38.2107V38.209C36.1571 37.9259 36.387 37.696 36.6701 37.696C36.9531 37.696 37.1847 37.9259 37.1847 38.2107C37.1864 39.5831 37.8178 40.8458 38.9174 41.6761C38.9174 41.6761 38.9174 41.6761 38.9192 41.6761C39.1456 41.8477 39.1919 42.1702 39.0204 42.3984C38.9226 42.5288 38.7733 42.6025 38.6086 42.6025ZM78.2518 41.6246C78.1403 41.6246 78.0339 41.5886 77.9447 41.5217C77.8126 41.4239 77.7371 41.273 77.7371 41.1083C77.7371 40.9985 77.7732 40.8921 77.8384 40.8029L77.8401 40.8012C77.8435 40.7943 77.8487 40.7892 77.8538 40.784C78.4079 40.0326 78.7013 39.1422 78.7013 38.2055V36.8245C78.7013 36.5397 78.9329 36.3098 79.216 36.3098C79.499 36.3098 79.7306 36.5397 79.7306 36.8245V38.2055C79.7306 39.3687 79.3652 40.4735 78.6756 41.4033C78.6721 41.4068 78.6687 41.4119 78.6653 41.4171C78.6635 41.4188 78.6635 41.4188 78.6635 41.4188C78.564 41.5492 78.4148 41.6246 78.2518 41.6246ZM36.6701 34.2289C36.387 34.2289 36.1554 33.999 36.1554 33.7159V29.2194C36.1554 28.9364 36.387 28.7048 36.6701 28.7048C36.9531 28.7048 37.1847 28.9364 37.1847 29.2194V33.7159C37.1847 33.999 36.9531 34.2289 36.6701 34.2289ZM79.216 32.8427C78.9329 32.8427 78.7013 32.6128 78.7013 32.328V27.8333C78.7013 27.5485 78.9329 27.3186 79.216 27.3186C79.499 27.3186 79.7306 27.5485 79.7306 27.8333V32.328C79.7306 32.6128 79.499 32.8427 79.216 32.8427ZM36.6701 25.2393C36.387 25.2393 36.1554 25.0077 36.1554 24.7229V20.2282C36.1554 19.9451 36.387 19.7135 36.6701 19.7135C36.9531 19.7135 37.1847 19.9451 37.1847 20.2282V24.7229C37.1847 25.0077 36.9531 25.2393 36.6701 25.2393ZM79.216 23.8514C78.9329 23.8514 78.7013 23.6216 78.7013 23.3368V18.842C78.7013 18.5572 78.9329 18.3273 79.216 18.3273C79.499 18.3273 79.7306 18.5572 79.7306 18.842V23.3368C79.7306 23.6216 79.499 23.8514 79.216 23.8514ZM36.6701 16.2481C36.387 16.2481 36.1554 16.0165 36.1554 15.7334V11.2369C36.1554 10.9539 36.387 10.7223 36.6701 10.7223C36.9531 10.7223 37.1847 10.9539 37.1847 11.2369V15.7334C37.1847 16.0165 36.9531 16.2481 36.6701 16.2481ZM79.216 14.8602C78.9329 14.8602 78.7013 14.6303 78.7013 14.3455V9.85075C78.7013 9.56597 78.9329 9.33608 79.216 9.33608C79.499 9.33608 79.7306 9.56597 79.7306 9.85075V14.3455C79.7306 14.6303 79.499 14.8602 79.216 14.8602ZM36.6701 7.25682C36.387 7.25682 36.1554 7.02522 36.1554 6.74215V5.3697C36.1554 4.19626 36.526 3.08286 37.2276 2.1496C37.3254 2.0175 37.4764 1.94373 37.6394 1.94373C37.7526 1.94373 37.8589 1.97976 37.9482 2.04666C38.0785 2.14445 38.154 2.29542 38.154 2.4584C38.154 2.57163 38.118 2.67799 38.0511 2.7672C37.485 3.52205 37.1847 4.42272 37.1847 5.3697V6.74215C37.1847 7.02522 36.9531 7.25682 36.6701 7.25682ZM79.2177 5.86893C78.9329 5.86893 78.7013 5.63905 78.7013 5.35598C78.6961 3.98182 78.0614 2.71916 76.96 1.89398C76.7335 1.72242 76.6872 1.3999 76.8571 1.17344C76.9548 1.04135 77.1041 0.965861 77.2688 0.965861C77.3803 0.965861 77.4867 1.00189 77.5776 1.06879C78.2278 1.55601 78.7699 2.19592 79.1405 2.91988C79.5299 3.67816 79.7272 4.49648 79.7306 5.35255C79.7306 5.63733 79.5007 5.86893 79.2177 5.86893ZM72.9833 1.02934H68.4886C68.2055 1.02934 67.9739 0.797736 67.9739 0.514668C67.9739 0.229885 68.2055 0 68.4886 0H72.9833C73.2681 0 73.498 0.229885 73.498 0.514668C73.498 0.797736 73.2681 1.02934 72.9833 1.02934ZM63.9938 1.02934H59.4973C59.2142 1.02934 58.9826 0.797736 58.9826 0.514668C58.9826 0.229885 59.2142 0 59.4973 0H63.9938C64.2769 0 64.5067 0.229885 64.5067 0.514668C64.5067 0.797736 64.2769 1.02934 63.9938 1.02934ZM55.0025 1.02934H50.5061C50.223 1.02934 49.9914 0.797736 49.9914 0.514668C49.9914 0.229885 50.223 0 50.5061 0H55.0025C55.2856 0 55.5155 0.229885 55.5155 0.514668C55.5155 0.797736 55.2856 1.02934 55.0025 1.02934ZM46.0096 1.02934H41.5165L41.5148 1.02076V1.02934C41.2317 1.02934 41.0001 0.799451 41.0001 0.516384C41.0001 0.379139 41.0533 0.248756 41.1494 0.150969C41.2472 0.0548979 41.3758 0 41.5131 0H45.9907C45.9976 0 46.0044 0 46.0096 0C46.2875 0 46.5174 0.224738 46.5242 0.500944C46.5242 0.50609 46.5242 0.509522 46.5242 0.514668C46.5242 0.797736 46.2944 1.02934 46.0096 1.02934Z" fill="#1C94D2"/>
</g>
</g>
<g opacity="0.5">
<path opacity="0.5" d="M13.1668 71.5389C12.8648 71.2369 12.8648 70.748 13.1668 70.4478L16.7077 66.9068C17.0096 66.6049 17.4986 66.6049 17.7988 66.9068C18.1007 67.2088 18.1007 67.6977 17.7988 67.9979L14.2579 71.5389C13.9576 71.8408 13.4687 71.8408 13.1668 71.5389Z" fill="#1C94D2"/>
</g>
<g opacity="0.5">
<path opacity="0.5" d="M11.9658 79.7736C11.6639 79.4716 11.6639 78.9827 11.9658 78.6825L24.3419 66.3064C24.6438 66.0045 25.1328 66.0045 25.433 66.3064C25.7349 66.6083 25.7349 67.0973 25.433 67.3975L13.0569 79.7736C12.7567 80.0755 12.2678 80.0755 11.9658 79.7736Z" fill="#1C94D2"/>
</g>
<path d="M39.578 59.7444H5.36968C2.68826 59.7444 0.514648 57.5708 0.514648 54.8893V20.6811C0.514648 17.9996 2.68826 15.826 5.36968 15.826H39.578C42.2594 15.826 44.433 17.9996 44.433 20.6811V54.8893C44.433 57.5708 42.2594 59.7444 39.578 59.7444Z" fill="white"/>
<path d="M39.578 60.259H5.3697C2.40865 60.259 0 57.8504 0 54.8893V20.6811C0 17.72 2.40865 15.3114 5.3697 15.3114H39.578C42.539 15.3114 44.9477 17.72 44.9477 20.6811V54.8893C44.9477 57.8504 42.539 60.259 39.578 60.259ZM5.3697 16.3407C2.9765 16.3407 1.02934 18.2879 1.02934 20.6811V54.8893C1.02934 57.2826 2.9765 59.2297 5.3697 59.2297H39.578C41.9712 59.2297 43.9183 57.2826 43.9183 54.8893V20.6811C43.9183 18.2879 41.9712 16.3407 39.578 16.3407H5.3697Z" fill="#1C94D2"/>
<path d="M57.8573 26.0765C57.5725 26.0765 57.3427 25.8466 57.3427 25.5618V17.4987C57.3427 17.2139 57.5725 16.984 57.8573 16.984C58.1421 16.984 58.372 17.2139 58.372 17.4987V25.5618C58.372 25.8466 58.1421 26.0765 57.8573 26.0765Z" fill="#1C94D2"/>
<path d="M57.8571 26.5002C57.725 26.5002 57.5929 26.4505 57.4934 26.3493L53.7209 22.5767C53.5201 22.376 53.5201 22.0501 53.7209 21.8493C53.9216 21.6486 54.2475 21.6486 54.4482 21.8493L57.8553 25.2564L61.2624 21.8493C61.4632 21.6486 61.7891 21.6486 61.9898 21.8493C62.1906 22.0501 62.1906 22.376 61.9898 22.5767L58.2173 26.3493C58.1213 26.4505 57.9892 26.5002 57.8571 26.5002Z" fill="#1C94D2"/>
<path d="M56.449 67.0596L50.1923 60.8029C50.0293 60.64 50.0293 60.374 50.1923 60.2111L53.2066 57.1968C53.4347 56.9687 53.3301 56.5809 53.0196 56.4969L46.0715 54.6355L39.1235 52.7741C38.813 52.69 38.5282 52.9748 38.6106 53.2871L40.472 60.2351L42.3333 67.1831C42.4174 67.4936 42.8051 67.5983 43.0333 67.3701L46.1196 64.2838C46.2826 64.1208 46.5485 64.1208 46.7114 64.2838L52.9681 70.5405C53.1311 70.7034 53.397 70.7034 53.56 70.5405L56.449 67.6515C56.6119 67.4885 56.6119 67.2226 56.449 67.0596Z" fill="white"/>
<path d="M53.2632 71.1769C53.0247 71.1769 52.7846 71.086 52.6044 70.9041L46.4164 64.7161L43.3987 67.7338C43.1603 67.9722 42.824 68.0615 42.4981 67.9757C42.1721 67.8882 41.9251 67.6411 41.8376 67.3152L38.1148 53.4191C38.0273 53.0932 38.1182 52.7569 38.3567 52.5185C38.5952 52.28 38.9314 52.1891 39.2574 52.2766L53.1534 55.9993C53.4794 56.0868 53.7264 56.3322 53.8139 56.6581C53.9014 56.9841 53.8105 57.3203 53.572 57.5588L50.6247 60.5061L56.8127 66.6941C57.1764 67.0578 57.1764 67.6497 56.8127 68.0134L53.9237 70.9024C53.7418 71.086 53.5034 71.1769 53.2632 71.1769ZM46.4164 63.6473C46.6652 63.6473 46.9002 63.7451 47.0769 63.9201L53.2649 70.1081L56.0167 67.3564L49.8286 61.1683C49.6519 60.9916 49.5559 60.7583 49.5559 60.5095C49.5559 60.2608 49.6537 60.0258 49.8286 59.8508L52.7245 56.9549L39.1527 53.3179L42.7897 66.8897L45.7576 63.9218C45.9326 63.7434 46.1676 63.6473 46.4164 63.6473Z" fill="#1C94D2"/>
<path d="M22.4738 37.6994C18.5486 37.6994 15.3542 34.5051 15.3542 30.5799C15.3542 26.6547 18.5486 23.4603 22.4738 23.4603C26.399 23.4603 29.5934 26.6547 29.5934 30.5799C29.5934 34.5051 26.399 37.6994 22.4738 37.6994ZM22.4738 24.4896C19.1148 24.4896 16.3836 27.2225 16.3836 30.5799C16.3836 33.9372 19.1148 36.6701 22.4738 36.6701C25.8329 36.6701 28.5641 33.9372 28.5641 30.5799C28.5641 27.2225 25.8329 24.4896 22.4738 24.4896Z" fill="#1C94D2"/>
<path d="M34.3112 52.1101C34.0264 52.1101 33.7966 51.8803 33.7966 51.5955C33.7966 45.3525 28.7168 40.2728 22.4739 40.2728C16.2309 40.2728 11.1512 45.3525 11.1512 51.5955C11.1512 51.8803 10.9213 52.1101 10.6365 52.1101C10.3517 52.1101 10.1218 51.8803 10.1218 51.5955C10.1218 44.7847 15.6631 39.2434 22.4739 39.2434C29.2846 39.2434 34.8259 44.7847 34.8259 51.5955C34.8259 51.8803 34.596 52.1101 34.3112 52.1101Z" fill="#1C94D2"/>
</g>
<defs>
<clipPath id="clip0">
<rect width="79.7307" height="80" fill="white"/>
</clipPath>
</defs>
</svg>
