<svg width="300" height="48" viewBox="0 0 300 48" fill="none" xmlns="http://www.w3.org/2000/svg">
<path fill-rule="evenodd" clip-rule="evenodd" d="M64.8142 29.7701C65.8804 24.6918 69.1599 21.3876 72.3425 21.3876C75.2665 21.3876 76.4135 23.8454 76.4135 26.5148C76.4135 31.3327 73.0533 37.9736 67.5121 37.9736C65.2504 37.9736 64.0549 36.8505 64.0549 34.7996C64.0064 33.644 64.1357 32.7976 64.3134 32.0326L64.8142 29.7701ZM65.2988 8.70805L60.6946 31.9512C60.4685 32.9766 60.2908 34.2788 60.2908 35.3367C60.2908 39.3083 63.1179 40.8708 66.8821 40.8708C75.4766 40.8708 80.21 32.6999 80.21 26.059C80.21 22.2177 78.4329 18.295 73.748 18.295C70.8724 18.295 68.126 19.8088 66.2197 22.706H66.1389L68.9661 8.69177H65.2988V8.70805Z" fill="#231F1F"/>
<path fill-rule="evenodd" clip-rule="evenodd" d="M91.7286 21.2411C95.5735 21.2411 96.7367 24.7568 96.7367 27.2634C96.7367 32.3092 93.4572 37.9247 89.1276 37.9247C86.0259 37.9247 84.0873 35.3855 84.0873 31.8535C84.0711 26.9054 87.1244 21.2411 91.7286 21.2411ZM92.1325 18.295C85.1858 18.295 80.2747 24.8545 80.2747 31.9837C80.2747 36.8504 83.2795 40.8545 88.643 40.8545C95.8643 40.8545 100.549 33.9369 100.549 27.2472C100.533 22.7222 97.916 18.295 92.1325 18.295Z" fill="#231F1F"/>
<path fill-rule="evenodd" clip-rule="evenodd" d="M103.813 40.3825L105.59 30.8769C106.527 25.8311 109.354 21.9572 112.536 21.9572C112.94 21.9572 113.296 22.0061 113.554 22.0386L114.265 18.3764C113.958 18.3275 113.554 18.295 113.199 18.295C110.323 18.295 108.013 20.5249 106.64 23.471H106.511C106.737 21.827 106.914 20.297 107.092 18.7833H103.861C103.635 20.7853 103.28 23.65 102.795 26.4496L100.178 40.3662H103.813V40.3825Z" fill="#231F1F"/>
<path fill-rule="evenodd" clip-rule="evenodd" d="M126.22 29.7213C125.283 34.588 121.874 37.8434 119.047 37.8434C115.897 37.8434 115.024 35.1251 115.024 32.5371C115.024 26.7752 119.015 21.2574 124.152 21.2574C125.703 21.2574 126.947 21.6643 127.641 22.2014L126.22 29.7213ZM130.162 8.70805L128.255 19.06C127.318 18.6206 125.816 18.295 124.443 18.295C116.866 18.295 111.212 25.3428 111.212 33.0092C111.212 37.4202 113.473 40.8545 117.625 40.8545C120.679 40.8545 123.376 39.1618 125.331 36.0855H125.412L124.83 40.3662H128.191C128.32 38.2665 128.675 35.7762 129.079 33.4975L133.764 8.69177H130.162V8.70805Z" fill="#231F1F"/>
<path fill-rule="evenodd" clip-rule="evenodd" d="M146.01 23.9267C146.01 27.3123 141.486 28.1261 135.687 28.0285C136.624 24.6429 139.225 21.2085 142.73 21.2085C144.669 21.1922 146.01 22.1851 146.01 23.9267ZM146.268 36.411C144.943 37.1271 143.037 37.8759 140.517 37.8759C138.304 37.8759 136.575 36.9318 135.735 34.9786C135.25 33.823 135.121 31.8046 135.299 30.8769C143.231 31.0071 149.548 29.5422 149.548 23.8779C149.548 20.7528 147.334 18.295 143.263 18.295C136.365 18.295 131.567 25.6521 131.567 32.1627C131.567 36.9318 134.039 40.8545 139.709 40.8545C142.585 40.8545 145.202 40.0569 146.801 39.1617L146.268 36.411Z" fill="#231F1F"/>
<path fill-rule="evenodd" clip-rule="evenodd" d="M152.165 40.3825L153.942 30.8769C154.879 25.8311 157.706 21.9572 160.889 21.9572C161.292 21.9572 161.648 22.0061 161.906 22.0386L162.617 18.3764C162.31 18.3275 161.906 18.295 161.551 18.295C158.675 18.295 156.365 20.5249 154.992 23.471H154.863C155.089 21.827 155.267 20.297 155.444 18.7833H152.213C151.987 20.7853 151.632 23.65 151.147 26.4496L148.53 40.3662H152.165V40.3825Z" fill="#231F1F"/>
<path fill-rule="evenodd" clip-rule="evenodd" d="M163.36 40.3825L169.338 8.70807H165.654L159.677 40.3825H163.36Z" fill="#231F1F"/>
<path fill-rule="evenodd" clip-rule="evenodd" d="M181.502 23.9267C181.502 27.3123 176.979 28.1261 171.179 28.0285C172.116 24.6429 174.717 21.2085 178.223 21.2085C180.178 21.1922 181.502 22.1851 181.502 23.9267ZM181.777 36.411C180.452 37.1271 178.546 37.8759 176.026 37.8759C173.813 37.8759 172.084 36.9318 171.244 34.9786C170.759 33.823 170.63 31.8046 170.808 30.8769C178.74 31.0071 185.057 29.5422 185.057 23.8779C185.057 20.7528 182.843 18.295 178.772 18.295C171.858 18.295 167.092 25.6521 167.092 32.1627C167.092 36.9318 169.564 40.8545 175.234 40.8545C178.11 40.8545 180.727 40.0569 182.31 39.1617L181.777 36.411Z" fill="#231F1F"/>
<path fill-rule="evenodd" clip-rule="evenodd" d="M183.15 39.3571C184.12 40.1221 186.204 40.7894 188.514 40.822C193.037 40.822 196.656 38.2828 196.656 33.7253C196.656 31.3164 195.057 29.3957 192.666 28.061C190.711 26.9868 189.693 26.0102 189.693 24.4476C189.693 22.5758 191.292 21.1923 193.506 21.1923C195.105 21.1923 196.478 21.7294 197.221 22.1689L198.239 19.353C197.448 18.8159 195.719 18.2787 193.764 18.2787C189.241 18.2787 186.01 21.176 186.01 24.9196C186.01 27.1496 187.383 29.0702 189.855 30.4537C192.116 31.707 192.859 32.7325 192.859 34.4252C192.859 36.3459 191.26 37.9573 188.788 37.9573C187.011 37.9573 185.202 37.2411 184.184 36.6226L183.15 39.3571Z" fill="#231F1F"/>
<path fill-rule="evenodd" clip-rule="evenodd" d="M196.737 39.3571C197.706 40.1221 199.79 40.7894 202.1 40.822C206.624 40.822 210.242 38.2828 210.242 33.7253C210.242 31.3164 208.643 29.3957 206.252 28.061C204.297 26.9868 203.28 26.0102 203.28 24.4476C203.28 22.5758 204.879 21.1923 207.092 21.1923C208.691 21.1923 210.065 21.7294 210.808 22.1689L211.826 19.353C211.034 18.8159 209.305 18.2787 207.351 18.2787C202.827 18.2787 199.596 21.176 199.596 24.9196C199.596 27.1496 200.969 29.0702 203.441 30.4537C205.703 31.707 206.446 32.7325 206.446 34.4252C206.446 36.3459 204.847 37.9573 202.375 37.9573C200.598 37.9573 198.788 37.2411 197.771 36.6226L196.737 39.3571Z" fill="#231F1F"/>
<path fill-rule="evenodd" clip-rule="evenodd" d="M217.124 39.8291L218.901 30.0142C219.661 25.6846 221.955 22.6572 224.12 22.6572C225.67 22.6572 226.155 23.8128 226.155 25.3266C226.155 26.0916 226.026 26.9379 225.897 27.8169L223.635 39.8128H229.79L231.599 29.9166C232.439 25.5056 234.572 22.6409 236.688 22.6409C238.142 22.6409 238.821 23.7152 238.821 25.2289C238.821 26.0753 238.691 27.0193 238.514 27.8657L236.349 39.8128H242.552L244.895 27.1007C245.073 25.9776 245.25 24.2523 245.25 23.3571C245.25 19.6623 243.296 17.4649 239.984 17.4649C237.157 17.4649 234.443 18.7996 232.504 21.6155C232.326 19.6948 230.824 17.4649 227.367 17.4649C224.572 17.4649 221.922 18.7182 219.935 21.5178H219.855L220.258 17.9858H214.814C214.556 19.9552 214.2 22.3154 213.699 25.0824L211.002 39.7965H217.124V39.8291Z" fill="#2A79BD"/>
<path fill-rule="evenodd" clip-rule="evenodd" d="M252.633 15.3001C254.669 15.3001 256.397 13.9654 256.397 11.6867C256.397 9.766 255.073 8.5127 253.166 8.5127C251.212 8.5127 249.499 9.9776 249.499 12.175C249.499 14.0468 250.775 15.3001 252.553 15.3001H252.633ZM250.856 39.8291L254.976 18.0183H248.595L244.475 39.8291H250.856Z" fill="#2A79BD"/>
<path fill-rule="evenodd" clip-rule="evenodd" d="M259.273 39.8291L261.082 30.1445C261.971 25.3266 264.41 22.6897 266.478 22.6897C268.11 22.6897 268.643 23.764 268.643 25.3266C268.643 26.1241 268.562 26.9705 268.417 27.7355L266.107 39.8291H272.52L274.911 27.1658C275.089 26.0916 275.267 24.4965 275.267 23.5036C275.267 19.7111 273.231 17.53 269.693 17.53C266.817 17.53 264.152 18.8159 262.116 21.6318H262.036L262.439 18.0183H256.817C256.511 19.9878 256.204 22.3479 255.622 25.115L252.876 39.8291H259.273Z" fill="#2A79BD"/>
<path fill-rule="evenodd" clip-rule="evenodd" d="M289.741 28.9888C288.901 33.1882 286.64 35.1414 284.782 35.1414C282.972 35.1414 281.809 33.6765 281.809 31.0397C281.809 26.8403 284.507 22.3805 288.368 22.3805C289.386 22.3805 290.355 22.6897 290.888 23.1455L289.741 28.9888ZM293.667 8.15464L291.761 18.0183C290.824 17.6602 289.677 17.4812 288.788 17.4812C280.598 17.4812 275.153 24.4802 275.153 32.0651C275.153 37.3713 278.158 40.3174 281.842 40.3174C284.41 40.3174 287.06 39.1943 288.966 36.2971H289.047L288.74 39.8128H294.588C294.669 37.2248 295.073 34.0997 295.606 31.3327L299.984 8.13837H293.667V8.15464Z" fill="#2A79BD"/>
<path d="M23.8126 47.9837C36.9639 47.9837 47.6252 37.2422 47.6252 23.9919C47.6252 10.7415 36.9639 0 23.8126 0C10.6613 0 0 10.7415 0 23.9919C0 37.2422 10.6613 47.9837 23.8126 47.9837Z" fill="url(#paint0_radial)"/>
<path d="M31.454 25.2777L28.1261 23.3408L31.874 21.1597C35.0566 18.4415 35.4443 16.1139 31.454 13.0214L16.5429 4.34589L16.559 8.98475L27.4799 15.3327C29.6931 16.4558 29.4346 18.0509 27.5122 19.0112L24.1196 21.0132L16.5267 16.6022L16.5429 21.2411L20.1778 23.3571L16.3652 25.6195L16.349 30.2421L24.1519 25.6846L27.4637 27.6053C29.6769 28.7284 29.4185 30.3235 27.496 31.2838L16.3652 37.8759L16.349 42.4985L31.8579 33.4324C35.0566 30.6979 35.4443 28.354 31.454 25.2777Z" fill="white"/>
<defs>
<radialGradient id="paint0_radial" cx="0" cy="0" r="1" gradientUnits="userSpaceOnUse" gradientTransform="translate(13.7725 10.3455) scale(36.7307 37.0072)">
<stop stop-color="#0090D6"/>
<stop offset="0.0331" stop-color="#028CD3"/>
<stop offset="0.4751" stop-color="#1A5BB0"/>
<stop offset="0.8112" stop-color="#283C9A"/>
<stop offset="1" stop-color="#2E3192"/>
</radialGradient>
</defs>
</svg>
