<svg width="24" height="24" viewBox="0 0 24 24" fill="none" xmlns="http://www.w3.org/2000/svg">
<path d="M15.5357 4.88958C15.4334 4.84698 15.3311 4.82568 15.2219 4.82568C14.8604 4.82568 14.5329 5.05998 14.4033 5.41496C14.2327 5.88355 14.4579 6.40893 14.9081 6.59352C17.5004 7.62299 19.2468 10.2641 19.2468 13.1537C19.2468 17.0302 16.2179 20.1753 12.5 20.1753C8.7821 20.1753 5.75321 17.0231 5.75321 13.1537C5.75321 10.2641 7.4996 7.62299 10.0919 6.59352C10.3102 6.50832 10.4807 6.33793 10.5762 6.11074C10.6717 5.89065 10.6786 5.64215 10.5967 5.41496C10.4671 5.06708 10.1396 4.83278 9.77809 4.83278C9.66894 4.83278 9.56661 4.85408 9.46429 4.88958C6.19663 6.19594 4 9.51152 4 13.1537C4 18.0312 7.8134 22 12.5 22C17.1866 22 21 18.0312 21 13.1537C21 9.51152 18.8034 6.19594 15.5357 4.88958Z" fill="#E25822"/>
<path d="M12.5001 11.3646C12.9845 11.3646 13.3733 10.9599 13.3733 10.4558V2.90877C13.3733 2.40469 12.9777 2 12.5001 2C12.0226 2 11.627 2.41179 11.627 2.90877V10.4558C11.627 10.9528 12.0158 11.3646 12.5001 11.3646Z" fill="#E25822"/>
</svg>
