<svg width="128" height="128" viewBox="0 0 128 128" fill="none" xmlns="http://www.w3.org/2000/svg">
<circle cx="64" cy="64" r="64" fill="#1C94D2" fill-opacity="0.2"/>
<path fill-rule="evenodd" clip-rule="evenodd" d="M70.9167 45.6667C70.9167 41.6223 67.5904 38.3333 63.5001 38.3333C59.4098 38.3333 56.0834 41.6223 56.0834 45.6667C56.0834 49.711 59.4098 53 63.5001 53C67.5904 53 70.9167 49.711 70.9167 45.6667ZM78.3334 45.6667C78.3334 53.7553 71.6806 60.3333 63.5 60.3333C55.3195 60.3333 48.6667 53.7553 48.6667 45.6667C48.6667 37.578 55.3195 31 63.5 31C71.6806 31 78.3334 37.578 78.3334 45.6667ZM37.5417 93.3333C37.5417 79.18 49.1896 67.6667 63.5 67.6667C77.8105 67.6667 89.4584 79.18 89.4584 93.3333C89.4584 95.3573 87.8007 97 85.75 97C83.6993 97 82.0417 95.3573 82.0417 93.3333C82.0417 83.2243 73.7239 75 63.5 75C53.2762 75 44.9584 83.2243 44.9584 93.3333C44.9584 95.3573 43.3007 97 41.25 97C39.1993 97 37.5417 95.3573 37.5417 93.3333Z" fill="white"/>
</svg>
