<svg width="24" height="24" viewBox="0 0 24 24" fill="none" xmlns="http://www.w3.org/2000/svg">
<g clip-path="url(#clip0)">
<path d="M20.3674 10.2141L18.508 9.76038C18.4185 9.50479 18.3163 9.25559 18.1949 9.01278L19.147 7.42811C19.3387 7.10224 19.2875 6.6869 19.0192 6.41853L17.5815 4.98083C17.4217 4.82748 17.2173 4.73802 16.9936 4.73802C16.8403 4.73802 16.6933 4.77636 16.5655 4.85304L14.9808 5.80511C14.7508 5.68371 14.5016 5.58147 14.2396 5.49201L13.7859 3.63259C13.6965 3.26198 13.3642 3 12.9872 3H10.9553C10.5719 3 10.2396 3.26198 10.1502 3.63259L9.6901 5.49201C9.4345 5.58147 9.17891 5.68371 8.94249 5.79872L7.35783 4.85304C7.23003 4.77636 7.08307 4.73163 6.92971 4.73163C6.70607 4.73163 6.5016 4.8147 6.34185 4.97444L4.90415 6.41214C4.63578 6.68051 4.58466 7.09585 4.77636 7.42173L5.72843 9.00639C5.60703 9.2492 5.50479 9.50479 5.41534 9.76038L3.61981 10.2077C3.25559 10.3099 3 10.6358 3 11.0192V13.0511C3 13.4281 3.25559 13.7604 3.6262 13.8562L5.42173 14.3035C5.51118 14.5591 5.61342 14.8147 5.73482 15.0575L4.78275 16.6422C4.58466 16.9681 4.64217 17.3834 4.91054 17.6518L6.34824 19.0895C6.50799 19.2428 6.71246 19.3323 6.9361 19.3323C7.08946 19.3323 7.23642 19.2939 7.36422 19.2173L8.94888 18.2652C9.19169 18.3866 9.44728 18.4888 9.70287 18.5783L10.1502 20.3738C10.2396 20.7444 10.5719 21 10.9553 21H12.9872C13.3706 21 13.6965 20.7444 13.7923 20.3738L14.2396 18.5783C14.4952 18.4888 14.7508 18.3866 14.9936 18.2652L16.5783 19.2173C16.7061 19.2939 16.853 19.3323 17.0064 19.3323C17.23 19.3323 17.4345 19.2492 17.5942 19.0895L19.0319 17.6518C19.3003 17.3834 19.3514 16.9681 19.1597 16.6422L18.2077 15.0575C18.3227 14.8147 18.4313 14.5655 18.5208 14.3099L20.3802 13.8562C20.7508 13.7668 21.0128 13.4345 21.0128 13.0511V11.0192C21 10.6358 20.738 10.3035 20.3674 10.2141ZM17.0575 13.4026C16.9361 13.8498 16.7636 14.278 16.5335 14.6741C16.3802 14.9361 16.3866 15.2556 16.5399 15.5176L17.3962 16.9489L16.8722 17.4728L15.4409 16.6166C15.3131 16.5399 15.1661 16.5016 15.0128 16.5016C14.8658 16.5016 14.7252 16.5399 14.5974 16.6102C14.2013 16.8403 13.7732 17.0128 13.3259 17.1342C13.0319 17.2109 12.8083 17.4409 12.738 17.7348L12.3355 19.3578H11.5942L11.1917 17.7348C11.1214 17.4409 10.8914 17.2109 10.6038 17.1342C10.1565 17.0128 9.72843 16.8403 9.33227 16.6102C9.20447 16.5399 9.0639 16.5016 8.91693 16.5016C8.76358 16.5016 8.61661 16.5399 8.48882 16.6166L7.05751 17.4728L6.53355 16.9489L7.38978 15.5176C7.54313 15.262 7.54952 14.9361 7.39617 14.6741C7.16613 14.278 6.98722 13.8498 6.8722 13.4026C6.79553 13.1086 6.56549 12.885 6.27157 12.8147L4.64856 12.4121V11.6709L6.27157 11.2684C6.56549 11.1981 6.79553 10.9681 6.8722 10.6805C6.98722 10.2396 7.16613 9.8115 7.39617 9.40895C7.54952 9.14057 7.54952 8.8147 7.39617 8.55911L6.53355 7.1278L7.05751 6.60383L8.48882 7.46006C8.61661 7.53674 8.76358 7.57508 8.91693 7.57508C9.0639 7.57508 9.20447 7.53674 9.33227 7.46645C9.72843 7.23642 10.1565 7.0639 10.6038 6.94249C10.8978 6.86581 11.1214 6.63578 11.1981 6.33546L11.607 4.65495H12.3419L12.7508 6.33546C12.8211 6.62939 13.0511 6.85943 13.3387 6.94249C13.7859 7.0639 14.2141 7.23642 14.6102 7.46645C14.738 7.53674 14.8786 7.57508 15.0256 7.57508C15.1789 7.57508 15.3259 7.53674 15.4537 7.46006L16.885 6.60383L17.4089 7.1278L16.5399 8.55911C16.3866 8.8147 16.3802 9.14058 16.5335 9.40256C16.7636 9.79233 16.9361 10.2204 17.0575 10.6677C17.1342 10.9617 17.3706 11.1853 17.6645 11.2556L19.345 11.6645V12.393L17.6645 12.8019C17.3642 12.8786 17.1342 13.1086 17.0575 13.4026Z" fill="#343C44"/>
<path d="M11.9645 8.15649C9.82396 8.15649 8.08594 9.89451 8.08594 12.0351C8.08594 14.1757 9.82396 15.9137 11.9645 15.9137C14.1051 15.9137 15.8431 14.1757 15.8431 12.0351C15.8431 9.89451 14.1051 8.15649 11.9645 8.15649ZM11.9645 14.2587C10.7377 14.2587 9.74089 13.2619 9.74089 12.0351C9.74089 10.8083 10.7377 9.81145 11.9645 9.81145C13.1914 9.81145 14.1882 10.8083 14.1882 12.0351C14.1882 13.2619 13.1914 14.2587 11.9645 14.2587Z" fill="#343C44"/>
</g>
<defs>
<clipPath id="clip0">
<rect width="18" height="18" fill="white" transform="translate(3 3)"/>
</clipPath>
</defs>
</svg>
